<svg width="26" height="25" viewBox="0 0 26 25" fill="none" xmlns="http://www.w3.org/2000/svg">
<g id="ep:arrow-up">
<path id="Vector" d="M12.4913 8.8355L4.4489 17.2763C4.31464 17.4171 4.23975 17.6042 4.23975 17.7988C4.23975 17.9934 4.31464 18.1805 4.4489 18.3213L4.45799 18.3304C4.52308 18.3989 4.60142 18.4535 4.68826 18.4908C4.77509 18.528 4.8686 18.5473 4.9631 18.5473C5.0576 18.5473 5.15112 18.528 5.23795 18.4908C5.32479 18.4535 5.40313 18.3989 5.46822 18.3304L13.0411 10.3819L20.611 18.3304C20.6761 18.3989 20.7545 18.4535 20.8413 18.4908C20.9281 18.528 21.0216 18.5473 21.1161 18.5473C21.2106 18.5473 21.3041 18.528 21.391 18.4908C21.4778 18.4535 21.5562 18.3989 21.6212 18.3304L21.6303 18.3213C21.7646 18.1805 21.8395 17.9934 21.8395 17.7988C21.8395 17.6042 21.7646 17.4171 21.6303 17.2763L13.5879 8.8355C13.5172 8.76127 13.4321 8.70217 13.3379 8.66179C13.2436 8.62141 13.1422 8.60059 13.0396 8.60059C12.9371 8.60059 12.8356 8.62141 12.7414 8.66179C12.6471 8.70217 12.5621 8.76127 12.4913 8.8355Z" fill="white"/>
</g>
</svg>
