<svg width="25" height="25" viewBox="0 0 25 25" fill="none" xmlns="http://www.w3.org/2000/svg">
<path d="M21.5544 2.84033H4.13669C3.71781 2.84033 3.37939 3.17875 3.37939 3.59762V21.0153C3.37939 21.4342 3.71781 21.7726 4.13669 21.7726H21.5544C21.9733 21.7726 22.3117 21.4342 22.3117 21.0153V3.59762C22.3117 3.17875 21.9733 2.84033 21.5544 2.84033ZM19.3677 8.36619H17.8555C16.6699 8.36619 16.4403 8.92943 16.4403 9.75772V11.5823H19.2707L18.9015 14.4387H16.4403V21.7726H13.4892V14.4411H11.0209V11.5823H13.4892V9.4761C13.4892 7.03147 14.9825 5.69911 17.1645 5.69911C18.2105 5.69911 19.1074 5.7772 19.3701 5.8127V8.36619H19.3677Z" fill="#1393C9"/>
</svg>
