<svg width="32" height="32" viewBox="0 0 32 32" fill="none" xmlns="http://www.w3.org/2000/svg">
<g id="Frame" clip-path="url(#clip0_335_4803)">
<g id="Group">
<g id="Group_2">
<g id="Group_3">
<path id="Vector" d="M15.9848 22.8627C13.0339 22.8627 10.6331 20.5094 10.6331 17.6169C10.6331 14.7244 13.0339 12.3711 15.9848 12.3711C18.9357 12.3711 21.3365 14.7244 21.3365 17.6169C21.3365 20.5094 18.9357 22.8627 15.9848 22.8627ZM15.9848 13.4031C13.6157 13.4031 11.6888 15.2934 11.6888 17.6169C11.6888 19.9404 13.6161 21.8307 15.9848 21.8307C18.3535 21.8307 20.2808 19.9404 20.2808 17.6169C20.2812 15.293 18.3539 13.4031 15.9848 13.4031Z" fill="#22319E"/>
</g>
<g id="Group_4">
<path id="Vector_2" d="M25.0613 30.9688H6.90894V32.0012H25.0613V30.9688Z" fill="#22319E"/>
</g>
<g id="Group_5">
<path id="Vector_3" d="M25.5888 32.0012H6.3811V31.3343C6.3811 29.2231 7.21969 27.2385 8.74235 25.7455C10.2654 24.2521 12.2904 23.4297 14.4444 23.4297H17.5259C19.6799 23.4297 21.7049 24.2521 23.2279 25.7455C24.7506 27.2385 25.5892 29.2231 25.5892 31.3343V32.0012H25.5888ZM7.44634 30.9692H24.5235C24.4333 29.2707 23.7158 27.6862 22.48 26.4745C21.1564 25.177 19.3968 24.4621 17.5255 24.4621H14.4439C12.5723 24.4621 10.8131 25.1765 9.48946 26.4745C8.25403 27.6862 7.53618 29.2703 7.44634 30.9692Z" fill="#22319E"/>
</g>
</g>
<g id="Group_6">
<path id="Vector_4" d="M6.66549 14.4272C6.58142 14.4272 6.49694 14.4075 6.41947 14.3676L4.32114 13.286L2.22281 14.3676C2.0452 14.459 1.82926 14.4441 1.6669 14.3289C1.50413 14.2136 1.42254 14.0178 1.45674 13.824L1.8577 11.5311L0.159087 9.90793C0.0156814 9.77092 -0.0358291 9.56581 0.0259836 9.37923C0.0882083 9.19266 0.253042 9.05646 0.451667 9.02825L2.79808 8.69379L3.84765 6.60843C3.93666 6.43193 4.12004 6.32031 4.32114 6.32031C4.52224 6.32031 4.70603 6.43193 4.79462 6.60843L5.8442 8.69379L8.19061 9.02825C8.38924 9.05646 8.55448 9.19266 8.61629 9.37923C8.67852 9.56581 8.62701 9.77092 8.48319 9.90793L6.78458 11.5315L7.18554 13.8244C7.21933 14.0182 7.13774 14.2136 6.97537 14.3293C6.88389 14.3942 6.7751 14.4272 6.66549 14.4272ZM1.6599 9.89906L2.79354 10.9822C2.91758 11.1007 2.97404 11.2712 2.94478 11.4384L2.67733 12.9664L4.07512 12.2459C4.22924 12.1666 4.41345 12.1666 4.56757 12.2459L5.96536 12.9664L5.69791 11.4384C5.66866 11.2712 5.72511 11.1007 5.84915 10.9822L6.98279 9.89906L5.4177 9.67622C5.24586 9.65164 5.09709 9.54606 5.02003 9.39334L4.32155 8.00512L3.62266 9.39334C3.54601 9.54566 3.39725 9.65164 3.22541 9.67622L1.6599 9.89906Z" fill="#22319E"/>
</g>
<g id="Group_7">
<path id="Vector_5" d="M18.3444 8.10689C18.2604 8.10689 18.1759 8.08714 18.0984 8.04725L16.0001 6.96568L13.9018 8.04725C13.7242 8.13872 13.5082 8.12381 13.3459 8.00856C13.1831 7.89331 13.1015 7.69747 13.1357 7.50365L13.5367 5.21076L11.838 3.58721C11.6946 3.4498 11.6431 3.24509 11.7049 3.05852C11.7672 2.87194 11.932 2.73574 12.1306 2.70753L14.477 2.37307L15.5266 0.287718C15.6152 0.111622 15.799 0 16.0001 0C16.2012 0 16.385 0.111622 16.4736 0.288121L17.5232 2.37347L19.8696 2.70794C20.0682 2.73614 20.233 2.87235 20.2952 3.05892C20.3575 3.2455 20.306 3.45061 20.1621 3.58761L18.4635 5.21117L18.8645 7.50405C18.8983 7.69788 18.8167 7.89331 18.6543 8.00897C18.5624 8.07384 18.4536 8.10689 18.3444 8.10689ZM16.0001 5.86599C16.0846 5.86599 16.169 5.88573 16.2461 5.92563L17.6439 6.64613L17.3765 5.11808C17.3472 4.95085 17.4037 4.7804 17.5277 4.66192L18.6613 3.57875L17.0962 3.35591C16.9244 3.33133 16.7756 3.22575 16.699 3.07303L16.0005 1.6848L15.302 3.07303C15.2254 3.22535 15.0766 3.33133 14.9044 3.35591L13.3393 3.57875L14.4729 4.66192C14.5969 4.7804 14.6534 4.95085 14.6241 5.11808L14.3567 6.64613L15.7545 5.92563C15.8311 5.88614 15.9156 5.86599 16.0001 5.86599Z" fill="#22319E"/>
</g>
<g id="Group_8">
<path id="Vector_6" d="M30.0232 14.4276C29.9391 14.4276 29.8546 14.4079 29.7771 14.368L27.6788 13.2864L25.5805 14.368C25.4029 14.4594 25.1869 14.4445 25.0246 14.3293C24.8618 14.214 24.7802 14.0182 24.8144 13.8244L25.2154 11.5315L23.5168 9.90793C23.3733 9.77092 23.3218 9.56581 23.3836 9.37923C23.4459 9.19266 23.6107 9.05646 23.8093 9.02825L26.1557 8.69379L27.2053 6.60843C27.2943 6.43193 27.4777 6.32031 27.6788 6.32031C27.8799 6.32031 28.0637 6.43193 28.1523 6.60843L29.2019 8.69379L31.5483 9.02825C31.7469 9.05646 31.9117 9.19266 31.974 9.37923C32.0362 9.56581 31.9847 9.77092 31.8409 9.90793L30.1422 11.5315L30.5432 13.8244C30.577 14.0182 30.4954 14.2136 30.333 14.3293C30.2411 14.3946 30.1324 14.4276 30.0232 14.4276ZM25.0176 9.89946L26.1512 10.9826C26.2752 11.1011 26.3317 11.2716 26.3024 11.4388L26.035 12.9668L27.4328 12.2463C27.5869 12.167 27.7711 12.167 27.9248 12.2463L29.3226 12.9668L29.0552 11.4388C29.0259 11.2716 29.0824 11.1011 29.2064 10.9826L30.34 9.89946L28.775 9.67662C28.6031 9.65204 28.4543 9.54647 28.3777 9.39374L27.6792 8.00552L26.9803 9.39374C26.9037 9.54606 26.7549 9.65204 26.5831 9.67662L25.0176 9.89946Z" fill="#22319E"/>
</g>
</g>
</g>
<defs>
<clipPath id="clip0_335_4803">
<rect width="32" height="32" fill="white"/>
</clipPath>
</defs>
</svg>
