<svg width="32" height="32" viewBox="0 0 32 32" fill="none" xmlns="http://www.w3.org/2000/svg">
<g id="gis:search-country" clip-path="url(#clip0_335_4747)">
<path id="Vector" d="M0.640088 3.83984C0.427915 3.83984 0.224432 3.92413 0.0744025 4.07416C-0.0756266 4.22419 -0.159912 4.42767 -0.159912 4.63984V27.3598C-0.159912 27.572 -0.0756266 27.7755 0.0744025 27.9255C0.224432 28.0756 0.427915 28.1598 0.640088 28.1598H22.0417C21.762 27.7918 21.483 27.4235 21.202 27.0558C20.8526 26.5403 20.345 26.099 20.1962 25.4725C18.1386 26.3218 15.7745 26.4005 13.6631 25.6955C13.6167 25.6805 13.5713 25.6619 13.5252 25.6462C13.283 25.883 13.0218 26.2958 12.9806 26.5598H9.93833C10.1668 25.7858 9.68169 24.5771 10.1406 23.7893C10.177 23.7797 10.2212 23.7179 10.2414 23.6542C10.1895 23.6056 10.137 23.5582 10.0865 23.5086C9.63657 23.6456 9.45673 23.9845 9.20649 24.2818C9.34313 24.9294 8.35689 24.7762 8.45641 25.437C9.14345 25.9698 7.82217 25.5637 7.42921 25.6062C7.01225 25.6107 5.79241 25.1742 6.21577 26.067C6.14953 26.3122 6.21065 26.4626 6.33257 26.5598H6.14569C6.11657 26.2795 5.58857 26.2379 5.38505 26.1003C5.04233 26.0171 4.63305 25.9755 4.27817 25.8174C4.18697 26.0709 3.36393 26.3608 3.18377 26.5598H1.44009V14.8699C1.68553 15.0344 2.23593 14.9691 1.48585 14.6139H1.44009V10.9294C1.58569 10.8558 1.68969 10.8325 1.68329 10.9557C2.04393 10.8341 2.20105 9.95632 2.82505 10.3157C3.21417 10.373 3.85801 10.9762 3.53449 11.0517C3.78665 11.6674 3.96553 11.2709 4.27497 12.0046C4.06313 13.0082 4.87433 13.7518 5.31945 14.3915C5.85257 14.613 6.06345 15.3022 6.93001 15.3291C7.04777 15.4322 7.19881 15.5256 7.35625 15.6152C7.39945 15.2843 7.46057 14.956 7.53769 14.6315C7.51689 14.6267 7.49673 14.6238 7.47433 14.6165C6.64073 15.3854 6.46985 14.0542 7.28393 14.0021C7.33833 13.9986 7.39689 14.0014 7.45993 14.0101C7.55433 13.9989 7.63273 14.0101 7.69897 14.0334C7.96629 13.157 8.3624 12.3252 8.87433 11.5653C9.14923 11.1551 9.45782 10.7684 9.79689 10.4094C9.62857 10.1278 9.45641 9.97072 9.25321 10.3384C9.23785 9.7928 7.76265 9.22096 8.84809 9.74448C9.41737 10.235 9.60393 9.65936 9.69385 9.2664C10.1818 8.7576 9.19369 8.58384 9.37385 8.25136C9.07433 7.8024 8.63081 7.34256 8.17513 7.06448C7.29129 7.16688 6.98153 6.98032 8.16329 6.97968C8.26985 6.42768 8.44681 6.03664 8.56873 5.572C8.44073 5.5352 8.30697 5.54096 8.17513 5.54064C7.60969 5.4648 7.27401 5.68336 7.28553 6.11504C6.86089 6.08112 7.24233 5.35728 6.58761 5.5784C5.59497 5.56272 6.79497 5.89808 6.70281 5.9464C6.58921 6.20112 5.87401 6.0424 5.95817 6.30064C5.63049 5.69456 5.48137 6.5896 5.22633 5.97648C5.07273 5.82928 5.86953 6.12176 5.68809 5.58512C5.28681 5.43152 5.14313 5.70032 4.83049 5.81008C3.89737 6.32656 4.99337 6.81232 5.46729 6.98448C6.18153 6.79408 6.18089 6.55344 6.67753 6.81808C7.23433 7.12688 6.11529 6.90992 6.14953 7.38512C6.08553 7.08976 6.00553 6.91152 5.65993 7.29008C5.19913 7.37328 4.99337 6.74 4.64937 6.78448C3.86537 6.67792 4.15817 8.44112 4.80393 7.8408C5.19465 8.51696 4.30473 8.01808 4.04073 7.94256C3.44457 8.60848 2.80233 7.92528 2.09065 7.89776C1.86281 7.74608 1.63945 7.74416 1.44009 7.82128V5.43984H9.83145C9.23305 5.45616 8.69865 5.5352 8.91625 5.9656C8.88105 6.79568 9.95497 6.13648 10.1095 6.8872C10.5556 7.41168 9.84425 8.52688 10.6158 8.33104C10.3319 8.67632 10.3674 9.2264 10.5889 9.66C11.4081 8.97247 12.3371 8.42769 13.337 8.04848C13.3546 7.94992 13.3409 7.83664 13.282 7.70288C13.1818 7.2008 13.6478 7.04048 13.4846 6.48368C13.7041 6.06448 13.5338 5.62096 13.1575 5.43984H30.5601V7.7048C30.5105 7.68353 30.4595 7.66557 30.4074 7.65104C29.9566 8.05968 30.321 8.0984 30.5601 8.00656V8.36368C30.027 8.06384 29.4414 8.03088 28.8727 8.15568C28.6145 7.70672 27.7002 7.71728 27.3994 7.31312C26.8695 6.67824 27.561 6.86768 28.0234 6.81872C27.8922 6.42192 27.105 6.23376 26.7726 6.29936C26.1719 6.62832 27.0881 6.92336 26.9956 7.36496C26.9956 7.68592 26.6042 7.68816 26.2628 7.67056C26.4007 7.33072 25.609 6.9128 25.2951 7.18928C24.7009 7.00944 24.4743 7.11504 24.8663 6.49616C24.7294 6.02032 24.1633 6.01136 23.9095 5.68112C23.5854 6.36848 23.0449 6.16016 22.4657 6.57872C22.2337 6.91792 21.7505 7.22256 21.7265 7.44656C21.3674 7.6152 21.0081 6.75472 20.7562 7.51696C20.5278 8.16208 20.769 8.47472 19.9982 7.94672C19.2004 7.09648 21.6007 6.36816 20.7086 6.00624C19.9681 6.22224 19.523 6.74416 19.3758 7.4856C19.2961 7.65424 19.3322 7.77168 19.4164 7.86672C22.2273 8.70512 24.5534 10.9656 25.499 13.7387C25.5137 13.5717 25.5415 13.411 25.5975 13.2936C25.834 13.1131 25.6465 13.9864 26.1351 13.4898C25.7751 14.2626 27.0401 13.5922 27.2113 13.2731C26.9604 12.6434 28.1137 12.3467 28.0868 12.228C27.6622 11.7826 27.9034 12.2258 27.435 12.3278C27.2798 12.1211 27.7326 10.9877 27.13 11.0917C26.2302 10.86 27.8954 10.1973 28.345 10.4411C28.5498 9.68336 28.8442 10.2869 28.3383 10.6354C28.1457 11.3077 28.2378 12.2248 28.8046 11.3262C29.0593 11.0782 28.9959 10.4318 29.3274 10.3192C29.7729 10.1093 30.5678 9.94512 30.547 9.29616C30.5514 9.29488 30.5556 9.2952 30.5601 9.29424V26.5598H29.2932C29.5678 26.1797 29.931 25.5294 29.5463 25.2936C28.9668 25.1934 28.5338 24.4946 27.8334 24.5237C27.5172 24.1595 26.7892 23.9752 26.5934 23.9042C26.3975 23.8331 26.0577 24.2437 25.7095 24.0622C25.6047 24.0453 25.4978 24.0473 25.3937 24.068C26.4414 25.428 27.4791 26.7954 28.5207 28.1598H31.3601C31.5723 28.1598 31.7757 28.0756 31.9258 27.9255C32.0758 27.7755 32.1601 27.572 32.1601 27.3598V4.63984C32.1601 4.42767 32.0758 4.22419 31.9258 4.07416C31.7757 3.92413 31.5723 3.83984 31.3601 3.83984H0.640088ZM16.2209 5.54224C15.7057 5.796 16.6193 6.80624 16.6446 5.84176C16.739 5.98256 17.3722 6.12464 17.1652 5.67056C16.705 5.39952 16.7748 5.7112 16.2206 5.54256L16.2209 5.54224ZM23.6068 5.54288C23.051 5.8136 24.0932 5.81872 23.6068 5.54288V5.54288ZM5.94921 5.63472C5.53321 5.94384 6.55977 6.24976 6.00361 5.65104L5.94921 5.63472ZM9.35561 5.81808C9.25289 5.8824 9.45961 5.91792 9.35561 5.81808V5.81808ZM5.33769 6.2136C5.31209 6.21776 5.38665 6.27024 5.33769 6.2136V6.2136ZM6.76265 6.34544C6.72425 6.55024 7.26409 6.43248 6.76265 6.34544V6.34544ZM7.46505 6.40304C7.64009 6.52144 7.94185 6.37264 7.46505 6.40304V6.40304ZM6.06505 6.42416C6.02537 6.56784 6.37513 6.45616 6.06505 6.42416V6.42416ZM7.05769 6.87472C6.90345 6.97232 7.37129 6.94704 7.05769 6.87472V6.87472ZM7.27881 7.3736C7.09001 7.97584 7.94985 8.7912 7.28265 8.1048C7.09929 7.83024 7.00393 7.5672 7.27881 7.3736ZM6.15945 7.4344C6.43433 7.8936 6.85289 8.01616 6.50249 8.17424C6.26985 8.0616 6.21609 7.71088 6.15945 7.4344ZM10.4727 7.89744C10.3684 7.90384 10.5114 7.92336 10.4727 7.89744V7.89744ZM3.98441 8.0424C3.93481 8.04464 3.94857 8.18768 3.98441 8.0424V8.0424ZM6.46249 8.27728C6.31625 8.27184 6.44009 8.58 6.46249 8.27728V8.27728ZM8.30185 8.2792C8.18217 8.8712 8.65705 8.83344 8.62505 8.89296C8.23273 9.06576 8.32649 9.77744 8.02633 9.2344C7.83689 9.14608 8.12361 8.36464 8.25257 8.29616L8.30185 8.2792ZM6.37321 8.27984C6.37033 8.4184 6.41513 8.28944 6.37321 8.27984V8.27984ZM29.5207 8.33296C29.465 8.38736 29.5335 8.35472 29.5207 8.33296V8.33296ZM6.39625 8.4104C6.10377 8.6184 6.61449 8.63888 6.39625 8.4104V8.4104ZM16.5652 8.72496C14.8202 8.73709 13.1264 9.31591 11.739 10.3742C8.19017 13.0766 7.49961 18.171 10.202 21.7198C12.7316 25.0418 17.3508 25.843 20.842 23.716L21.5089 24.5918C21.3777 24.8971 21.3898 25.189 21.5425 25.3899L26.3809 31.7435C26.6689 32.1214 27.3642 32.0763 27.9338 31.6424C28.5034 31.2088 28.7316 30.5506 28.4439 30.1723L23.6055 23.8187C23.4526 23.6178 23.1745 23.5282 22.8452 23.5736L22.1783 22.6981C25.1572 19.8981 25.6138 15.2325 23.0846 11.9106C21.7332 10.1362 19.7838 9.07696 17.7287 8.79856C17.3431 8.74636 16.9543 8.72177 16.5652 8.72496ZM7.48073 9.52752C7.68073 10.0024 8.45321 9.72368 8.15081 10.371C8.48745 10.6878 8.09737 11.8046 7.96649 10.853C7.12873 10.8488 6.72873 10.013 7.43209 9.57424L7.48073 9.52752ZM8.21065 9.60624C7.80745 9.72752 8.46665 9.82384 8.21065 9.60624V9.60624ZM28.3156 10.1912C28.338 10.1752 28.3937 10.2901 28.3156 10.1912V10.1912ZM16.8874 10.5179C17.8161 10.5533 18.7253 10.7944 19.5494 11.2239C20.3736 11.6533 21.0921 12.2603 21.6532 13.0011C22.1559 13.6583 22.5238 14.4083 22.7359 15.2081C22.9479 16.0078 22.9999 16.8416 22.8889 17.6615C22.7779 18.4814 22.506 19.2713 22.0889 19.9859C21.6718 20.7005 21.1177 21.3256 20.4583 21.8254C19.8011 22.3282 19.0511 22.6961 18.2513 22.9082C17.4515 23.1203 16.6177 23.1723 15.7978 23.0613C14.9778 22.9503 14.1879 22.6784 13.4733 22.2613C12.7587 21.8441 12.1335 21.29 11.6337 20.6306C11.131 19.9734 10.7631 19.2233 10.5511 18.4236C10.3391 17.6238 10.2871 16.79 10.3981 15.9701C10.5092 15.1502 10.7811 14.3603 11.1982 13.6457C11.6154 12.9312 12.1695 12.3061 12.8289 11.8062C13.9903 10.917 15.4258 10.4613 16.8874 10.5179ZM29.2356 10.8475C28.7332 11.2632 29.8388 11.187 29.2356 10.8475V10.8475ZM29.834 11.1938C29.2778 11.4654 30.3201 11.4658 29.834 11.1938V11.1938ZM30.1962 11.3205C29.7002 11.7333 30.7018 11.5163 30.1962 11.3205V11.3205ZM30.1764 11.4101C30.1594 11.4392 30.2039 11.4098 30.1764 11.4101V11.4101ZM30.2238 11.4616C30.1838 11.4667 30.2388 11.4859 30.2238 11.4616V11.4616ZM16.6753 11.795C15.9758 11.7826 15.2852 11.939 14.6484 12.22C14.6817 12.2606 14.7294 12.2997 14.7991 12.3349C14.1591 12.1269 13.9729 12.9355 14.2423 13.2994L14.6753 13.3349L15.0372 13.1755C15.2711 12.9323 15.3294 12.9742 15.4049 12.6059L15.546 12.6242L15.658 12.5774L15.913 12.7035C16.219 12.8232 16.2334 13.0811 16.131 13.1566C15.986 13.2459 16.1569 13.259 16.171 13.3144C16.2433 13.2936 16.2855 13.2312 16.331 13.1979L16.4129 13.1685C16.7118 12.9723 16.5031 12.9077 16.2954 12.643L16.4055 12.6712C16.5665 12.8536 16.6612 13.06 16.7566 13.2792C16.7674 13.2878 16.7774 13.299 16.7898 13.3029C16.8622 13.3269 16.9642 13.3189 17.0516 13.2949C17.138 13.2712 17.1438 13.1064 17.129 12.9486C17.2522 13.5106 18.4606 13.3435 17.7415 13.6862C17.3271 13.6955 16.6686 13.4683 16.5473 13.7554C16.2791 13.6338 16.1422 13.5541 16.0878 13.4917C15.9226 13.4296 15.4474 13.2498 15.4305 13.2498C15.4103 13.2498 14.8055 13.3598 14.8055 13.3598L14.3063 13.5493C14.1441 14.0722 13.8881 13.7925 13.801 14.1979C13.7329 14.4571 13.1463 15.0171 13.4535 15.4581C13.7278 16.7336 15.3178 15.8843 15.6884 16.4968C15.5143 16.8741 16.3754 17.5918 15.8935 18.2098C16.1207 19.1074 16.7313 20.6078 17.7137 19.3304C17.9729 18.5656 18.531 18.1522 18.5111 17.3934C18.2145 16.6462 19.9607 16.0923 19.2622 15.4872C19.0948 15.507 19.0756 15.5432 18.9428 15.5874C18.6638 15.5768 18.5918 15.3518 18.4967 15.2104C18.4242 15.1072 18.36 14.9984 18.3047 14.885C18.4823 15.1602 18.6657 15.3938 18.923 15.5374C19.3681 15.4376 19.8785 15.1083 20.0862 14.8667C20.081 13.925 21.347 14.9019 21.3214 15.6098C21.3998 15.8005 21.4993 15.933 21.5991 16.0104C21.5282 15.5577 21.393 15.1174 21.1978 14.7029C20.843 13.924 20.2746 13.2552 19.5841 12.7547C19.5713 12.7746 19.5393 12.7758 19.5457 12.7278C19.4523 12.6617 19.3568 12.5986 19.2593 12.5387C19.2698 12.5832 19.2826 12.6283 19.2974 12.6741C19.2554 12.6117 19.2113 12.5483 19.1748 12.4872C18.4209 12.043 17.5562 11.7883 16.6756 11.7947L16.6753 11.795ZM27.0871 11.8373C27.3191 12.4984 26.2801 14.0306 26.129 13.0248C26.2356 12.5275 27.0884 12.6024 27.0871 11.8373ZM7.60713 12.0117C7.59977 12.0357 7.65385 12.0062 7.60713 12.0117V12.0117ZM8.10025 12.2443C7.98761 12.3026 8.19337 12.3218 8.10025 12.2443V12.2443ZM17.7092 12.2654C17.9674 12.483 18.7598 12.771 17.921 12.5413C17.4846 12.7406 17.3495 12.613 17.7092 12.2654ZM15.713 12.6526C15.6567 12.6699 15.7044 12.7867 15.6692 12.8235C15.9092 12.941 15.7748 12.7125 15.8103 12.675C15.7617 12.652 15.7316 12.6466 15.713 12.6526ZM19.3716 12.891C19.4458 13.084 19.4951 13.2072 19.3044 12.9678C19.3202 12.9602 19.3342 12.9494 19.3458 12.9362C19.3573 12.9231 19.3661 12.9077 19.3716 12.891ZM15.7354 12.915C15.6414 12.9048 15.5914 12.9678 15.5911 13.0558C15.8391 13.1906 15.8135 12.9682 15.8439 12.9512C15.8102 12.9326 15.7736 12.9203 15.7354 12.915ZM19.5671 14.2856C19.7086 14.2914 19.4318 14.4904 19.4791 14.2968C19.5185 14.2882 19.547 14.2846 19.5671 14.2856ZM29.3146 15.5374C28.8538 16.027 29.8638 16.1131 29.3146 15.5374V15.5374ZM29.2826 15.6136C29.274 15.6462 29.33 15.6085 29.2826 15.6136V15.6136ZM29.3223 15.6837C29.2743 15.6757 29.3268 15.7166 29.3223 15.6837V15.6837ZM29.6574 15.7477C29.211 16.1362 30.1962 15.9947 29.6574 15.7477V15.7477ZM29.7054 15.8581C29.699 15.9051 29.7393 15.8523 29.7054 15.8581V15.8581ZM29.6423 15.875C29.6164 15.8974 29.6718 15.9147 29.6423 15.875V15.875ZM25.9953 16.3781C26.0033 16.5778 26.0049 16.7771 26.0004 16.9765C26.3674 17.035 26.8273 17.0184 26.8359 17.4245C27.4938 17.453 26.7681 18.4139 26.7441 17.5243C26.4761 17.4857 26.2027 17.532 25.9623 17.6568C25.8956 18.3551 25.7526 19.044 25.5361 19.7112C26.0737 19.5406 26.6222 19.5573 26.946 20.0798C27.7988 20.0766 27.0734 20.6581 27.6778 20.7768C27.9354 20.2507 27.5422 20.317 28.0254 19.8882C28.4942 19.2888 28.1873 18.5147 27.7198 18.1874C27.6225 17.8168 27.235 17.6165 27.4174 17.3637C27.7726 17.8453 28.2759 17.4846 27.8558 17.2242C28.1658 16.9346 29.2737 17.9704 28.6516 17.1736C28.3444 17.1166 27.9223 16.4814 27.8266 16.8904C27.7991 17.2296 26.9527 16.3755 26.6404 16.725C26.5502 16.4101 26.1086 16.6002 26.0836 16.7406C26.2193 16.5294 26.1338 16.4203 25.9953 16.3781ZM27.6234 16.6517C27.1649 16.9122 28.0375 16.9032 27.6234 16.6517V16.6517ZM15.6442 16.6741C15.6337 16.6878 15.681 16.7573 15.6442 16.6741V16.6741ZM11.6273 16.7131C11.6178 17.1575 11.6672 17.6011 11.7742 18.0325C12.1422 17.475 12.1278 16.9515 11.6273 16.7131ZM27.5998 16.7285C27.5658 16.7362 27.6273 16.7483 27.5998 16.7285V16.7285ZM27.9098 16.7669C27.7601 16.8725 28.0593 16.8725 27.9098 16.7669V16.7669ZM27.9098 16.7701C27.7735 16.868 28.0458 16.868 27.9098 16.7701V16.7701ZM27.6305 16.7979C27.5831 16.7922 27.6356 16.8302 27.6305 16.7979V16.7979ZM25.9978 17.1454C25.9946 17.2222 25.9879 17.299 25.9828 17.3758C26.0862 17.2594 26.131 17.139 25.9978 17.1454ZM18.7041 17.4773C18.3342 17.6805 19.0999 17.7733 18.7799 17.5349L18.7662 17.5006L18.7041 17.4773ZM19.1367 17.5342C18.7713 17.7627 18.2042 18.852 18.9905 18.8862C19.1799 18.661 19.6602 17.6565 19.1367 17.5342ZM29.049 18.228C28.7562 18.8056 29.8993 18.5746 29.049 18.228V18.228ZM19.7223 18.3048C19.2468 18.6238 20.1834 18.5835 19.7223 18.3048V18.3048ZM29.8122 19.6219C30.083 20.2347 29.185 20.6018 29.2529 21.1707C29.7137 21.3928 29.9514 20.557 30.2759 20.3013C30.6596 19.9659 29.9738 19.8667 29.8122 19.6219ZM8.52969 21.5067C8.58217 21.844 8.74025 22.1704 9.02249 22.2699C8.84601 22.0236 8.68155 21.7689 8.52969 21.5067Z" fill="#22319E"/>
</g>
<defs>
<clipPath id="clip0_335_4747">
<rect width="32" height="32" fill="white"/>
</clipPath>
</defs>
</svg>
