<svg width="32" height="32" viewBox="0 0 32 32" fill="none" xmlns="http://www.w3.org/2000/svg">
<g id="ic:round-home">
<path id="Vector" d="M13.3335 18.1676H12.8335V18.6676V25.3343C12.8335 25.7915 12.4573 26.1676 12.0001 26.1676H8.00013C7.54294 26.1676 7.1668 25.7915 7.1668 25.3343V16.0009V15.5009H6.6668H4.40013C4.35418 15.5009 4.32529 15.488 4.30505 15.4731C4.28215 15.4563 4.26118 15.4297 4.2483 15.3954C4.22272 15.3272 4.23703 15.2634 4.29094 15.2159L4.29096 15.2159L4.29476 15.2125L15.4402 5.17356C15.4404 5.17339 15.4406 5.17322 15.4408 5.17306C15.7574 4.89025 16.2428 4.89023 16.5594 5.173C16.5597 5.17319 16.5599 5.17337 16.5601 5.17356L27.7055 15.2125L27.7054 15.2126L27.7147 15.2206C27.7491 15.25 27.7615 15.2775 27.7666 15.3002C27.7724 15.3262 27.771 15.3587 27.758 15.3925C27.7326 15.4591 27.6786 15.5009 27.6001 15.5009H25.3335H24.8335V16.0009V25.3343C24.8335 25.7915 24.4573 26.1676 24.0001 26.1676H20.0001C19.5429 26.1676 19.1668 25.7915 19.1668 25.3343V18.6676V18.1676H18.6668H13.3335Z" stroke="#24559C"/>
</g>
</svg>
