<svg width="32" height="32" viewBox="0 0 32 32" fill="none" xmlns="http://www.w3.org/2000/svg">
<g id="icomoon-free:blog" clip-path="url(#clip0_54_43)">
<path id="Vector" d="M12.5 0.504336C22.8717 0.766399 31.2307 9.12606 31.4918 19.498H29.4916C29.4334 17.3701 28.9862 15.2692 28.1706 13.2999C27.2912 11.1765 26.0009 9.24774 24.3737 7.62458C22.7513 5.99624 20.8227 4.70511 18.6989 3.82559C16.7294 3.00992 14.6282 2.56322 12.5 2.50621V0.504336Z" stroke="white"/>
<path id="Vector_2" d="M15 12.7071L19.2909 16.998L17.6444 18.6444L17.5528 18.7361L17.5172 18.8606L15.5802 25.6401L3.10503 31.3979L2.91311 31.206L9.64606 24.473C10.0879 24.5362 10.5406 24.4801 10.9564 24.308C11.4648 24.0974 11.8896 23.7249 12.1648 23.2483C12.44 22.7717 12.5503 22.2176 12.4784 21.6719C12.4066 21.1263 12.1567 20.6196 11.7676 20.2304C11.3784 19.8413 10.8717 19.5914 10.3261 19.5196C9.78042 19.4478 9.22632 19.558 8.74971 19.8332C8.2731 20.1084 7.90062 20.5332 7.69005 21.0416C7.51787 21.4574 7.4618 21.9101 7.52496 22.3519L0.792 29.0849L0.600082 28.893L6.35787 16.4178L13.1374 14.4808L13.2619 14.4452L13.3536 14.3536L15 12.7071Z" stroke="white"/>
<path id="Vector_3" d="M12.5 8.51061V6.50925C15.8988 6.6351 19.1323 8.04041 21.5459 10.4541C23.9596 12.8677 25.3649 16.1012 25.4907 19.5H23.4894C23.3668 16.6168 22.185 13.9219 20.1316 11.8684C18.0781 9.81497 15.3832 8.63324 12.5 8.51061Z" stroke="white"/>
</g>
<defs>
<clipPath id="clip0_54_43">
<rect width="32" height="32" fill="white"/>
</clipPath>
</defs>
</svg>
