<svg width="20" height="20" viewBox="0 0 20 20" fill="none" xmlns="http://www.w3.org/2000/svg">
<g clip-path="url(#clip0_305_18792)">
<path d="M0.166504 1.57575C0.166504 0.826743 0.788903 0.219727 1.55684 0.219727H17.7085C18.4764 0.219727 19.0988 0.826743 19.0988 1.57575V17.796C19.0988 18.545 18.4764 19.152 17.7085 19.152H1.55684C0.788903 19.152 0.166504 18.545 0.166504 17.796V1.57575ZM6.0154 16.0684V7.51931H3.17437V16.0684H6.0154ZM4.59548 6.35142C5.58587 6.35142 6.20235 5.69589 6.20235 4.8747C6.18461 4.03577 5.58706 3.39798 4.61441 3.39798C3.64176 3.39798 3.00635 4.03695 3.00635 4.8747C3.00635 5.69589 3.62283 6.35142 4.57654 6.35142H4.59548ZM10.403 16.0684V11.2939C10.403 11.0383 10.4219 10.7828 10.4976 10.6005C10.7023 10.0905 11.1697 9.56163 11.9554 9.56163C12.9837 9.56163 13.3943 10.345 13.3943 11.4951V16.0684H16.2353V11.165C16.2353 8.5381 14.8343 7.31697 12.9647 7.31697C11.4572 7.31697 10.7816 8.14526 10.403 8.72861V8.75819H10.384C10.3903 8.74831 10.3966 8.73845 10.403 8.72861V7.51931H7.56311C7.59861 8.32156 7.56311 16.0684 7.56311 16.0684H10.403Z" fill="#1393C9"/>
</g>
<defs>
<clipPath id="clip0_305_18792">
<rect width="18.9323" height="18.9323" fill="white" transform="translate(0.166504 0.219238)"/>
</clipPath>
</defs>
</svg>
