<svg width="25" height="25" viewBox="0 0 25 25" fill="none" xmlns="http://www.w3.org/2000/svg">
<g id="mdi:youtube">
<path id="Vector" d="M10.6432 15.3355L15.8837 12.3063L10.6432 9.27717V15.3355ZM22.3156 7.42938C22.4469 7.90395 22.5377 8.54007 22.5983 9.34785C22.669 10.1556 22.6993 10.8523 22.6993 11.4582L22.7599 12.3063C22.7599 14.5176 22.5983 16.1433 22.3156 17.1833C22.0632 18.092 21.4775 18.6777 20.5688 18.9301C20.0942 19.0614 19.2258 19.1523 17.893 19.2128C16.5804 19.2835 15.3788 19.3138 14.2681 19.3138L12.6627 19.3744C8.43192 19.3744 5.79654 19.2128 4.75653 18.9301C3.84778 18.6777 3.26214 18.092 3.00971 17.1833C2.87844 16.7087 2.78757 16.0726 2.72699 15.2648C2.6563 14.457 2.62601 13.7603 2.62601 13.1545L2.56543 12.3063C2.56543 10.095 2.72699 8.46939 3.00971 7.42938C3.26214 6.52063 3.84778 5.93499 4.75653 5.68256C5.2311 5.5513 6.09946 5.46042 7.43229 5.39984C8.74493 5.32916 9.9465 5.29886 11.0572 5.29886L12.6627 5.23828C16.8934 5.23828 19.5288 5.39984 20.5688 5.68256C21.4775 5.93499 22.0632 6.52063 22.3156 7.42938Z" fill="#1393C9"/>
</g>
</svg>
