<svg width="32" height="32" viewBox="0 0 32 32" fill="none" xmlns="http://www.w3.org/2000/svg">
<g id="mdi:web">
<path id="Vector" d="M21.8133 18.668C21.92 17.788 22 16.908 22 16.0013C22 15.0946 21.92 14.2146 21.8133 13.3346H26.32C26.5333 14.188 26.6666 15.0813 26.6666 16.0013C26.6666 16.9213 26.5333 17.8146 26.32 18.668M19.4533 26.0813C20.2533 24.6013 20.8666 23.0013 21.2933 21.3346H25.2266C23.9349 23.559 21.8854 25.244 19.4533 26.0813ZM19.12 18.668H12.88C12.7466 17.788 12.6666 16.908 12.6666 16.0013C12.6666 15.0946 12.7466 14.2013 12.88 13.3346H19.12C19.24 14.2013 19.3333 15.0946 19.3333 16.0013C19.3333 16.908 19.24 17.788 19.12 18.668ZM16 26.6146C14.8933 25.0146 14 23.2413 13.4533 21.3346H18.5466C18 23.2413 17.1066 25.0146 16 26.6146ZM10.6666 10.668H6.77329C8.05177 8.43759 10.0997 6.74995 12.5333 5.9213C11.7333 7.4013 11.1333 9.0013 10.6666 10.668ZM6.77329 21.3346H10.6666C11.1333 23.0013 11.7333 24.6013 12.5333 26.0813C10.1048 25.2435 8.05975 23.5583 6.77329 21.3346ZM5.67996 18.668C5.46663 17.8146 5.33329 16.9213 5.33329 16.0013C5.33329 15.0813 5.46663 14.188 5.67996 13.3346H10.1866C10.08 14.2146 9.99996 15.0946 9.99996 16.0013C9.99996 16.908 10.08 17.788 10.1866 18.668M16 5.37464C17.1066 6.97464 18 8.7613 18.5466 10.668H13.4533C14 8.7613 14.8933 6.97464 16 5.37464ZM25.2266 10.668H21.2933C20.876 9.01658 20.2581 7.4225 19.4533 5.9213C21.9066 6.7613 23.9466 8.45464 25.2266 10.668ZM16 2.66797C8.62663 2.66797 2.66663 8.66797 2.66663 16.0013C2.66663 19.5375 4.07138 22.9289 6.57187 25.4294C7.80998 26.6675 9.27984 27.6496 10.8975 28.3197C12.5152 28.9898 14.249 29.3346 16 29.3346C19.5362 29.3346 22.9276 27.9299 25.428 25.4294C27.9285 22.9289 29.3333 19.5375 29.3333 16.0013C29.3333 14.2503 28.9884 12.5165 28.3184 10.8989C27.6483 9.28118 26.6662 7.81133 25.428 6.57321C24.1899 5.3351 22.7201 4.35297 21.1024 3.68291C19.4847 3.01285 17.7509 2.66797 16 2.66797Z" fill="#22319E"/>
</g>
</svg>
