<svg width="25" height="25" viewBox="0 0 25 25" fill="none" xmlns="http://www.w3.org/2000/svg">
<g id="mdi:success-circle-outline">
<path id="Vector" d="M12.1182 2.29834C6.56475 2.29834 2.021 6.84209 2.021 12.3956C2.021 17.949 6.56475 22.4928 12.1182 22.4928C17.6717 22.4928 22.2154 17.949 22.2154 12.3956C22.2154 6.84209 17.6717 2.29834 12.1182 2.29834ZM12.1182 20.4733C7.66534 20.4733 4.04044 16.8484 4.04044 12.3956C4.04044 7.94269 7.66534 4.31778 12.1182 4.31778C16.5711 4.31778 20.196 7.94269 20.196 12.3956C20.196 16.8484 16.5711 20.4733 12.1182 20.4733ZM16.7528 7.93259L10.0988 14.5867L7.48359 11.9816L6.05989 13.4053L10.0988 17.4442L18.1766 9.3664L16.7528 7.93259Z" fill="black"/>
</g>
</svg>
