<svg width="32" height="32" viewBox="0 0 32 32" fill="none" xmlns="http://www.w3.org/2000/svg">
<g id="mdi:brain-freeze-outline">
<path id="Vector" d="M17.3333 3.9987C22.5066 3.9987 26.6666 8.18536 26.6666 13.332C26.6666 17.0654 24.4933 20.252 21.3333 21.7454V27.9987H12V23.9987H10.6666C9.18664 23.9987 7.99997 22.812 7.99997 21.332V17.332H5.99997C5.43997 17.332 5.11997 16.6654 5.43997 16.252L7.99997 12.8787C8.11745 10.4831 9.15228 8.22456 10.8899 6.57129C12.6276 4.91803 14.9348 3.99685 17.3333 3.9987ZM17.3333 1.33203C11.2133 1.33203 6.14664 5.89203 5.41331 11.8654L3.33331 14.6654H3.29331L3.26664 14.7054C2.53331 15.7187 2.43997 17.052 3.01331 18.1587C3.49331 19.0787 4.34664 19.7187 5.33331 19.9187V21.332C5.33331 23.7987 7.03997 25.892 9.33331 26.492V30.6654H24V23.332C27.3333 21.1054 29.3333 17.412 29.3333 13.332C29.3333 6.70537 23.9466 1.33203 17.3333 1.33203ZM23.1066 12.3987L20.4933 13.0787L22.4133 15.0254C22.88 15.4787 22.88 16.252 22.4133 16.7187C21.9466 17.1854 21.1733 17.1854 20.72 16.7187L18.7866 14.7987L18.0933 17.412C17.9333 18.0654 17.28 18.4254 16.6666 18.2654C16.5114 18.2265 16.3654 18.1572 16.237 18.0617C16.1086 17.9661 16.0004 17.8461 15.9186 17.7085C15.8368 17.5709 15.783 17.4186 15.7604 17.2601C15.7377 17.1017 15.7467 16.9403 15.7866 16.7854L16.4933 14.172L13.88 14.8787C13.725 14.9187 13.5636 14.9276 13.4052 14.9049C13.2468 14.8823 13.0944 14.8285 12.9568 14.7467C12.8193 14.6649 12.6992 14.5567 12.6037 14.4283C12.5081 14.3 12.4389 14.1539 12.4 13.9987C12.24 13.3987 12.6133 12.732 13.2533 12.572L15.8666 11.8787L13.9466 9.94536C13.746 9.71626 13.6401 9.41947 13.6501 9.11513C13.6602 8.81079 13.7856 8.52166 14.001 8.30634C14.2163 8.09102 14.5054 7.96562 14.8097 7.95553C15.1141 7.94545 15.4109 8.05144 15.64 8.25203L17.5866 10.172L18.2666 7.5587C18.4266 6.90536 19.0933 6.53203 19.72 6.70537C20.3733 6.8787 20.7466 7.53203 20.5733 8.17203L19.8666 10.7987L22.4933 10.092C23.1333 9.9187 23.7866 10.292 23.96 10.9454C24.1333 11.572 23.76 12.2387 23.1066 12.3987Z" fill="#22319E"/>
</g>
</svg>
