<svg width="32" height="32" viewBox="0 0 32 32" fill="none" xmlns="http://www.w3.org/2000/svg">
<g id="mdi:teacher">
<path id="Vector" d="M26.6667 22.668C27.3739 22.668 28.0522 22.387 28.5523 21.8869C29.0524 21.3868 29.3333 20.7085 29.3333 20.0013V5.33464C29.3333 4.62739 29.0524 3.94911 28.5523 3.44902C28.0522 2.94892 27.3739 2.66797 26.6667 2.66797H12.6133C13.08 3.4813 13.3333 4.4013 13.3333 5.33464H26.6667V20.0013H14.6667V22.668M20 9.33463V12.0013H12V29.3346H9.33333V21.3346H6.66667V29.3346H4V18.668H2V12.0013C2 11.2941 2.28095 10.6158 2.78105 10.1157C3.28115 9.61559 3.95942 9.33464 4.66667 9.33463H20ZM10.6667 5.33464C10.6667 6.04188 10.3857 6.72016 9.88562 7.22025C9.38552 7.72035 8.70724 8.0013 8 8.0013C7.29276 8.0013 6.61448 7.72035 6.11438 7.22025C5.61428 6.72016 5.33333 6.04188 5.33333 5.33464C5.33333 4.62739 5.61428 3.94911 6.11438 3.44902C6.61448 2.94892 7.29276 2.66797 8 2.66797C8.70724 2.66797 9.38552 2.94892 9.88562 3.44902C10.3857 3.94911 10.6667 4.62739 10.6667 5.33464Z" fill="white"/>
</g>
</svg>
