<svg width="32" height="32" viewBox="0 0 32 32" fill="none" xmlns="http://www.w3.org/2000/svg">
<g id="mdi:coupon-outline">
<path id="Vector" d="M19.7332 10.6654L21.3332 12.2654L12.2665 21.332L10.6665 19.732L19.7332 10.6654ZM5.33317 5.33203H26.6665C28.1465 5.33203 29.3332 6.5187 29.3332 7.9987V13.332C28.6259 13.332 27.9476 13.613 27.4476 14.1131C26.9475 14.6132 26.6665 15.2915 26.6665 15.9987C26.6665 16.7059 26.9475 17.3842 27.4476 17.8843C27.9476 18.3844 28.6259 18.6654 29.3332 18.6654V23.9987C29.3332 25.4787 28.1465 26.6654 26.6665 26.6654H5.33317C4.62593 26.6654 3.94765 26.3844 3.44755 25.8843C2.94746 25.3842 2.6665 24.7059 2.6665 23.9987V18.6654C4.1465 18.6654 5.33317 17.4787 5.33317 15.9987C5.33317 15.2915 5.05222 14.6132 4.55212 14.1131C4.05203 13.613 3.37375 13.332 2.6665 13.332V7.9987C2.6665 7.29145 2.94746 6.61318 3.44755 6.11308C3.94765 5.61298 4.62593 5.33203 5.33317 5.33203ZM5.33317 7.9987V11.3854C6.14341 11.8526 6.81631 12.5249 7.28418 13.3348C7.75204 14.1446 7.99837 15.0634 7.99837 15.9987C7.99837 16.934 7.75204 17.8528 7.28418 18.6626C6.81631 19.4725 6.14341 20.1448 5.33317 20.612V23.9987H26.6665V20.612C25.8563 20.1448 25.1834 19.4725 24.7155 18.6626C24.2476 17.8528 24.0013 16.934 24.0013 15.9987C24.0013 15.0634 24.2476 14.1446 24.7155 13.3348C25.1834 12.5249 25.8563 11.8526 26.6665 11.3854V7.9987H5.33317ZM12.6665 10.6654C13.7732 10.6654 14.6665 11.5587 14.6665 12.6654C14.6665 13.772 13.7732 14.6654 12.6665 14.6654C11.5598 14.6654 10.6665 13.772 10.6665 12.6654C10.6665 11.5587 11.5598 10.6654 12.6665 10.6654ZM19.3332 17.332C20.4398 17.332 21.3332 18.2254 21.3332 19.332C21.3332 20.4387 20.4398 21.332 19.3332 21.332C18.2265 21.332 17.3332 20.4387 17.3332 19.332C17.3332 18.2254 18.2265 17.332 19.3332 17.332Z" fill="white"/>
</g>
</svg>
