<svg width="32" height="32" viewBox="0 0 32 32" fill="none" xmlns="http://www.w3.org/2000/svg">
<g id="pepicons-pop:cv">
<g id="Group">
<path id="Vector" d="M12.48 10.1617C13.376 10.1617 14.096 9.44169 14.096 8.54569C14.096 7.64969 13.376 6.92969 12.48 6.92969C11.584 6.92969 10.864 7.64969 10.864 8.54569C10.864 9.44169 11.584 10.1617 12.48 10.1617Z" fill="#22319E"/>
<path id="Vector_2" fill-rule="evenodd" clip-rule="evenodd" d="M15.728 13.6791C15.728 11.9511 14.272 10.7031 12.48 10.7031C10.688 10.7031 9.23195 11.9511 9.23195 13.6791V14.4951C9.23195 14.6391 9.29595 14.7831 9.39195 14.8791C9.48795 14.9751 9.63195 15.0391 9.77595 15.0391H15.184C15.328 15.0391 15.472 14.9751 15.568 14.8791C15.664 14.7831 15.728 14.6391 15.728 14.4951V13.6791ZM9.19995 18.3991C9.19995 18.0809 9.32638 17.7756 9.55142 17.5506C9.77647 17.3256 10.0817 17.1991 10.4 17.1991H21.6C21.9182 17.1991 22.2234 17.3256 22.4485 17.5506C22.6735 17.7756 22.8 18.0809 22.8 18.3991C22.8 18.7174 22.6735 19.0226 22.4485 19.2477C22.2234 19.4727 21.9182 19.5991 21.6 19.5991H10.4C10.0817 19.5991 9.77647 19.4727 9.55142 19.2477C9.32638 19.0226 9.19995 18.7174 9.19995 18.3991ZM9.19995 23.1991C9.19995 22.8809 9.32638 22.5756 9.55142 22.3506C9.77647 22.1256 10.0817 21.9991 10.4 21.9991H21.6C21.9182 21.9991 22.2234 22.1256 22.4485 22.3506C22.6735 22.5756 22.8 22.8809 22.8 23.1991C22.8 23.5174 22.6735 23.8226 22.4485 24.0477C22.2234 24.2727 21.9182 24.3991 21.6 24.3991H10.4C10.0817 24.3991 9.77647 24.2727 9.55142 24.0477C9.32638 23.8226 9.19995 23.5174 9.19995 23.1991Z" fill="#22319E"/>
<path id="Vector_3" fill-rule="evenodd" clip-rule="evenodd" d="M4 4.00078C4 2.23758 5.4368 0.800781 7.2 0.800781H17.904C18.8032 0.800781 19.6512 1.18158 20.248 1.81038L20.2576 1.82158L27.1568 9.34478C27.7312 9.95758 28 10.7592 28 11.5208V28.0008C28 29.764 26.5632 31.2008 24.8 31.2008H7.2C5.4368 31.2008 4 29.764 4 28.0008V4.00078ZM17.9024 4.00078H7.2V28.0008H24.8V11.508L17.9264 4.01198L17.9216 4.01038C17.9158 4.00615 17.9093 4.00291 17.9024 4.00078Z" fill="#22319E"/>
<path id="Vector_4" fill-rule="evenodd" clip-rule="evenodd" d="M17.904 0.800781C18.3283 0.800781 18.7353 0.969352 19.0353 1.26941C19.3354 1.56947 19.504 1.97643 19.504 2.40078V9.92078H26.4C26.6101 9.92078 26.8181 9.96217 27.0122 10.0426C27.2064 10.123 27.3828 10.2408 27.5313 10.3894C27.6799 10.538 27.7978 10.7144 27.8782 10.9085C27.9586 11.1026 28 11.3107 28 11.5208C28 11.7309 27.9586 11.939 27.8782 12.1331C27.7978 12.3272 27.6799 12.5036 27.5313 12.6522C27.3828 12.8007 27.2064 12.9186 27.0122 12.999C26.8181 13.0794 26.6101 13.1208 26.4 13.1208H17.904C17.4796 13.1208 17.0726 12.9522 16.7726 12.6522C16.4725 12.3521 16.304 11.9451 16.304 11.5208V2.40078C16.304 1.97643 16.4725 1.56947 16.7726 1.26941C17.0726 0.969352 17.4796 0.800781 17.904 0.800781Z" fill="#22319E"/>
</g>
</g>
</svg>
