<svg width="24" height="24" viewBox="0 0 24 24" fill="none" xmlns="http://www.w3.org/2000/svg">
<g id="ph:money-light">
<path id="Vector" d="M12 15.1525C12.6369 15.1525 13.2595 14.9637 13.7891 14.6098C14.3187 14.256 14.7315 13.753 14.9752 13.1646C15.2189 12.5761 15.2827 11.9286 15.1585 11.3039C15.0342 10.6793 14.7275 10.1055 14.2771 9.65508C13.8268 9.20471 13.2529 8.898 12.6283 8.77374C12.0036 8.64948 11.3561 8.71326 10.7676 8.957C10.1792 9.20074 9.67624 9.6135 9.32239 10.1431C8.96853 10.6727 8.77966 11.2953 8.77966 11.9322C8.77966 12.7863 9.11895 13.6054 9.72288 14.2093C10.3268 14.8133 11.1459 15.1525 12 15.1525ZM12 9.72881C12.4358 9.72881 12.8618 9.85804 13.2241 10.1002C13.5865 10.3423 13.8689 10.6864 14.0357 11.089C14.2024 11.4916 14.2461 11.9346 14.1611 12.3621C14.076 12.7895 13.8662 13.1821 13.558 13.4902C13.2499 13.7984 12.8573 14.0082 12.4299 14.0933C12.0024 14.1783 11.5594 14.1346 11.1568 13.9679C10.7542 13.8011 10.4101 13.5187 10.1679 13.1563C9.92584 12.794 9.79661 12.368 9.79661 11.9322C9.79661 11.3478 10.0288 10.7874 10.442 10.3742C10.8552 9.96096 11.4156 9.72881 12 9.72881ZM21.4915 6H2.50847C2.37362 6 2.24429 6.05357 2.14893 6.14893C2.05357 6.24429 2 6.37362 2 6.50847V17.3559C2 17.4908 2.05357 17.6201 2.14893 17.7155C2.24429 17.8108 2.37362 17.8644 2.50847 17.8644H21.4915C21.6264 17.8644 21.7557 17.8108 21.8511 17.7155C21.9464 17.6201 22 17.4908 22 17.3559V6.50847C22 6.37362 21.9464 6.24429 21.8511 6.14893C21.7557 6.05357 21.6264 6 21.4915 6ZM3.01695 10.3068C3.80647 10.0967 4.5265 9.68189 5.1042 9.1042C5.68189 8.52651 6.09674 7.80647 6.30678 7.01695H17.6932C17.9033 7.80647 18.3181 8.52651 18.8958 9.1042C19.4735 9.68189 20.1935 10.0967 20.9831 10.3068V13.5576C20.1935 13.7677 19.4735 14.1825 18.8958 14.7602C18.3181 15.3379 17.9033 16.0579 17.6932 16.8475H6.30678C6.09674 16.0579 5.68189 15.3379 5.1042 14.7602C4.5265 14.1825 3.80647 13.7677 3.01695 13.5576V10.3068ZM20.9831 9.24492C20.468 9.065 20.0003 8.77124 19.6145 8.38549C19.2288 7.99974 18.935 7.53195 18.7551 7.01695H20.9831V9.24492ZM5.24492 7.01695C5.065 7.53195 4.77124 7.99974 4.38549 8.38549C3.99974 8.77124 3.53195 9.065 3.01695 9.24492V7.01695H5.24492ZM3.01695 14.6195C3.53195 14.7994 3.99974 15.0932 4.38549 15.4789C4.77124 15.8647 5.065 16.3325 5.24492 16.8475H3.01695V14.6195ZM18.7551 16.8475C18.935 16.3325 19.2288 15.8647 19.6145 15.4789C20.0003 15.0932 20.468 14.7994 20.9831 14.6195V16.8475H18.7551Z" fill="#22319E"/>
</g>
</svg>
