<svg width="15" height="16" viewBox="0 0 15 16" fill="none" xmlns="http://www.w3.org/2000/svg">
<g id="streamline:interface-calendar-blank-calendar-date-day-month" clip-path="url(#clip0_305_18746)">
<path id="Vector" d="M1.62165 3.57192C1.34761 3.57192 1.08479 3.68078 0.891017 3.87456C0.697241 4.06833 0.588379 4.33115 0.588379 4.60519V13.9046C0.588379 14.1787 0.697241 14.4415 0.891017 14.6353C1.08479 14.8291 1.34761 14.9379 1.62165 14.9379H12.9876C13.2617 14.9379 13.5245 14.8291 13.7183 14.6353C13.9121 14.4415 14.0209 14.1787 14.0209 13.9046V4.60519C14.0209 4.33115 13.9121 4.06833 13.7183 3.87456C13.5245 3.68078 13.2617 3.57192 12.9876 3.57192H10.9211M0.588379 7.70501H14.0209M3.6882 1.50537V5.63846M10.9211 1.50537V5.63846M3.6882 3.57192H8.85456" stroke="#22319E" stroke-width="1.3777" stroke-linecap="round" stroke-linejoin="round"/>
</g>
<defs>
<clipPath id="clip0_305_18746">
<rect width="14.4658" height="14.4658" fill="white" transform="translate(0.0717773 0.98877)"/>
</clipPath>
</defs>
</svg>
