<svg width="32" height="32" viewBox="0 0 32 32" fill="none" xmlns="http://www.w3.org/2000/svg">
<g id="tabler:message">
<path id="Vector" d="M10.6667 11.9987H21.3333M10.6667 17.332H18.6667M24 5.33203C25.0609 5.33203 26.0783 5.75346 26.8284 6.5036C27.5786 7.25375 28 8.27117 28 9.33203V19.9987C28 21.0596 27.5786 22.077 26.8284 22.8271C26.0783 23.5773 25.0609 23.9987 24 23.9987H17.3333L10.6667 27.9987V23.9987H8C6.93913 23.9987 5.92172 23.5773 5.17157 22.8271C4.42143 22.077 4 21.0596 4 19.9987V9.33203C4 8.27117 4.42143 7.25375 5.17157 6.5036C5.92172 5.75346 6.93913 5.33203 8 5.33203H24Z" stroke="white" stroke-width="2" stroke-linecap="round" stroke-linejoin="round"/>
</g>
</svg>
