<svg width="16" height="16" viewBox="0 0 16 16" fill="none" xmlns="http://www.w3.org/2000/svg">
<g id="time-svgrepo-com 1" clip-path="url(#clip0_305_18740)">
<g id="Group">
<path id="Vector" d="M8.36347 0.587891C4.15374 0.587891 0.729004 4.01281 0.729004 8.22253C0.729004 12.4324 4.15374 15.8574 8.36347 15.8574C12.5732 15.8574 15.9981 12.4324 15.9981 8.22253C15.9981 4.01281 12.573 0.587891 8.36347 0.587891ZM8.36347 14.7536C4.76249 14.7536 1.83262 11.8237 1.83262 8.22253C1.83262 4.62137 4.76231 1.69169 8.36347 1.69169C11.9646 1.69169 14.8943 4.62137 14.8943 8.22253C14.8943 11.8237 11.9646 14.7536 8.36347 14.7536Z" fill="#22319E"/>
<path id="Vector_2" d="M10.5725 8.92503C10.5696 8.92503 10.567 8.92503 10.564 8.92503L8.91533 8.94968V4.63491C8.91533 4.33008 8.66826 4.08301 8.36343 4.08301C8.05859 4.08301 7.81152 4.33008 7.81152 4.63491V9.51004C7.81152 9.51115 7.81189 9.51225 7.81189 9.51336C7.81189 9.51519 7.81152 9.51685 7.81152 9.51832C7.81189 9.54077 7.81612 9.56192 7.81907 9.58345C7.82091 9.59688 7.82109 9.61067 7.82367 9.62392C7.82863 9.64765 7.83691 9.66973 7.84482 9.69199C7.84887 9.70358 7.85144 9.71572 7.85623 9.72676C7.86579 9.74938 7.87867 9.76999 7.891 9.79115C7.8967 9.80053 7.90093 9.81083 7.907 9.82003C7.92098 9.84045 7.93773 9.85866 7.95428 9.87724C7.96127 9.88497 7.96698 9.8938 7.97433 9.90134C7.99218 9.919 8.01223 9.9339 8.03228 9.94917C8.04038 9.95524 8.04755 9.9626 8.05583 9.96831C8.07754 9.98302 8.10127 9.99461 8.125 10.006C8.13328 10.0099 8.14064 10.0154 8.1491 10.0189C8.1767 10.0305 8.20613 10.0386 8.23594 10.0458C8.24146 10.047 8.24661 10.0496 8.25231 10.0507C8.288 10.0579 8.32498 10.0619 8.36287 10.0619C8.36563 10.0619 8.36858 10.0619 8.37134 10.0619L10.5804 10.0288C10.8851 10.0242 11.1285 9.7733 11.124 9.46865C11.1198 9.16676 10.8735 8.92503 10.5725 8.92503Z" fill="#22319E"/>
</g>
</g>
<defs>
<clipPath id="clip0_305_18740">
<rect width="15.2695" height="15.2695" fill="white" transform="translate(0.729004 0.586914)"/>
</clipPath>
</defs>
</svg>
