<svg width="592" height="410" viewBox="0 0 592 410" fill="none" xmlns="http://www.w3.org/2000/svg">
<g clip-path="url(#clip0_305_18283)">
<path d="M233.615 332.664C362.159 332.664 466.365 258.383 466.365 166.754C466.365 75.1242 362.159 0.84375 233.615 0.84375C105.071 0.84375 0.86499 75.1242 0.86499 166.754C0.86499 258.383 105.071 332.664 233.615 332.664Z" fill="#F5F5FF"/>
<path d="M484.885 400.437C543.565 400.437 591.135 393.838 591.135 385.697C591.135 377.556 543.565 370.957 484.885 370.957C426.205 370.957 378.635 377.556 378.635 385.697C378.635 393.838 426.205 400.437 484.885 400.437Z" fill="#DFDFEB"/>
<path d="M262.175 409.157C368.186 409.157 454.125 401.837 454.125 392.807C454.125 383.777 368.186 376.457 262.175 376.457C156.164 376.457 70.2251 383.777 70.2251 392.807C70.2251 401.837 156.164 409.157 262.175 409.157Z" fill="#DFDFEB"/>
<path d="M298.875 103.084C298.875 103.084 295.325 123.704 269.445 150.234C269.445 150.234 266.585 146.694 271.535 132.024C276.485 117.354 297.405 98.084 298.885 103.074L298.875 103.084Z" fill="#7E9E6E"/>
<path d="M298.875 103.082C298.875 103.082 275.585 119.742 269.445 150.232C269.445 150.232 268.255 160.692 271.835 169.752" stroke="black" stroke-miterlimit="10" stroke-linecap="round"/>
<path d="M236.275 119.733C236.275 119.733 242.805 114.783 231.565 102.413C220.885 90.6634 209.585 80.1334 187.485 76.2734C187.485 76.2734 194.155 106.203 208.555 113.333C222.955 120.463 236.275 119.723 236.275 119.723V119.733Z" fill="#7E9E6E"/>
<path d="M182.645 141.743C182.645 141.743 205.695 146.773 244.795 133.723C244.795 133.723 242.375 129.683 224.905 128.323C207.435 126.963 178.095 138.383 182.645 141.743Z" fill="#7E9E6E"/>
<path d="M182.645 141.742C182.645 141.742 210.305 127.102 244.795 133.722C244.795 133.722 248.345 134.612 251.955 139.432" stroke="black" stroke-miterlimit="10" stroke-linecap="round"/>
<path d="M201.755 162.625C201.755 162.625 226.425 178.865 265.525 165.815C265.525 165.815 257.925 152.055 240.455 150.705C222.985 149.345 197.215 159.265 201.765 162.625H201.755Z" fill="#7E9E6E"/>
<path d="M201.755 162.625C201.755 162.625 228.345 150.215 265.525 165.815C265.525 165.815 269.895 167.765 273.505 172.585" stroke="black" stroke-miterlimit="10" stroke-linecap="round"/>
<path d="M285.255 83.5549C285.255 83.5549 292.535 82.6849 274.765 99.1149C257.985 114.635 260.125 114.755 260.125 114.755C260.125 114.755 266.495 91.5349 285.255 83.5549Z" fill="black"/>
<path d="M247.925 122.622C247.925 122.622 253.365 124.722 263.175 115.722C272.985 106.722 276.635 86.6625 285.265 83.5625C285.265 83.5625 263.625 90.5525 247.935 122.632L247.925 122.622Z" fill="#7E9E6E"/>
<path d="M283.585 191.543C272.525 169.263 257.165 143.943 236.275 119.733C236.275 119.733 231.145 113.013 213.315 95.5934C195.485 78.1734 187.485 76.2734 187.485 76.2734" stroke="black" stroke-miterlimit="10" stroke-linecap="round"/>
<path d="M282.705 84.625C282.705 84.625 262.115 93.605 247.925 122.625C244.485 129.655 248.605 135.215 251.965 139.435" stroke="black" stroke-miterlimit="10" stroke-linecap="round"/>
<path d="M470.455 325.132C470.455 325.132 453.245 337.832 413.595 328.512C413.595 328.512 413.705 322.152 427.935 316.032C442.165 309.912 472.715 319.242 470.465 325.132H470.455Z" fill="#7E9E6E"/>
<path d="M469.225 323.973C469.225 323.973 442.065 314.893 413.775 327.823C413.775 327.823 404.605 333.003 399.375 341.223" stroke="black" stroke-miterlimit="10" stroke-linecap="round"/>
<path d="M413.075 297.194C413.075 297.194 420.915 299.574 424.335 283.214C427.575 267.674 429.465 252.334 419.625 232.184C419.625 232.184 399.305 255.154 401.985 270.994C404.665 286.834 413.085 297.184 413.085 297.184L413.075 297.194Z" fill="#7E9E6E"/>
<path d="M471.405 303.322C471.405 303.322 477.455 307.462 453.265 308.122C430.415 308.752 431.945 310.242 431.945 310.242C431.945 310.242 452.035 296.962 471.405 303.322Z" fill="black"/>
<path d="M417.585 308.125C417.585 308.125 420.295 313.285 433.605 312.975C446.915 312.665 462.875 299.975 471.405 303.325C471.405 303.325 450.525 294.335 417.585 308.125Z" fill="#7E9E6E"/>
<path d="M382.705 377.645C394.255 355.605 405.735 328.315 413.075 297.195C413.075 297.195 415.505 289.095 419.145 264.445C422.785 239.785 419.625 232.195 419.625 232.195" stroke="black" stroke-miterlimit="10" stroke-linecap="round"/>
<path d="M468.775 302.443C468.775 302.443 447.365 295.643 417.575 308.123C410.355 311.143 408.315 315.923 405.265 324.773" stroke="black" stroke-miterlimit="10" stroke-linecap="round"/>
<path d="M196.215 178.316C190.645 178.316 185.255 176.366 180.975 172.796L169.105 162.896C164.835 159.336 159.765 157.426 154.565 157.426H95.675C90.335 157.426 85.995 161.756 85.995 167.106V380.296C85.995 389.516 93.475 396.996 102.695 396.996H396.245C403.415 396.996 409.235 391.186 409.235 384.006V191.316C409.235 184.146 403.425 178.326 396.245 178.326H196.205L196.215 178.316Z" fill="#333969"/>
<path d="M409.235 385.074C409.235 385.074 389.255 347.604 387.255 343.294L332.655 232.064C331.285 229.104 328.315 227.214 325.065 227.214H122.175C114.795 227.214 104.135 223.344 98.465 218.624L90.275 211.794C86.005 208.234 80.935 206.324 75.735 206.324H19.705C13.735 206.324 9.68502 212.384 11.965 217.894L79.735 381.794C83.535 390.984 92.495 396.974 102.435 396.974H405.575C407.555 396.974 409.375 395.284 409.375 393.304L409.235 385.074Z" fill="#7584F1"/>
<path d="M326.715 237.805L406.825 393.545" stroke="black" stroke-linejoin="round"/>
<path d="M293.695 264.637H224.685C222.805 264.637 221.055 263.687 220.045 262.127C217.715 258.517 220.345 253.797 224.685 253.797H293.695C295.575 253.797 297.325 254.747 298.335 256.307C300.665 259.917 298.035 264.637 293.695 264.637Z" stroke="black" stroke-linejoin="round"/>
<path d="M164.605 318.164L218.335 350.174" stroke="black" stroke-linecap="round" stroke-linejoin="round"/>
<path d="M208.535 316.625L174.775 350.375" stroke="black" stroke-linecap="round" stroke-linejoin="round"/>
<path d="M229.733 344.654C234.226 328.408 220.436 310.417 198.931 304.469C177.426 298.521 156.35 306.87 151.857 323.116C147.364 339.361 161.154 357.353 182.659 363.3C204.164 369.248 225.24 360.9 229.733 344.654Z" stroke="black" stroke-linecap="round" stroke-linejoin="round"/>
<path d="M468.975 178.417C470.265 172.847 464.335 165.907 458.725 166.997C454.155 167.887 451.885 168.987 451.145 169.227C449.715 169.697 439.005 169.007 437.775 170.787C436.885 172.077 442.475 173.567 446.045 173.927C446.785 173.997 446.995 174.957 446.365 175.347C442.855 177.527 435.865 181.947 435.265 183.037C434.465 184.507 430.835 190.197 431.865 190.827C432.885 191.457 435.985 188.617 437.995 186.597C440.005 184.577 445.885 182.857 445.885 182.857C445.885 182.857 435.665 193.107 434.325 195.957C432.315 200.187 438.135 198.337 438.135 198.337C437.225 200.727 441.995 200.207 443.125 199.307C445.355 197.527 452.235 189.217 452.265 190.057C452.295 190.897 445.145 199.957 445.875 202.077C446.595 204.187 449.485 201.537 451.155 199.307C452.825 197.077 457.725 190.837 457.725 190.837C457.725 190.837 463.295 186.767 467.945 179.747C467.985 179.687 468.965 178.477 468.975 178.417Z" fill="#DB9C7F"/>
<path d="M438.395 198.116L448.145 186.496" stroke="black" stroke-miterlimit="10" stroke-linecap="round"/>
<path d="M395.705 145.466L430.765 123.596C430.985 123.456 431.185 123.296 431.385 123.126L442.945 111.226C445.465 109.016 449.345 109.536 451.205 112.316L456.875 120.816C458.075 122.616 458.115 124.946 456.985 126.796L448.845 139.996C448.245 140.966 447.365 141.726 446.315 142.176C439.765 144.976 414.755 155.546 399.835 159.756C396.125 160.806 392.525 157.786 392.855 153.946L393.225 149.626C393.365 147.926 394.285 146.396 395.715 145.456L395.705 145.466Z" fill="#9EC68A"/>
<path d="M476.455 364.047L474.605 376.647C474.605 376.647 439.865 389.997 443.085 390.187C446.305 390.377 496.235 387.477 496.235 387.477L493.295 364.607L476.455 364.047Z" fill="black"/>
<path d="M486.135 160.207C486.135 160.207 488.905 186.857 490.985 188.237C493.065 189.617 495.825 190.317 495.825 190.317L491.325 159.867L486.135 160.217V160.207Z" stroke="#424242" stroke-miterlimit="10"/>
<path d="M540.995 141.895C540.995 141.895 555.075 170.575 550.985 186.545L472.925 175.805L474.555 146.015L540.995 141.895Z" fill="black"/>
<path d="M543.135 147.707C543.135 147.707 532.105 168.137 510.985 169.777" stroke="#424242" stroke-miterlimit="10" stroke-linecap="round"/>
<path d="M525.475 165.406C525.475 165.406 529.755 178.646 542.165 178.926" stroke="#424242" stroke-miterlimit="10" stroke-linecap="round"/>
<path d="M472.925 175.805C472.925 175.805 452.015 250.265 451.465 274.235L466.745 366.575C466.745 366.575 481.325 373.825 496.505 367.965C497.125 367.725 488.805 320.075 488.225 271.005L531.865 179.685L472.915 175.805H472.925Z" fill="black"/>
<path d="M551.335 183.424L548.265 273.274L582.645 367.204C582.645 367.204 568.265 379.354 550.085 368.294L512.765 278.854L516.595 213.774L500.325 203.924L497.905 175.734L551.345 183.414L551.335 183.424Z" fill="black"/>
<path d="M490.925 166.995L507.495 179.485L531.255 152.965L473.545 161.205L487.665 179.935L490.925 166.995Z" fill="white"/>
<path d="M558.345 362.525L555.345 373.395C555.345 373.395 533.425 397.165 536.655 397.165C539.885 397.165 575.875 382.445 575.875 382.445L571.265 359.805L558.345 362.525Z" fill="black"/>
<path d="M538.185 154.605C538.185 154.605 547.665 177.905 540.835 275.655C540.835 275.655 564.775 328.345 577.195 370.025" stroke="#424242" stroke-miterlimit="10" stroke-linecap="round"/>
<path d="M503.345 206.254L479.455 272.814L489.705 370.034" stroke="#424242" stroke-miterlimit="10" stroke-linecap="round"/>
<path d="M399.135 158.614C399.135 158.614 399.595 160.944 394.435 162.724C389.275 164.504 386.235 163.934 386.235 163.934C386.235 163.934 374.655 150.274 374.145 149.794C373.635 149.314 374.505 144.064 377.935 141.954C380.015 140.674 388.085 142.754 394.095 144.594C398.285 145.874 400.875 150.074 400.175 154.404C399.895 156.104 399.555 157.684 399.135 158.614Z" fill="#DB9C7F"/>
<path d="M389.635 154.985C389.635 154.985 380.165 153.615 376.165 150.315C376.165 150.315 370.185 149.115 368.915 149.865C367.645 150.615 366.605 151.695 363.855 152.155C361.105 152.615 361.935 150.785 364.825 148.195C365.655 147.455 367.855 144.785 369.775 144.425C372.355 143.935 377.925 141.965 377.925 141.965L389.115 155.345" fill="#DB9C7F"/>
<path d="M386.245 163.933C386.245 163.933 382.405 166.343 381.055 166.273C379.705 166.203 378.435 165.403 378.105 163.183C378.105 163.183 370.955 164.493 373.225 159.083C373.225 159.083 368.905 158.383 368.795 155.563C368.795 155.563 364.965 153.653 365.795 150.593C366.635 147.533 378.665 147.803 378.665 147.803L391.435 154.283L386.255 163.923L386.245 163.933Z" fill="#DB9C7F"/>
<path d="M383.525 164.445C383.525 164.445 387.175 161.215 386.965 159.915C386.765 158.615 386.075 157.905 385.245 158.155C384.135 158.485 379.905 161.715 378.085 163.185" stroke="#1A1C30" stroke-width="0.78" stroke-linecap="round" stroke-linejoin="round"/>
<path d="M373.215 159.093C373.215 159.093 382.925 157.573 383.015 156.143C383.105 154.703 382.425 152.803 380.395 153.213C377.985 153.693 371.075 155.353 368.775 155.303" stroke="#1A1C30" stroke-width="0.78" stroke-linecap="round" stroke-linejoin="round"/>
<path d="M385.255 158.154C385.255 158.154 387.035 157.044 386.335 155.804C385.625 154.564 384.665 154.134 382.595 154.664" stroke="#1A1C30" stroke-width="0.78" stroke-linecap="round" stroke-linejoin="round"/>
<path d="M368.585 151.244C368.585 151.244 369.115 150.554 369.865 149.844" stroke="#1A1C30" stroke-width="0.78" stroke-linecap="round" stroke-linejoin="round"/>
<path d="M360.548 123.434L365.455 120.675L390.695 165.578C391.43 166.885 390.964 168.547 389.657 169.281L389.491 169.375C388.183 170.11 386.522 169.644 385.787 168.336L360.548 123.434Z" fill="#333969"/>
<path d="M373.015 130.625L375.135 134.395C375.705 135.415 375.445 136.655 374.555 137.155L369.975 139.725C369.075 140.225 367.885 139.805 367.315 138.785L365.105 134.855" fill="#333969"/>
<path d="M363.215 93.7556C354.455 77.5056 343.475 66.3256 336.505 65.8056L336.735 64.2656L333.085 66.6456C326.815 70.9156 330.145 89.9756 340.525 109.216C350.895 128.466 364.385 140.606 370.655 136.336L374.085 134.056L373.095 132.736C375.505 125.286 371.745 109.596 363.215 93.7656V93.7556Z" fill="#333969"/>
<path d="M373.825 134.264C380.506 130.784 377.725 112.231 367.615 92.825C357.504 73.4194 343.892 60.5097 337.211 63.9905C330.531 67.4713 333.311 86.0243 343.421 105.43C353.532 124.836 367.144 137.745 373.825 134.264Z" fill="#7584F1"/>
<path d="M363.405 93.7358C371.845 109.396 375.165 124.496 370.805 127.466C366.455 130.436 356.075 120.136 347.635 104.476C339.195 88.8158 335.875 73.7158 340.235 70.7458C344.585 67.7858 354.965 78.0758 363.405 93.7358Z" fill="#D3DDF7"/>
<path d="M389.635 154.985C389.635 154.985 380.165 153.615 376.165 150.315C376.165 150.315 370.185 149.115 368.915 149.865C367.645 150.615 366.605 151.695 363.855 152.155C361.105 152.615 361.935 150.785 364.825 148.195C365.655 147.455 367.855 144.785 369.775 144.425C372.355 143.935 377.925 141.965 377.925 141.965L389.115 155.345" fill="#DB9C7F"/>
<path d="M389.635 154.984C389.635 154.984 380.165 153.614 376.165 150.314C376.165 150.314 370.185 149.114 368.915 149.864C367.645 150.614 366.605 151.694 363.855 152.154" stroke="#1A1C30" stroke-width="0.78" stroke-linecap="round" stroke-linejoin="round"/>
<path d="M363.405 93.7346C354.965 78.0746 344.585 67.7746 340.235 70.7446C339.895 70.9746 339.605 71.2946 339.355 71.6746C344.385 71.9846 353.195 81.5346 360.535 95.1646C368.315 109.595 371.735 123.535 368.825 127.965C369.575 128.015 370.245 127.855 370.815 127.465C375.165 124.505 371.855 109.395 363.415 93.7346H363.405Z" fill="#333969"/>
<path d="M357.525 87.5952C362.015 95.9252 363.775 103.955 361.465 105.535C359.145 107.115 353.635 101.635 349.135 93.3052C344.635 84.9752 342.885 76.9452 345.195 75.3652C347.505 73.7852 353.025 79.2652 357.525 87.5952Z" fill="white"/>
<path d="M525.455 114.416L518.495 89.5661C515.935 80.4461 511.455 72.0061 505.535 64.6061C495.045 51.5061 467.495 52.6961 467.495 52.6961L446.295 67.9461C446.235 67.9861 446.165 68.0161 446.105 68.0561C433.625 74.9461 431.335 85.5661 431.655 101.946L432.425 124.056L446.775 110.356L450.395 115.326C450.375 115.186 450.365 115.046 450.355 114.916L452.075 117.616L450.405 115.326C450.915 119.886 453.295 131.506 464.355 136.936L470.655 146.856L468.985 160.556C528.125 182.056 542.845 139.836 542.845 139.836L525.465 114.436L525.455 114.416Z" fill="#9EC68A"/>
<path d="M443.745 108.066L451.485 117.536C451.485 117.536 450.425 132.126 465.135 136.806" stroke="black" stroke-miterlimit="10" stroke-linecap="round"/>
<path d="M502.505 127.336L457.495 166.546C457.495 166.546 466.405 179.026 470.415 179.466L524.335 145.156" fill="#9EC68A"/>
<path d="M470.865 154.527C470.865 154.527 495.375 126.897 503.845 122.887" stroke="black" stroke-miterlimit="10" stroke-linecap="round"/>
<path d="M490.865 97.5352C490.865 97.5352 492.035 103.715 499.885 125.445" stroke="black" stroke-miterlimit="10" stroke-linecap="round"/>
<path d="M476.665 175.914C476.665 175.914 527.025 143.834 527.465 134.474C527.905 125.114 514.765 81.6641 514.765 81.6641" stroke="black" stroke-miterlimit="10" stroke-linecap="round"/>
<path d="M482.175 130.454C482.175 130.454 494.295 131.594 498.055 120.594" stroke="black" stroke-miterlimit="10" stroke-linecap="round"/>
<path d="M433.095 122.266C433.095 122.266 436.435 118.926 439.775 122.716" stroke="black" stroke-miterlimit="10" stroke-linecap="round"/>
<path d="M393.445 144.324L400.575 140.984C400.575 140.984 409.265 150.454 406.145 158.584L397.455 161.144C397.455 161.144 401.465 152.234 393.445 144.324Z" fill="white"/>
<path d="M460.345 161.545C460.345 161.545 469.705 165.555 476.385 177.085L469.195 182.595C469.195 182.595 460.335 169.895 454.155 167.885L460.335 161.535L460.345 161.545Z" fill="white"/>
<path d="M452.485 51.2461L482.005 53.4161C482.005 53.4161 483.125 69.6561 465.295 83.9761L457.285 76.1961L452.925 85.6661C452.925 85.6661 446.155 81.8561 445.235 70.9161L446.675 57.6361L452.475 51.2461H452.485Z" fill="white"/>
<path d="M467.495 52.6948C468.575 53.6148 469.085 55.0248 468.835 56.4248C467.885 61.7048 465.025 74.5048 459.275 76.1048C452.005 78.1348 447.475 63.7848 447.475 63.7848L451.095 38.7148L467.495 52.6948Z" fill="#DB9C7F"/>
<path d="M444.475 58.6353L444.385 62.2853C444.315 62.3253 443.075 73.0953 446.695 73.5153C461.825 70.7753 462.785 56.4353 464.075 42.1953C464.075 42.1953 443.005 55.7953 444.475 58.6453V58.6353Z" fill="black"/>
<path d="M419.275 31.7535C419.275 31.7535 415.585 66.9035 437.425 72.9535C459.265 79.0035 464.495 43.3935 463.735 31.0735C462.985 18.7535 457.495 14.1735 442.185 13.6235C419.545 12.8035 419.275 31.7535 419.275 31.7535Z" fill="#DB9C7F"/>
<path d="M438.895 48.7446C438.955 50.0146 438.355 51.0646 437.555 51.1046C436.755 51.1446 436.045 50.1546 435.985 48.8846C435.925 47.6146 436.525 46.5646 437.325 46.5246C438.125 46.4846 438.835 47.4746 438.895 48.7446Z" fill="black"/>
<path d="M441.295 42.267C441.295 42.267 434.085 45.407 433.375 39.957" stroke="black" stroke-miterlimit="10" stroke-linecap="round"/>
<path d="M424.615 42.2852C424.615 42.2852 422.235 46.4252 419.495 44.5852" stroke="black" stroke-miterlimit="10" stroke-linecap="round"/>
<path d="M420.785 49.6257C420.785 49.6257 422.145 49.1857 424.145 50.2457" stroke="black" stroke-miterlimit="10" stroke-linecap="round"/>
<path d="M442.165 62.7436C442.165 62.7436 444.135 60.8636 445.755 60.4336" stroke="black" stroke-miterlimit="10" stroke-linecap="round"/>
<path d="M427.405 53.6758C427.405 53.6758 426.155 56.5258 429.345 57.8958" stroke="black" stroke-miterlimit="10" stroke-linecap="round"/>
<path d="M419.025 39.3149C419.025 39.3149 419.395 29.0249 423.955 23.2049C423.955 23.2049 430.225 37.4549 457.245 40.3649L465.115 38.7149C465.115 38.7149 468.335 22.2149 457.045 15.7149C445.755 9.2149 428.485 12.8049 422.925 18.6549C413.505 28.5649 419.025 39.3249 419.025 39.3249V39.3149Z" fill="black"/>
<path d="M451.995 38.4837L456.675 47.7238L459.975 37.3438L451.995 38.4837Z" fill="black"/>
<path d="M468.335 46.767C466.985 51.677 463.125 54.927 459.705 54.017C456.285 53.107 454.605 48.397 455.945 43.477C457.295 38.567 461.155 35.317 464.575 36.227C467.995 37.137 469.675 41.847 468.335 46.767Z" fill="#DB9C7F"/>
<path d="M464.905 42.4857C464.905 42.4857 461.055 39.1757 458.955 45.2257C458.955 45.2257 461.205 47.6057 459.785 49.4857C459.785 49.4857 462.005 49.9857 463.095 48.0357" stroke="black" stroke-linecap="round" stroke-linejoin="round"/>
<path d="M463.235 44.7941C463.235 44.7941 463.025 43.4441 461.525 41.9141" stroke="black" stroke-linecap="round" stroke-linejoin="round"/>
<path d="M465.105 53.8456C465.105 55.6856 463.615 57.1756 461.775 57.1756C459.935 57.1756 458.445 55.6856 458.445 53.8456C458.445 52.0056 459.935 50.5156 461.775 50.5156C463.615 50.5156 465.105 52.0056 465.105 53.8456Z" fill="white"/>
<path d="M455.755 20.0154C455.755 20.0154 459.855 -1.41462 469.435 2.68538C479.015 6.78538 483.345 27.3054 474.225 28.9054C465.105 30.5054 458.035 26.1654 458.035 26.1654L455.755 20.0054V20.0154Z" fill="black"/>
<path d="M455.875 26.1758C455.875 26.1758 471.725 39.3958 476.855 27.2058" stroke="black" stroke-miterlimit="10" stroke-linecap="round"/>
<path d="M515.755 213.264L497.415 202.914" stroke="#424242" stroke-miterlimit="10" stroke-linecap="round"/>
<path d="M99.3849 77.3139C119.205 77.8539 135.605 93.7339 136.745 113.524C137.415 125.164 132.905 135.754 125.315 143.234C124.195 144.334 123.675 145.914 123.935 147.464L126.785 164.334L109.245 154.114C108.245 153.534 107.065 153.314 105.935 153.544C101.645 154.404 97.1049 154.564 92.4249 153.854C75.0949 151.224 61.5749 136.884 59.9749 119.424C57.8449 96.1639 76.4249 76.6739 99.3849 77.3039V77.3139Z" fill="#D3DDF7"/>
<path d="M96.5549 129.134L96.4449 119.924C97.7849 119.594 99.0149 119.174 100.125 118.644C101.235 118.114 102.205 117.514 103.035 116.824C103.865 116.134 104.565 115.364 105.135 114.514C105.695 113.664 106.125 112.744 106.415 111.764C106.705 110.784 106.855 109.744 106.855 108.664C106.855 107.104 106.475 105.634 105.715 104.254C104.955 102.874 103.865 101.754 102.445 100.904C101.025 100.054 99.3449 99.6236 97.3749 99.6236C95.2649 99.6236 93.3149 100.204 91.5149 101.364C89.7149 102.524 88.3449 104.504 87.4049 107.304L86.4249 106.654C87.2549 104.004 88.6549 101.974 90.6149 100.554C92.5749 99.1336 94.8049 98.4336 97.3149 98.4336C99.4549 98.4336 101.335 98.8836 102.955 99.7936C104.575 100.704 105.835 101.924 106.745 103.474C107.655 105.014 108.105 106.754 108.105 108.674C108.105 110.124 107.855 111.484 107.365 112.764C106.875 114.034 106.185 115.194 105.295 116.254C104.405 117.304 103.325 118.224 102.055 119.004C100.785 119.784 99.3449 120.374 97.7549 120.774L97.6449 129.164H96.5549V129.134ZM95.9049 135.994C95.9049 135.524 96.0349 135.134 96.2849 134.824C96.5349 134.514 96.8849 134.364 97.3249 134.364C97.8349 134.364 98.1949 134.514 98.4149 134.804C98.6349 135.094 98.7449 135.494 98.7449 136.004C98.7449 136.444 98.6249 136.824 98.3949 137.144C98.1549 137.474 97.8049 137.634 97.3349 137.634C96.8649 137.634 96.5049 137.484 96.2749 137.194C96.0349 136.904 95.9249 136.504 95.9249 135.994H95.9049Z" fill="black"/>
</g>
<defs>
<clipPath id="clip0_305_18283">
<rect width="590.27" height="408.31" fill="white" transform="translate(0.86499 0.84375)"/>
</clipPath>
</defs>
</svg>
