<svg width="397" height="323" viewBox="0 0 397 323" fill="none" xmlns="http://www.w3.org/2000/svg">
<path d="M133.965 20.587C133.965 20.587 24.7264 -10.0869 32.3762 57.0285C40.0261 124.144 77.7377 162.195 61.5298 209.659C45.3219 257.124 20.8192 289.599 76.6123 303.369C132.405 317.14 163.908 284.191 204.643 294.781C245.378 305.372 340.699 325.378 358.35 284.189C376.002 243 321.005 210.905 333.793 158.699C346.581 106.492 389.187 51.998 368.767 25.7008C348.347 -0.596428 208.487 52.36 133.965 20.587Z" fill="#24559C"/>
<path d="M309.964 178.511C310.907 180.81 312.287 182.76 313.974 184.019C314.16 184.16 314.351 184.291 314.547 184.412C315.834 185.222 317.28 185.641 318.831 185.529C318.831 185.529 327.977 183.186 329.506 175.804C329.548 175.602 329.583 175.398 329.614 175.189C329.62 175.148 329.625 175.106 329.631 175.064C330.088 171.585 330.866 169.808 331.715 168.678C331.871 168.472 332.027 168.288 332.187 168.119C333.15 167.088 334.144 166.611 334.839 165.251C335.451 164.051 335.315 162.454 335.125 160.804C335.1 160.594 335.074 160.381 335.05 160.17C334.813 158.157 334.624 156.129 335.719 154.703C336.028 154.3 336.331 153.986 336.621 153.729C336.866 153.512 337.101 153.335 337.325 153.177C338.639 152.251 339.481 152.058 338.997 148.642C338.832 147.486 338.538 146.597 338.227 145.854C338.137 145.641 338.044 145.437 337.957 145.246C337.095 143.39 336.346 142.355 338.069 139.514C338.665 138.528 339.192 137.614 339.613 136.776C339.736 136.53 339.85 136.293 339.955 136.06C341.008 133.722 341.087 132.03 339.394 131.072C336.956 129.692 335.851 127.948 335.456 124.433C335.3 123.047 334.635 122.084 333.72 121.586C333.538 121.485 333.348 121.404 333.148 121.34C331.807 120.919 330.116 121.336 328.694 122.683C325.998 125.236 323.414 127.406 319.924 127.25C319.125 127.215 318.572 127.489 318.177 127.978C318.044 128.143 317.929 128.332 317.828 128.542C316.922 130.431 317.227 133.987 316.367 136.464C316.365 136.471 316.363 136.479 316.359 136.486C316.271 136.736 316.179 136.966 316.08 137.184C314.783 140.036 312.614 140.141 311.622 142.124C311.526 142.317 311.466 142.55 311.44 142.817C311.416 143.054 311.418 143.32 311.438 143.605C311.624 146.244 313.474 150.798 313.07 153.876C313.035 154.137 312.985 154.388 312.917 154.627C312.881 154.745 312.842 154.861 312.798 154.976C311.793 157.531 310.209 158.229 309.646 159.916C309.575 160.124 309.521 160.346 309.485 160.589C309.402 161.151 309.42 161.822 309.573 162.669C310.33 166.846 312.111 166.947 311.271 170.016C311.208 170.249 311.135 170.47 311.058 170.683C310.979 170.903 310.894 171.111 310.806 171.315C309.85 173.518 308.489 174.922 309.964 178.511Z" fill="#00E3F6"/>
<path d="M315.077 177.569C314.656 179.772 314.288 181.924 313.974 184.021C314.16 184.162 314.351 184.293 314.546 184.414C314.876 182.196 315.257 179.974 315.681 177.76C321.262 175.702 326.753 175.654 329.508 175.806C329.55 175.604 329.585 175.4 329.616 175.191C326.882 175.036 321.424 175.064 315.819 177.049C316.258 174.814 316.736 172.589 317.247 170.391C321.328 168.496 325.687 168.252 328.64 168.386C329.809 168.439 330.855 168.553 331.717 168.678C331.873 168.472 332.029 168.287 332.189 168.118C331.252 167.971 330.059 167.829 328.686 167.767C325.763 167.634 321.496 167.862 317.427 169.63C317.986 167.265 318.581 164.933 319.197 162.654C324.89 160.333 331.601 160.495 335.127 160.802C335.103 160.591 335.076 160.379 335.052 160.168C334.041 160.08 332.792 160.008 331.397 159.999C328.201 159.977 323.592 160.3 319.401 161.903C320.055 159.516 320.731 157.189 321.413 154.942C326.465 153.122 332.586 153.299 336.625 153.725C336.871 153.508 337.105 153.33 337.329 153.172C336.432 153.067 335.414 152.968 334.317 152.902C330.873 152.694 325.946 152.764 321.639 154.205C322.102 152.694 322.569 151.219 323.032 149.794L323.054 149.778C327.08 147.124 332.964 146.209 337.191 145.91C337.544 145.886 337.891 145.864 338.231 145.847C338.141 145.634 338.049 145.43 337.961 145.239C337.696 145.255 337.428 145.27 337.156 145.29C333.062 145.577 327.435 146.439 323.333 148.872C323.932 147.042 324.526 145.294 325.103 143.642C325.228 143.284 325.353 142.927 325.478 142.574C328.427 139.711 334.666 137.853 339.617 136.767C339.74 136.521 339.854 136.284 339.96 136.051C339.282 136.194 338.578 136.354 337.86 136.528C332.338 137.861 328.326 139.496 325.899 141.387C329.105 132.414 332.117 125.26 333.727 121.577C333.545 121.476 333.354 121.395 333.154 121.331C331.522 125.069 328.455 132.359 325.204 141.486C324.305 139.096 321.514 132.105 318.184 127.969C318.05 128.134 317.936 128.323 317.835 128.533C321.461 133.164 324.511 141.389 324.879 142.405C324.759 142.747 324.638 143.091 324.515 143.44C323.923 145.136 323.352 146.819 322.804 148.49C322.251 147.154 321.108 144.526 319.588 141.709C318.504 139.702 317.429 137.956 316.367 136.479C316.28 136.729 316.187 136.96 316.089 137.177C319.48 142.012 322.008 148.157 322.503 149.407C322.005 150.936 321.523 152.457 321.06 153.962C320.479 153.047 319.239 151.167 317.616 149.109C315.468 146.387 313.403 144.278 311.447 142.811C311.422 143.048 311.425 143.313 311.444 143.598C316.161 147.323 320.239 153.806 320.819 154.747C320.112 157.07 319.447 159.363 318.829 161.618C318.25 160.627 317.034 158.646 315.437 156.599C314.643 155.579 313.855 154.668 313.079 153.872C313.044 154.133 312.993 154.383 312.925 154.622C315.964 157.845 318.215 161.781 318.598 162.469C318.116 164.249 317.662 166.008 317.236 167.741C317.109 168.259 316.986 168.772 316.863 169.283C316.332 168.272 315.284 166.394 313.895 164.479C312.467 162.509 311.05 160.982 309.654 159.911C309.584 160.12 309.529 160.341 309.494 160.585C313.32 163.663 316.242 169.411 316.642 170.218C316.141 172.366 315.687 174.474 315.279 176.54C314.823 175.639 313.976 174.14 312.666 172.493C312.212 171.92 311.679 171.304 311.065 170.679C310.986 170.898 310.9 171.106 310.813 171.31C311.324 171.848 311.776 172.372 312.166 172.864C313.967 175.128 314.895 177.15 315.077 177.569Z" fill="#ABFDFF"/>
<path d="M317.197 179.127C316.804 180.966 316.04 182.604 314.954 183.769C314.834 183.899 314.711 184.022 314.582 184.14C313.733 184.917 312.712 185.423 311.543 185.549C311.543 185.549 304.42 185.04 302.285 179.752C302.228 179.608 302.173 179.461 302.123 179.309C302.112 179.279 302.103 179.248 302.092 179.217C301.283 176.69 300.464 175.472 299.679 174.746C299.536 174.615 299.394 174.498 299.253 174.393C298.398 173.755 297.593 173.535 296.893 172.616C296.274 171.804 296.16 170.598 296.079 169.345C296.068 169.185 296.059 169.025 296.048 168.862C295.954 167.331 295.82 165.798 294.811 164.883C294.526 164.624 294.26 164.431 294.008 164.279C293.797 164.15 293.598 164.049 293.409 163.964C292.306 163.452 291.652 163.422 291.553 160.813C291.52 159.931 291.619 159.229 291.748 158.635C291.786 158.464 291.827 158.301 291.867 158.146C292.257 156.647 292.674 155.776 291.009 153.894C290.432 153.242 289.917 152.633 289.491 152.064C289.366 151.898 289.25 151.737 289.14 151.577C288.041 149.978 287.753 148.73 288.885 147.789C290.513 146.433 291.101 144.985 290.919 142.315C290.849 141.262 291.213 140.457 291.825 139.961C291.946 139.862 292.077 139.775 292.218 139.702C293.159 139.209 294.473 139.29 295.713 140.099C298.064 141.637 300.28 142.903 302.858 142.315C303.446 142.181 303.895 142.311 304.255 142.62C304.376 142.725 304.488 142.85 304.591 142.993C305.519 144.276 305.773 146.964 306.747 148.692C306.75 148.697 306.754 148.703 306.756 148.708C306.855 148.881 306.956 149.041 307.059 149.188C308.408 151.136 310.038 150.921 311.045 152.264C311.144 152.393 311.218 152.56 311.273 152.755C311.324 152.929 311.359 153.126 311.381 153.341C311.598 155.331 310.837 158.97 311.552 161.206C311.613 161.395 311.684 161.575 311.767 161.743C311.809 161.827 311.855 161.908 311.903 161.987C312.995 163.753 314.27 164.06 314.915 165.238C314.996 165.383 315.066 165.541 315.126 165.719C315.264 166.127 315.341 166.627 315.341 167.278C315.341 170.49 314.029 170.806 315.069 172.976C315.148 173.14 315.231 173.296 315.317 173.445C315.404 173.597 315.496 173.741 315.589 173.88C316.606 175.393 317.809 176.256 317.197 179.127Z" fill="url(#paint0_linear_1_851)"/>
<path d="M313.263 179.116C313.873 180.698 314.439 182.251 314.954 183.769C314.834 183.899 314.711 184.022 314.582 184.14C314.037 182.534 313.454 180.931 312.84 179.34C308.408 178.561 304.314 179.268 302.285 179.753C302.228 179.608 302.173 179.461 302.123 179.309C304.137 178.825 308.202 178.109 312.642 178.831C312.015 177.228 311.357 175.635 310.681 174.068C307.388 173.208 304.11 173.616 301.932 174.114C301.068 174.312 300.304 174.538 299.681 174.746C299.539 174.615 299.396 174.498 299.256 174.393C299.931 174.156 300.802 173.891 301.816 173.658C303.972 173.165 307.18 172.759 310.448 173.524C309.713 171.839 308.954 170.185 308.189 168.571C303.639 167.612 298.665 168.639 296.083 169.343C296.072 169.183 296.064 169.023 296.053 168.86C296.794 168.658 297.713 168.435 298.751 168.242C301.127 167.794 304.602 167.412 307.936 168.04C307.127 166.351 306.311 164.71 305.499 163.13C301.493 162.457 296.963 163.415 294.015 164.277C293.804 164.148 293.604 164.047 293.416 163.962C294.069 163.762 294.813 163.551 295.62 163.354C298.156 162.735 301.833 162.121 305.232 162.612C304.683 161.548 304.137 160.515 303.599 159.517L303.582 159.508C300.227 158.076 295.724 158.19 292.538 158.538C292.273 158.567 292.012 158.6 291.755 158.631C291.792 158.459 291.834 158.297 291.873 158.141C292.073 158.117 292.275 158.093 292.479 158.071C295.566 157.733 299.87 157.615 303.251 158.872C302.557 157.591 301.879 156.371 301.228 155.219C301.085 154.969 300.945 154.721 300.804 154.475C298.222 152.742 293.328 152.2 289.498 152.062C289.372 151.896 289.256 151.735 289.146 151.575C289.671 151.591 290.215 151.613 290.774 151.645C295.063 151.893 298.273 152.567 300.333 153.648C296.735 147.403 293.528 142.484 291.834 139.959C291.955 139.86 292.086 139.773 292.227 139.7C293.947 142.263 297.213 147.273 300.864 153.626C301.21 151.727 302.342 146.146 304.264 142.618C304.385 142.723 304.497 142.848 304.6 142.991C302.524 146.927 301.366 153.462 301.23 154.265C301.366 154.504 301.502 154.743 301.64 154.987C302.309 156.169 302.961 157.345 303.597 158.514C303.827 157.446 304.323 155.335 305.076 153.032C305.611 151.391 306.175 149.947 306.767 148.704C306.866 148.877 306.967 149.037 307.07 149.184C305.199 153.24 304.148 158.157 303.946 159.153C304.523 160.223 305.087 161.289 305.635 162.349C305.944 161.59 306.611 160.024 307.544 158.273C308.775 155.956 310.027 154.109 311.284 152.753C311.335 152.927 311.37 153.124 311.392 153.339C308.384 156.748 306.223 162.123 305.92 162.902C306.761 164.536 307.564 166.151 308.329 167.746C308.628 166.93 309.264 165.291 310.176 163.551C310.631 162.685 311.093 161.902 311.563 161.202C311.624 161.39 311.694 161.57 311.778 161.739C309.953 164.547 308.807 167.781 308.614 168.347C309.213 169.606 309.79 170.854 310.341 172.085C310.505 172.454 310.666 172.818 310.826 173.184C311.085 172.359 311.611 170.822 312.386 169.207C313.182 167.546 314.031 166.221 314.926 165.234C315.007 165.379 315.077 165.537 315.137 165.714C312.704 168.52 311.304 173.193 311.117 173.849C311.78 175.38 312.403 176.887 312.984 178.37C313.202 177.638 313.632 176.409 314.382 175.005C314.643 174.518 314.957 173.987 315.33 173.439C315.417 173.59 315.51 173.735 315.602 173.873C315.292 174.34 315.029 174.792 314.803 175.211C313.759 177.149 313.342 178.781 313.263 179.116Z" fill="#A6EEFF"/>
<path d="M335.388 179.777L333.962 186.288L328.885 209.494H304.727L299.65 186.288L298.224 179.777H335.388Z" fill="#4CC9F6"/>
<path d="M335.388 179.777L333.962 186.288H299.65L298.224 179.777H335.388Z" fill="#2AAED1"/>
<path d="M337.503 183.976H296.206C295.654 183.976 295.206 183.529 295.206 182.976V177.833C295.206 177.281 295.654 176.833 296.206 176.833H337.503C338.056 176.833 338.503 177.281 338.503 177.833V182.976C338.503 183.529 338.056 183.976 337.503 183.976Z" fill="#4CC9F6"/>
<path d="M176.909 68.9363C176.909 68.9363 139.873 80.3288 151.504 124.431C151.504 124.431 185.52 120.587 176.909 68.9363Z" fill="#00E3F6"/>
<path d="M174.943 72.2247C175.551 71.3165 175.895 70.8207 175.895 70.8207C175.637 71.1278 175.316 71.6039 174.943 72.2247Z" fill="#ABFDFF"/>
<path d="M175.272 80.6666C174.237 81.0944 169.761 82.5006 169.757 82.5006C171.863 77.9946 173.699 74.298 174.943 72.2248C173.662 74.14 171.214 77.8892 168.362 82.6893L168.364 82.6871C168.397 82.6345 167.324 78.271 167.282 78.0889C167.32 78.2995 165.736 87.2217 165.736 87.2217L165.742 87.2108C165.001 88.5227 164.251 89.8828 163.5 91.2825L163.505 91.2737L161.809 84.1285L162.555 93.0639C161.445 95.1831 160.348 97.3769 159.299 99.6036V99.6014L157.742 91.6467L158.077 102.263C157.307 103.989 156.574 105.727 155.897 107.457C155.897 107.455 155.899 107.453 155.899 107.453L154.666 102.548C154.666 102.548 154.425 111.461 154.525 111.169C154.528 111.163 154.53 111.154 154.534 111.147C153.777 113.337 153.13 115.496 152.623 117.593L152.63 117.56C152.63 117.56 151.077 110.932 151.033 111.251C150.989 111.569 152.222 119.381 152.222 119.381C151.864 121.127 151.616 122.819 151.5 124.438C151.5 124.438 152.474 122.095 154.038 118.387L153.262 120.232C153.262 120.232 160.284 115.757 160.622 115.57C160.96 115.384 154.631 118.152 154.043 118.376C154.683 116.856 155.423 115.107 156.237 113.196L167.298 105.996C167.298 105.996 158.316 109.278 157.893 109.309L156.239 113.186C157.428 110.388 158.773 107.247 160.19 103.965C160.192 103.963 170.071 96.0102 170.209 95.861C170.347 95.7118 161.239 101.543 161.239 101.545C162.39 98.8928 163.575 96.1878 164.751 93.5333L172.728 87.3161C172.728 87.3161 166.436 90.4576 166.148 90.394C167.12 88.2243 168.074 86.1226 168.989 84.1438C168.998 84.1394 176.31 80.2388 175.272 80.6666ZM160.207 103.932C160.547 103.147 160.89 102.355 161.236 101.556L160.207 103.932ZM164.757 93.5224C165.222 92.4737 165.688 91.4317 166.146 90.405L164.757 93.5224ZM169.742 82.5314L169.005 84.1175C169.255 83.58 169.5 83.0513 169.742 82.5314Z" fill="#ABFDFF"/>
<path d="M167.283 78.0889C167.283 78.0866 167.283 78.0866 167.283 78.0889C167.28 78.0797 167.28 78.0797 167.283 78.0889Z" fill="#ABFDFF"/>
<path d="M122.75 67.2012C122.75 67.2012 101.525 104.889 144.837 131.651C144.837 131.651 169.419 102.397 122.75 67.2012Z" fill="url(#paint1_linear_1_851)"/>
<path d="M123.687 71.374C123.481 70.1718 123.377 69.5049 123.377 69.5049C123.404 69.9546 123.511 70.5842 123.687 71.374Z" fill="url(#paint2_linear_1_851)"/>
<path d="M130.442 77.9552C129.93 79.0982 127.388 83.6767 127.386 83.6789C125.628 78.4137 124.27 74.0086 123.687 71.3738C124.121 73.9077 125.021 78.8262 126.401 84.903V84.8987C126.385 84.8306 122.166 82.1235 121.991 82.0072C122.184 82.1498 127.759 90.5894 127.759 90.5894L127.756 90.5762C128.164 92.2062 128.603 93.8867 129.07 95.5935L129.068 95.5825L122.204 91.1006L129.676 97.761C130.406 100.33 131.203 102.949 132.067 105.558V105.556L124.692 100.312L133.125 108.649C133.827 110.639 134.57 112.607 135.351 114.53C135.351 114.528 135.349 114.524 135.349 114.524L130.582 111.501C130.582 111.501 137.238 118.903 137.095 118.589C137.093 118.582 137.089 118.574 137.084 118.565C138.155 120.919 139.289 123.165 140.491 125.249L140.472 125.217C140.472 125.217 134.121 121.044 134.329 121.336C134.537 121.627 141.54 127.002 141.54 127.002C142.593 128.692 143.692 130.251 144.842 131.651C144.842 131.651 143.83 129.005 142.244 124.802L143.034 126.893C143.034 126.893 145.28 117.872 145.41 117.461C145.539 117.051 142.545 124.155 142.242 124.791C141.593 123.069 140.847 121.083 140.037 118.914L143.46 104.584C143.46 104.584 138.712 114.144 138.394 114.493L140.035 118.903C138.848 115.724 137.521 112.148 136.148 108.403C136.148 108.401 138.034 94.3693 138.03 94.1412C138.026 93.9152 135.136 105.637 135.136 105.637C134.031 102.605 132.91 99.5051 131.824 96.4513L133.504 85.2892C133.504 85.2892 130.823 92.6669 130.545 92.8381C129.665 90.3349 128.82 87.8998 128.042 85.5963C128.031 85.5897 130.953 76.8123 130.442 77.9552ZM136.126 108.368C135.797 107.473 135.465 106.567 135.134 105.654L136.126 108.368ZM131.81 96.4447C131.38 95.2381 130.955 94.0381 130.538 92.8534L131.81 96.4447ZM127.397 83.7162L128.02 85.5678C127.807 84.9403 127.601 84.3217 127.397 83.7162Z" fill="url(#paint3_linear_1_851)"/>
<path d="M121.991 82.0103C121.982 82.0057 121.985 82.0057 121.991 82.0103V82.0103Z" fill="url(#paint4_linear_1_851)"/>
<path d="M84.6811 145.45L75.6776 207.759C75.5855 208.399 75.184 208.871 74.7826 208.814L66.7708 207.656C66.3693 207.596 66.117 207.033 66.2092 206.392L75.2126 144.083C75.3047 143.443 75.7062 142.971 76.1076 143.028L84.1194 144.186C84.5231 144.243 84.7754 144.809 84.6811 145.45Z" fill="#109CE9"/>
<path d="M80.92 146.54L80.8052 147.335L84.3269 147.844L84.4417 147.049L80.92 146.54Z" fill="white"/>
<path d="M81.8873 149.163L81.7725 149.958L83.9741 150.276L84.0889 149.481L81.8873 149.163Z" fill="white"/>
<path d="M80.2164 151.402L80.1016 152.196L83.6233 152.705L83.7381 151.91L80.2164 151.402Z" fill="white"/>
<path d="M81.1854 154.022L81.0706 154.816L83.2722 155.135L83.387 154.34L81.1854 154.022Z" fill="white"/>
<path d="M79.5155 156.262L79.4006 157.057L82.9223 157.565L83.0372 156.771L79.5155 156.262Z" fill="white"/>
<path d="M80.4842 158.882L80.3694 159.677L82.571 159.995L82.6858 159.2L80.4842 158.882Z" fill="white"/>
<path d="M78.8133 161.12L78.6985 161.915L82.2202 162.424L82.335 161.629L78.8133 161.12Z" fill="white"/>
<path d="M79.784 163.744L79.6692 164.539L81.8708 164.857L81.9856 164.062L79.784 163.744Z" fill="white"/>
<path d="M78.1119 165.983L77.9971 166.777L81.5188 167.286L81.6336 166.492L78.1119 165.983Z" fill="white"/>
<path d="M79.0787 168.601L78.9639 169.396L81.1655 169.714L81.2803 168.919L79.0787 168.601Z" fill="white"/>
<path d="M77.409 170.841L77.2942 171.636L80.8159 172.145L80.9307 171.35L77.409 170.841Z" fill="white"/>
<path d="M78.3775 173.46L78.2627 174.255L80.4643 174.573L80.5791 173.778L78.3775 173.46Z" fill="white"/>
<path d="M76.7088 175.702L76.594 176.497L80.1157 177.006L80.2305 176.211L76.7088 175.702Z" fill="white"/>
<path d="M77.6744 178.321L77.5596 179.115L79.7612 179.433L79.876 178.639L77.6744 178.321Z" fill="white"/>
<path d="M76.0054 180.562L75.8906 181.356L79.4123 181.865L79.5271 181.071L76.0054 180.562Z" fill="white"/>
<path d="M76.972 183.179L76.8572 183.974L79.0588 184.292L79.1736 183.497L76.972 183.179Z" fill="white"/>
<path d="M75.3021 185.423L75.1873 186.218L78.709 186.727L78.8238 185.932L75.3021 185.423Z" fill="white"/>
<path d="M76.272 188.042L76.1572 188.837L78.3588 189.155L78.4737 188.36L76.272 188.042Z" fill="white"/>
<path d="M74.6002 190.281L74.4854 191.075L78.0071 191.584L78.1219 190.789L74.6002 190.281Z" fill="white"/>
<path d="M75.5679 192.901L75.4531 193.695L77.6547 194.013L77.7696 193.219L75.5679 192.901Z" fill="white"/>
<path d="M73.8968 195.141L73.782 195.936L77.3037 196.444L77.4185 195.65L73.8968 195.141Z" fill="white"/>
<path d="M74.8682 197.764L74.7534 198.559L76.955 198.877L77.0699 198.082L74.8682 197.764Z" fill="white"/>
<path d="M73.1942 200L73.0793 200.795L76.6011 201.304L76.7159 200.509L73.1942 200Z" fill="white"/>
<path d="M74.1651 202.623L74.0503 203.418L76.2519 203.736L76.3667 202.941L74.1651 202.623Z" fill="white"/>
<path d="M72.4932 204.862L72.3784 205.656L75.9001 206.165L76.0149 205.37L72.4932 204.862Z" fill="white"/>
<path d="M68.9075 173.421H60.6851V205.992H68.9075V173.421Z" fill="url(#paint5_linear_1_851)"/>
<path d="M68.9075 173.419H60.6829L63.6226 166.58L64.7941 163.854L65.9677 166.58L68.9075 173.419Z" fill="white"/>
<path d="M65.9677 166.58H63.6226L64.794 163.854L65.9677 166.58Z" fill="url(#paint6_linear_1_851)"/>
<path d="M61.047 166.011L51.4846 163.769L42.6065 201.647L52.1689 203.889L61.047 166.011Z" fill="#109CE9"/>
<path d="M61.056 166.01L51.4954 163.768L56.7759 156.617L58.8819 153.765L59.5028 157.257L61.056 166.01Z" fill="white"/>
<path d="M59.5025 157.257L56.7756 156.617L58.8817 153.765L59.5025 157.257Z" fill="#109CE9"/>
<path d="M47.3205 173.048H37.4988V211.953H47.3205V173.048Z" fill="url(#paint7_linear_1_851)"/>
<path d="M84.9026 191.651V265.023C84.9026 268.31 82.2393 270.973 78.9529 270.973H37.31C34.0236 270.973 31.3604 268.31 31.3604 265.023V191.651H84.9026Z" fill="url(#paint8_linear_1_851)"/>
<path d="M84.8632 202.414H31.4022C28.6073 202.414 26.3433 200.148 26.3433 197.355V196.708C26.3433 193.913 28.6095 191.649 31.4022 191.649H84.8632C87.6581 191.649 89.9222 193.916 89.9222 196.708V197.355C89.9222 200.15 87.6581 202.414 84.8632 202.414Z" fill="url(#paint9_linear_1_851)"/>
<path d="M84.9026 218.657H31.3604V256.713H84.9026V218.657Z" fill="url(#paint10_linear_1_851)"/>
<path d="M47.3205 173.047H37.4988L41.0089 164.878L42.4085 161.622L43.8082 164.878L47.3205 173.047Z" fill="white"/>
<path d="M43.8081 164.878H41.0088L42.4084 161.622L43.8081 164.878Z" fill="url(#paint11_linear_1_851)"/>
<path d="M343.917 69.3333V64.1844H337.503C337.048 59.9833 335.497 56.1134 333.146 52.8622L337.27 49.5298L334.034 45.5239L329.688 49.034C326.097 45.8332 321.527 43.7096 316.484 43.1655V36.1826H311.335V43.1655C306.03 43.7381 301.252 46.0614 297.582 49.5407L292.608 45.5239L289.372 49.5298L294.245 53.4655C292.13 56.5873 290.741 60.2422 290.316 64.1844H284.182V69.3333H290.316C290.744 73.3019 292.15 76.9766 294.287 80.1137L289.489 83.988L292.725 87.9939L297.634 84.0275C301.324 87.5069 306.124 89.8191 311.451 90.3676V97.3373H316.6V90.3391C321.624 89.7709 326.171 87.6385 329.743 84.4355L334.15 87.9939L337.386 83.988L333.187 80.5964C335.517 77.3561 337.051 73.5103 337.503 69.3355H343.917V69.3333ZM314.027 81.9653C305.291 81.9653 298.211 74.8837 298.211 66.1501C298.211 57.4143 305.293 50.3349 314.027 50.3349C322.762 50.3349 329.842 57.4165 329.842 66.1501C329.842 74.8859 322.762 81.9653 314.027 81.9653Z" fill="white"/>
<path d="M279.678 84.659V81.3398H275.543C275.251 78.6304 274.251 76.136 272.733 74.0409L275.391 71.8932L273.305 69.3111L270.504 71.5751C268.187 69.5129 265.243 68.1418 261.992 67.7908V63.2891H258.672V67.7886C255.252 68.1571 252.172 69.6555 249.805 71.8998L246.598 69.3089L244.511 71.891L247.653 74.4271C246.288 76.441 245.395 78.7949 245.119 81.3376H241.164V84.6568H245.119C245.395 87.2148 246.301 89.5841 247.679 91.6068L244.586 94.1056L246.672 96.6877L249.838 94.1319C252.216 96.374 255.311 97.8657 258.747 98.219V102.712H262.066V98.1992C265.304 97.8328 268.237 96.4573 270.539 94.3929L273.38 96.6877L275.466 94.1056L272.759 91.9183C274.259 89.8298 275.251 87.3486 275.541 84.6568H279.678V84.659ZM260.408 92.8046C254.776 92.8046 250.211 88.2393 250.211 82.6078C250.211 76.9763 254.776 72.4109 260.408 72.4109C266.039 72.4109 270.605 76.9763 270.605 82.6078C270.605 88.2393 266.039 92.8046 260.408 92.8046Z" fill="white"/>
<path d="M245.751 271.283H149.756C147.183 271.283 145.099 269.196 145.099 266.625C145.099 264.052 147.185 261.968 149.756 261.968H245.751C248.324 261.968 250.408 264.054 250.408 266.625C250.408 269.198 248.322 271.283 245.751 271.283Z" fill="#2D89BC"/>
<path d="M224.08 234.11H171.425V261.967H224.08V234.11Z" fill="url(#paint12_linear_1_851)"/>
<path d="M275.405 235.084H120.1C115.82 235.084 112.352 231.614 112.352 227.336V120.752C112.352 116.471 115.822 113.003 120.1 113.003H275.405C279.685 113.003 283.153 116.474 283.153 120.752V227.334C283.155 231.614 279.685 235.084 275.405 235.084Z" fill="url(#paint13_linear_1_851)"/>
<path d="M274.147 221.39H121.357C118.336 221.39 115.888 218.942 115.888 215.921V121.739C115.888 118.718 118.336 116.27 121.357 116.27H274.147C277.168 116.27 279.617 118.718 279.617 121.739V215.923C279.617 218.942 277.168 221.39 274.147 221.39Z" fill="white"/>
<path d="M201.919 228.723C202.461 226.426 201.039 224.124 198.742 223.582C196.445 223.039 194.143 224.462 193.601 226.759C193.058 229.056 194.481 231.358 196.778 231.9C199.075 232.442 201.376 231.02 201.919 228.723Z" fill="white"/>
<path d="M266.592 129.387H127.594C126.578 129.387 125.753 128.562 125.753 127.547C125.753 126.531 126.578 125.706 127.594 125.706H266.592C267.608 125.706 268.432 126.531 268.432 127.547C268.43 128.562 267.608 129.387 266.592 129.387Z" fill="#E0E0E0"/>
<path d="M266.592 137.124H127.594C126.578 137.124 125.753 136.299 125.753 135.284C125.753 134.268 126.578 133.443 127.594 133.443H266.592C267.608 133.443 268.432 134.268 268.432 135.284C268.43 136.299 267.608 137.124 266.592 137.124Z" fill="#E0E0E0"/>
<path d="M266.592 144.862H127.594C126.578 144.862 125.753 144.037 125.753 143.021C125.753 142.006 126.578 141.181 127.594 141.181H266.592C267.608 141.181 268.432 142.006 268.432 143.021C268.43 144.037 267.608 144.862 266.592 144.862Z" fill="#E0E0E0"/>
<path d="M266.592 152.599H127.594C126.578 152.599 125.753 151.774 125.753 150.759C125.753 149.743 126.578 148.918 127.594 148.918H266.592C267.608 148.918 268.432 149.743 268.432 150.759C268.43 151.777 267.608 152.599 266.592 152.599Z" fill="#E0E0E0"/>
<path d="M166.942 203.272H128.915C127.168 203.272 125.753 201.857 125.753 200.111V162.083C125.753 160.337 127.168 158.922 128.915 158.922H166.942C168.689 158.922 170.104 160.337 170.104 162.083V200.111C170.104 201.857 168.689 203.272 166.942 203.272Z" fill="#E0E0E0"/>
<path d="M266.592 162.603H176.097C175.081 162.603 174.257 161.778 174.257 160.762C174.257 159.747 175.081 158.922 176.097 158.922H266.592C267.608 158.922 268.433 159.747 268.433 160.762C268.43 161.778 267.608 162.603 266.592 162.603Z" fill="#E0E0E0"/>
<path d="M266.592 170.341H176.097C175.081 170.341 174.257 169.516 174.257 168.5C174.257 167.484 175.081 166.659 176.097 166.659H266.592C267.608 166.659 268.433 167.484 268.433 168.5C268.43 169.516 267.608 170.341 266.592 170.341Z" fill="#E0E0E0"/>
<path d="M266.592 178.078H176.097C175.081 178.078 174.257 177.254 174.257 176.238C174.257 175.222 175.081 174.397 176.097 174.397H266.592C267.608 174.397 268.433 175.222 268.433 176.238C268.43 177.254 267.608 178.078 266.592 178.078Z" fill="#E0E0E0"/>
<path d="M266.592 185.816H176.097C175.081 185.816 174.257 184.991 174.257 183.975C174.257 182.96 175.081 182.135 176.097 182.135H266.592C267.608 182.135 268.433 182.96 268.433 183.975C268.43 184.991 267.608 185.816 266.592 185.816Z" fill="#E0E0E0"/>
<path d="M266.592 193.553H176.097C175.081 193.553 174.257 192.728 174.257 191.713C174.257 190.697 175.081 189.872 176.097 189.872H266.592C267.608 189.872 268.433 190.697 268.433 191.713C268.43 192.728 267.608 193.553 266.592 193.553Z" fill="#E0E0E0"/>
<path d="M266.592 201.292H176.097C175.081 201.292 174.257 200.467 174.257 199.451C174.257 198.435 175.081 197.61 176.097 197.61H266.592C267.608 197.61 268.433 198.435 268.433 199.451C268.43 200.469 267.608 201.292 266.592 201.292Z" fill="#E0E0E0"/>
<path d="M360.22 249.245V268.803H249.107C246.571 268.803 244.259 267.833 242.519 266.245C242.017 265.786 241.563 265.278 241.166 264.725C240.613 263.955 240.168 263.103 239.856 262.193C239.687 261.704 239.558 261.195 239.47 260.673C239.378 260.137 239.33 259.587 239.33 259.027C239.33 258.729 239.343 258.433 239.369 258.141C239.415 257.621 239.503 257.114 239.628 256.621C239.856 255.721 240.209 254.87 240.67 254.087C240.988 253.545 241.357 253.036 241.771 252.567C243.564 250.533 246.187 249.247 249.107 249.247H360.22V249.245Z" fill="white"/>
<path d="M239.369 258.139C239.343 258.43 239.33 258.727 239.33 259.025C239.33 259.586 239.376 260.137 239.47 260.67C239.558 261.192 239.689 261.701 239.856 262.191C240.168 263.103 240.613 263.954 241.166 264.722C241.563 265.275 242.017 265.784 242.519 266.243C244.259 267.831 246.574 268.801 249.107 268.801H362.699V271.282H249.107C245.044 271.282 241.436 269.294 239.205 266.243C238.851 265.76 238.533 265.253 238.255 264.722C237.836 263.926 237.5 263.077 237.263 262.191C237.129 261.695 237.028 261.188 236.958 260.67C236.886 260.133 236.848 259.582 236.848 259.025C236.848 258.727 236.859 258.43 236.879 258.139C236.916 257.623 236.987 257.114 237.085 256.618C237.261 255.736 237.533 254.887 237.888 254.084C238.121 253.558 238.391 253.051 238.691 252.564C240.856 249.085 244.715 246.764 249.107 246.764H362.699V249.245H249.107C246.19 249.245 243.564 250.53 241.771 252.564C241.357 253.034 240.988 253.54 240.67 254.084C240.209 254.868 239.856 255.717 239.628 256.618C239.503 257.112 239.415 257.619 239.369 258.139Z" fill="url(#paint14_linear_1_851)"/>
<path d="M360.22 252.562V254.083H240.672C240.99 253.541 241.359 253.032 241.773 252.562H360.22Z" fill="#E5E1E1"/>
<path d="M360.22 256.617V258.138H239.369C239.415 257.618 239.503 257.111 239.628 256.617H360.22Z" fill="#E5E1E1"/>
<path d="M360.22 260.669V262.189H239.856C239.687 261.7 239.558 261.191 239.47 260.669H360.22Z" fill="#E5E1E1"/>
<path d="M360.22 264.724V266.244H242.519C242.017 265.785 241.563 265.276 241.166 264.724H360.22Z" fill="#E5E1E1"/>
<path d="M362.578 239.929C363.37 242.134 364.631 243.737 365.438 244.635H284.43V226.885H365.438C364.886 227.519 363.438 229.269 362.562 231.783C362.492 231.983 362.426 232.189 362.365 232.4C362.214 232.911 362.088 233.451 362.001 234.014C361.968 234.216 361.941 234.423 361.922 234.631C361.88 235.032 361.858 235.447 361.858 235.87C361.858 236.074 361.865 236.278 361.876 236.487C361.893 236.807 361.924 237.132 361.97 237.463C361.974 237.5 361.981 237.54 361.985 237.577C362.009 237.748 362.038 237.915 362.071 238.08C362.152 238.507 362.255 238.918 362.374 239.313C362.437 239.523 362.507 239.729 362.578 239.929Z" fill="white"/>
<path d="M290.945 228.698C290.945 228.698 283.704 234.797 290.945 243.461H365.438V244.634L290.377 245.687C290.377 245.687 281.51 235.089 286.977 228.99C292.446 222.891 290.755 227.86 290.755 227.86H365.436V229.207L290.945 228.698Z" fill="#CECECE"/>
<path d="M287.201 244.634H242.638C242.638 244.634 229.89 238.209 242.638 227.104H288.199C288.199 227.101 279.996 232.764 287.201 244.634Z" fill="url(#paint15_linear_1_851)"/>
<path d="M291.801 246.747H242.87C242.6 246.747 242.339 246.679 242.129 246.554C241.479 246.17 235.775 242.603 235.725 236.044C235.672 229.357 241.471 225.744 242.131 225.353C242.341 225.228 242.603 225.16 242.872 225.16H291.814C292.97 225.16 293.462 226.27 292.54 226.799L291 227.679C290.783 227.802 285.7 230.77 285.744 236.022C285.786 241.083 290.469 243.924 291.005 244.231L292.534 245.111C293.449 245.639 292.953 246.747 291.801 246.747ZM243.717 244.047H284.263C285.184 244.047 285.766 243.296 285.314 242.691C284.057 241.006 283.013 238.786 282.991 236.044C282.967 233.214 284.026 230.934 285.307 229.214C285.759 228.609 285.173 227.861 284.254 227.861H243.715C243.399 227.861 243.098 227.955 242.872 228.12C241.482 229.142 238.437 231.86 238.469 236.022C238.5 240.096 241.497 242.772 242.872 243.786C243.101 243.952 243.403 244.047 243.717 244.047Z" fill="url(#paint16_linear_1_851)"/>
<path d="M362.563 231.783C362.492 231.983 362.427 232.189 362.365 232.4H291.775V231.783H362.563Z" fill="#CECECE"/>
<path d="M362.003 234.014C361.97 234.216 361.944 234.423 361.924 234.631H291.777V234.014H362.003Z" fill="#CECECE"/>
<path d="M361.876 236.487H291.775V235.87H361.858C361.858 236.074 361.865 236.281 361.876 236.487Z" fill="#CECECE"/>
<path d="M362.073 238.079H291.777V237.463H361.972C361.977 237.5 361.983 237.54 361.988 237.577C362.012 237.748 362.04 237.915 362.073 238.079Z" fill="#CECECE"/>
<path d="M362.578 239.929H291.775V239.312H362.376C362.438 239.523 362.508 239.729 362.578 239.929Z" fill="#CECECE"/>
<path d="M368.249 244.042C342.594 244.044 316.94 244.044 291.285 244.046C290.937 244.046 290.603 243.935 290.371 243.739C289.087 242.656 286.608 240.047 286.582 236.024C286.553 231.952 289.1 229.262 290.375 228.174C290.608 227.975 290.941 227.863 291.292 227.863C316.949 227.852 342.607 227.841 368.264 227.832C368.942 227.832 369.493 227.417 369.493 226.904C369.493 226.634 369.495 226.364 369.495 226.094C369.497 225.581 368.944 225.162 368.264 225.162H290.344C290.044 225.162 289.754 225.245 289.53 225.395C288.94 225.787 283.783 229.416 283.829 236.043C283.873 242.539 288.949 246.128 289.528 246.514H289.53C289.754 246.666 290.046 246.749 290.346 246.749H368.247C368.924 246.749 369.475 246.332 369.477 245.821L369.479 244.977C369.479 244.459 368.929 244.042 368.249 244.042Z" fill="url(#paint17_linear_1_851)"/>
<path d="M237.054 223.653H322.933V210.749H237.054C238.024 211.51 241.582 214.494 240.716 218.524C240.178 221.016 238.191 222.789 237.054 223.653Z" fill="white"/>
<path d="M316.027 212.067C316.027 212.067 323.706 216.5 316.027 222.799H237.054V223.652L316.626 224.418C316.626 224.418 326.027 216.711 320.231 212.28C314.432 207.846 316.225 211.459 316.225 211.459H237.054V212.438L316.027 212.067Z" fill="#CECECE"/>
<path d="M319.998 223.652H367.24C367.24 223.652 380.754 218.982 367.24 210.906H318.941C318.939 210.906 327.635 215.022 319.998 223.652Z" fill="url(#paint18_linear_1_851)"/>
<path d="M314.349 224L315.97 223.359C316.536 223.135 321.503 221.071 321.547 217.39C321.593 213.57 316.203 211.414 315.975 211.324L314.343 210.683C313.366 210.299 313.889 209.492 315.113 209.492H366.996C367.282 209.492 367.558 209.54 367.782 209.633C368.484 209.916 374.629 212.544 374.574 217.405C374.519 222.175 368.473 224.768 367.784 225.046C367.56 225.138 367.282 225.187 366.996 225.187H315.124C313.899 225.189 313.375 224.384 314.349 224ZM366.99 223.037C368.449 222.3 371.625 220.354 371.658 217.392C371.693 214.367 368.466 212.39 366.992 211.646C366.753 211.526 366.433 211.458 366.099 211.458H323.122C322.148 211.458 321.527 212.002 322.008 212.443C323.366 213.693 324.489 215.35 324.465 217.407C324.441 219.402 323.333 221.016 322.001 222.24C321.521 222.681 322.139 223.225 323.116 223.225H366.099C366.43 223.225 366.751 223.157 366.99 223.037Z" fill="url(#paint19_linear_1_851)"/>
<path d="M250.789 214.758H308.567V214.31H250.789V214.758Z" fill="#CECECE"/>
<path d="M250.427 216.379H315.149V215.931H250.427V216.379Z" fill="#CECECE"/>
<path d="M250.427 217.729H315.149V217.282H250.427V217.729Z" fill="#CECECE"/>
<path d="M250.427 218.887H315.149V218.439H250.427V218.887Z" fill="#CECECE"/>
<path d="M250.427 220.231H315.149V219.784H250.427V220.231Z" fill="#CECECE"/>
<path d="M232.775 223.898L232.777 224.513C232.777 224.886 233.36 225.188 234.08 225.188H316.664C316.982 225.188 317.289 225.127 317.528 225.019H317.53C318.145 224.736 323.524 222.128 323.572 217.407C323.62 212.589 318.151 209.95 317.528 209.665C317.289 209.555 316.982 209.496 316.664 209.496H234.058C233.336 209.496 232.753 209.799 232.755 210.174C232.755 210.369 232.757 210.567 232.757 210.762C232.759 211.135 233.341 211.438 234.06 211.438C261.259 211.444 288.46 211.453 315.659 211.459C316.032 211.459 316.385 211.541 316.633 211.685C317.985 212.477 320.685 214.432 320.654 217.394C320.626 220.318 317.998 222.216 316.638 223.003C316.39 223.146 316.039 223.227 315.668 223.227C288.471 223.225 261.274 223.225 234.078 223.223C233.358 223.221 232.772 223.525 232.775 223.898Z" fill="url(#paint20_linear_1_851)"/>
<path d="M217.053 85.1398C217.053 85.1398 219.219 85.6312 220.254 86.7281C221.29 87.8229 225.717 97.3813 225.717 97.3813L225.357 97.616L223.646 98.5572L222.378 98.8117L218.466 93.518C218.464 93.5202 215.075 87.3051 217.053 85.1398Z" fill="url(#paint21_linear_1_851)"/>
<path d="M212.626 79.9602C212.556 80.2124 212.398 80.2629 212.199 80.2059C211.99 80.1444 211.736 79.9645 211.494 79.7715C211.025 79.3942 211.683 77.7927 211.494 77.3232C211.306 76.8537 210.647 77.4175 209.281 77.6523C207.916 77.887 208.291 76.6629 206.692 76.6168C205.091 76.5707 205.042 78.6877 205.042 78.6877C204.195 77.8409 203.395 74.7323 204.808 73.4138C206.22 72.0953 207.914 72.9421 209.32 74.1202C210.724 75.2983 211.165 74.1202 211.918 73.9798C212.67 73.8394 213.142 75.0153 213.519 76.0508C213.897 77.0884 212.767 79.4424 212.626 79.9602Z" fill="#062BA3"/>
<path d="M212.199 80.2059C212.199 80.2059 212.014 81.7964 212.014 81.9851C212.014 82.0707 211.946 82.674 211.872 83.3058C211.782 84.0604 211.685 84.8568 211.685 84.8568C208.579 88.9526 206.6 85.0455 206.6 85.0455L206.363 84.418V82.8495C206.049 82.5358 204.911 78.8238 205.045 78.69C205.045 78.69 205.093 76.5708 206.694 76.619C208.296 76.6651 207.918 77.8892 209.283 77.6545C210.648 77.4198 211.308 76.856 211.497 77.3254C211.685 77.7971 211.027 79.3964 211.497 79.7737C211.738 79.9646 211.99 80.1445 212.199 80.2059Z" fill="#FFB681"/>
<path d="M224.962 101.759C224.35 102.655 223.22 102.608 222.749 102.655C222.725 102.657 222.676 102.646 222.606 102.624C221.34 102.218 213.039 97.9335 212.815 97.7119C212.58 97.4772 211.685 97.6658 211.685 97.6658L210.65 96.819C210.65 96.819 209.755 94.8402 210.885 94.1338C212.014 93.4274 212.249 94.4168 212.486 94.2742C212.721 94.1338 212.675 94.1338 213.004 93.8047C213.333 93.4757 213.616 94.2742 214.088 95.2636C214.557 96.253 220.114 98.7934 220.774 98.936C221.09 99.0041 221.764 98.9185 222.378 98.8154C223.045 98.6991 223.646 98.5609 223.646 98.5609L225.357 97.6198L225.294 98.1945C225.291 98.1901 225.574 100.864 224.962 101.759Z" fill="#FFB681"/>
<path d="M222.891 107.363C222.891 107.363 215.957 108.262 210.571 108.477L208.059 99.8929L201.947 100.011L202.151 97.223L203.066 84.7622L206.361 83.1388V84.4178L206.598 85.0452C206.598 85.0452 208.575 88.9524 211.683 84.8565C211.683 84.8565 211.782 84.0602 211.87 83.3055L217.051 85.1395C217.051 85.1395 216.345 86.175 216.534 87.7282C216.722 89.2814 218.276 93.0021 218.464 93.5199C218.653 94.0376 222.376 98.8136 222.376 98.8136C221.762 98.9189 221.088 99.0022 220.772 98.9342C220.112 98.7916 214.557 96.2512 214.085 95.2618C213.614 94.2724 213.333 93.4716 213.002 93.8029C212.673 94.132 212.719 94.132 212.484 94.2724C212.247 94.4128 212.012 93.4256 210.882 94.132C209.753 94.8384 210.648 96.8172 210.648 96.8172L211.683 97.664C211.683 97.664 212.578 97.4753 212.813 97.7101C213.037 97.9338 221.338 102.216 222.604 102.622L222.891 107.363Z" fill="url(#paint22_linear_1_851)"/>
<path d="M203.068 84.7628L202.153 97.2237C201.8 97.4431 201.455 97.555 201.124 97.5879C199.871 97.7085 198.823 96.6972 198.358 96.1553C198.193 95.9623 198.101 95.8306 198.101 95.8306C198.101 95.8306 200.29 87.0466 200.784 86.27C201.278 85.4934 203.068 84.7628 203.068 84.7628Z" fill="url(#paint23_linear_1_851)"/>
<path d="M201.124 97.5856L201.122 97.5966L199.931 100.049L197.074 99.8935L198.358 96.1553C198.821 96.695 199.872 97.7085 201.124 97.5856Z" fill="#FFB681"/>
<path d="M210.955 109.787H197.072L196.337 107.398C197.768 107.56 197.796 106.2 197.45 104.84C197.105 103.478 195.332 104.131 195.332 104.131L194.075 100.049L197.072 99.8929L199.929 100.049L201.947 100.009L208.059 99.8907L210.571 108.475L210.955 109.787Z" fill="#260124"/>
<path d="M196.337 107.399C194.907 107.239 195.333 104.132 195.333 104.132C195.333 104.132 197.105 103.479 197.45 104.841C197.794 106.201 197.768 107.559 196.337 107.399Z" fill="#EAC3C5"/>
<path d="M222.891 107.363C222.891 107.363 222.797 113.295 219.737 114.379C216.676 115.463 213.521 115.134 213.144 115.509C212.769 115.886 210.955 135.189 210.955 135.189H208.248C208.248 135.189 207.034 115.849 206.955 111.507C206.947 111.011 206.953 110.711 206.977 110.658C207.212 110.14 207.684 109.787 207.684 109.787H210.957L210.573 108.475C215.957 108.263 222.891 107.363 222.891 107.363Z" fill="url(#paint24_linear_1_851)"/>
<path d="M207.682 109.787C207.682 109.787 207.21 110.141 206.975 110.658C206.951 110.711 206.947 111.011 206.953 111.507C206.953 111.507 201.089 112.918 200.76 113.341C200.431 113.765 196.945 134.011 196.945 134.011L194.731 133.823C194.731 133.823 194.874 110.845 195.061 110.516C195.249 110.187 196.87 109.145 196.87 109.145L197.068 109.787H207.682Z" fill="url(#paint25_linear_1_851)"/>
<path d="M194.733 133.825L194.593 134.611C194.593 134.611 190.701 137.09 190.513 138.127C190.324 139.163 190.513 139.257 190.513 139.257L196.978 136.541L196.945 134.014L194.733 133.825Z" fill="#172225"/>
<path d="M208.247 135.19V136.131L207.681 139.255V139.757H211.591V139.005L210.884 136.036L210.955 135.19H208.247Z" fill="#172225"/>
<path d="M110.937 264.326V267.036C113.128 265.412 115.388 267.036 115.388 267.036V264.754C113.826 264.969 112.148 264.658 110.937 264.326Z" fill="url(#paint26_linear_1_851)"/>
<path d="M110.437 264.304C110.437 264.304 110.965 264.598 111.755 264.879C112.687 265.21 113.977 265.522 115.177 265.307C115.66 265.221 116.125 265.05 116.548 264.761L122.397 233.347L126.57 256.428V256.431L127.93 263.953C127.93 263.953 128.066 263.958 128.299 263.962C129.148 263.977 131.265 263.993 132.598 263.778C133.022 263.71 133.368 263.618 133.568 263.497L131.144 236.283L129.988 220.654L125.26 219.235L116.053 220.413L113.806 237.698L110.437 264.304Z" fill="url(#paint27_linear_1_851)"/>
<path d="M122.239 186.599C122.358 186.887 122.428 187.192 122.428 187.192L122.614 187.457V191.118C124.393 193.981 126.291 191.261 126.291 191.261L126.151 188.767C126.761 188.828 127.322 188.418 127.322 188.418C128.796 187.437 128.281 181.689 128.281 181.689C128.281 181.689 127.555 181.913 126.032 181.997C124.51 182.078 123.106 181.977 122.823 182.488C122.542 182.999 122.496 183.776 122.496 183.776C122.496 183.776 121.794 183.142 121.443 183.879C121.092 184.616 122.121 186.314 122.239 186.599Z" fill="#FFB681"/>
<path d="M130.214 220.445C130.214 220.445 128.52 222.418 122.825 221.913C117.13 221.406 116.074 220.65 115.811 220.092C115.548 219.535 116.309 216.854 116.309 216.854L120.995 199.251L122.213 191.257C122.472 191.47 122.954 191.801 123.645 191.954C123.983 192.029 124.286 192.042 124.523 192.033C124.681 192.058 125.133 192.104 125.611 191.864C125.995 191.674 126.203 191.395 126.291 191.261C127.381 195.581 128.373 200.44 129.09 205.775C129.801 211.091 130.126 216.014 130.214 220.445Z" fill="url(#paint28_linear_1_851)"/>
<path d="M120.388 183.552C120.787 184.021 121.37 186.007 121.675 186.457C121.98 186.906 122.426 187.194 122.426 187.194C122.426 187.194 122.355 186.887 122.237 186.601C122.121 186.316 121.09 184.618 121.441 183.881C121.792 183.144 122.494 183.778 122.494 183.778C122.494 183.778 122.498 183.708 122.511 183.596C122.542 183.335 122.625 182.848 122.821 182.49C123.086 182.01 124.343 182.071 125.758 182.012C125.848 182.008 125.938 182.003 126.03 181.999C127.553 181.915 128.279 181.692 128.279 181.692C128.279 181.692 129.075 181.242 129.661 179.831C130.247 178.421 128.279 177.949 128.279 177.949C127.888 177.817 127.39 178.05 125.703 179.013C124.016 179.974 120.855 179.443 120.339 179.421C119.824 179.401 120.293 180.138 120.434 180.382C120.574 180.628 120.059 180.832 119.756 181.507C119.451 182.181 119.991 183.082 120.388 183.552Z" fill="#020640"/>
<path d="M111.525 203.501C111.525 203.501 113.563 204.85 114.896 204.444L115.528 204.275L117.062 201.612C117.062 201.612 116.437 205.028 116.186 207.066C118.45 207.542 122.081 208.301 122.401 208.351C122.489 207.704 122.562 207.059 122.612 206.434C123.011 201.511 122.728 198.914 123.011 197.632C123.292 196.351 123.362 194.056 123.257 193.282C123.152 192.505 122.992 191.645 122.992 191.645L122.614 191.121V189.741L121.011 190.147C121.011 190.147 119.712 190.654 118.973 190.889C118.235 191.123 114.828 191.784 114.267 192.433C113.703 193.08 111.314 202.217 111.525 203.501Z" fill="url(#paint29_linear_1_851)"/>
<path d="M115.212 217.191C115.212 217.191 119.462 217.022 120.236 217.393C120.236 217.393 120.412 217.393 120.447 217.393C120.471 217.393 121.333 214.416 121.983 210.937C121.092 210.889 118.725 210.746 116.652 210.557C116.437 210.538 116.226 210.518 116.02 210.498C115.998 211.294 115.971 211.977 115.917 212.301C115.811 212.942 115.776 214.932 115.601 215.706C115.423 216.483 115.212 217.191 115.212 217.191Z" fill="url(#paint30_linear_1_851)"/>
<path d="M121.223 190.092C121.223 190.092 122.134 192.17 122.029 193.89L123.2 192.876L122.994 191.645L122.616 191.121V189.741L121.223 190.092Z" fill="url(#paint31_linear_1_851)"/>
<path d="M110.717 208.794C111.103 209.738 111.77 209.874 113.984 210.244C114.515 210.334 115.23 210.418 116.02 210.497C118.222 210.716 121.002 210.883 121.985 210.935C122.114 210.942 122.213 210.946 122.274 210.951C122.68 210.971 123.297 211.394 123.786 211.769C124.143 212.043 124.433 212.291 124.523 212.335C124.565 212.355 124.652 212.379 124.771 212.405C125.236 212.506 126.168 212.625 126.561 212.572C127.052 212.504 126.982 212.133 126.982 212.133C126.982 212.133 127.649 212.166 127.684 211.594C127.719 211.021 125.014 211.155 125.19 210.894C125.365 210.63 126.208 210.852 126.842 210.885C127.474 210.918 127.86 210.852 128.334 210.514C128.805 210.176 127.509 210.043 126.736 210.043C125.964 210.043 125.471 209.808 125.719 209.672C125.964 209.536 126.561 209.639 127.265 209.503C127.967 209.369 128.564 209.165 128.248 208.862C128.011 208.634 126.03 208.597 125.043 208.592C124.709 208.59 124.49 208.592 124.49 208.592L124.736 207.851C124.736 207.851 123.823 208.154 123.308 208.351C122.792 208.549 122.875 208.423 122.408 208.351C122.088 208.301 118.457 207.542 116.193 207.066C115.147 206.846 114.392 206.688 114.392 206.688L114.824 204.788L114.901 204.446C113.567 204.85 111.529 203.503 111.529 203.503L111.514 203.56C111.507 203.582 111.5 203.61 111.492 203.645C111.485 203.67 111.479 203.694 111.472 203.722L111.446 203.825C111.174 204.841 110.395 208.007 110.717 208.794Z" fill="#FFB681"/>
<path d="M114.388 206.686C114.388 206.686 113.199 206.387 112.613 206.686C112.613 206.686 113.352 205.894 114.388 206.686Z" fill="#CCACB0"/>
<path d="M122.937 208.454C122.937 208.454 122.871 208.603 122.448 208.671C122.026 208.739 119.319 207.907 117.406 207.727C115.493 207.547 114.385 206.688 114.385 206.688L122.399 208.35L122.937 208.454Z" fill="#FFB681"/>
<path d="M111.439 203.819C112.795 205.375 114.817 204.787 114.817 204.787L114.894 204.444C113.56 204.848 111.522 203.501 111.522 203.501L111.507 203.558L111.485 203.644L111.465 203.72L111.439 203.819Z" fill="#FFB681"/>
<path d="M123.303 213.945L125.258 214.292L130.124 215.156L131.896 215.472L133.248 208.801L134.18 204.198L131.453 203.766L126.337 202.956L125.927 202.891L124.733 207.849L124.488 208.59C124.488 208.59 124.707 208.588 125.04 208.59C126.028 208.595 128.009 208.634 128.246 208.86C128.562 209.163 127.965 209.367 127.263 209.501C126.561 209.637 125.962 209.533 125.716 209.67C125.47 209.803 125.962 210.04 126.734 210.04C127.506 210.04 128.805 210.176 128.331 210.512C127.857 210.85 127.471 210.918 126.839 210.883C126.208 210.85 125.363 210.628 125.187 210.891C125.012 211.153 127.717 211.019 127.682 211.591C127.647 212.164 126.98 212.131 126.98 212.131C126.98 212.131 127.05 212.502 126.559 212.57C126.166 212.622 125.236 212.506 124.768 212.403C124.65 212.379 124.564 212.353 124.521 212.333C124.431 212.289 124.141 212.043 123.783 211.767L123.303 213.945Z" fill="#260124"/>
<path d="M126.98 212.133C126.98 212.133 124.966 211.806 124.815 211.64C124.663 211.471 127.193 212.114 127.193 212.114L126.98 212.133Z" fill="#CCACB0"/>
<path d="M126.245 190.449L128 194.596L126.245 194.26L125.787 191.814L126.291 191.263L126.245 190.449Z" fill="url(#paint32_linear_1_851)"/>
<path d="M126.348 202.893C126.348 202.893 126.344 202.915 126.337 202.959L131.453 203.768C132.346 203.071 133.695 202.461 134.487 202.134C134.54 202.112 134.59 202.092 134.638 202.073C134.884 201.974 135.055 201.91 135.11 201.89L135.13 201.884C135.13 201.884 133.079 196.581 132.015 193.995C131.771 193.405 131.58 192.957 131.477 192.744C130.916 191.597 126.227 190.151 126.227 190.151L126.245 190.454L126.519 191.101L128 194.6L126.245 194.263L126.137 193.683L126.348 202.893Z" fill="url(#paint33_linear_1_851)"/>
<path d="M125.26 214.294V215.979C126.772 218.339 130.214 216.349 130.214 216.349L130.126 215.158L125.26 214.294Z" fill="url(#paint34_linear_1_851)"/>
<path d="M133.342 208.352L133.25 208.803C133.305 208.922 133.346 209.003 133.362 209.032C133.478 209.24 135.632 209.751 136.569 209.183C137.506 208.615 142.19 200.735 142.821 199.903C143.403 199.14 143.984 197.692 144.182 197.321C144.182 197.319 144.184 197.319 144.184 197.317C144.201 197.286 144.212 197.266 144.223 197.251C144.223 197.249 144.226 197.249 144.226 197.249C144.366 197.069 146.239 195.921 146.895 195.248C147.551 194.574 147.457 194.258 147.457 194.258C148.043 193.809 147.481 193.021 147.481 193.021C148.137 192.46 147.951 191.56 147.67 191.47C147.389 191.38 145.75 193.719 145.772 193.427C145.796 193.135 145.842 192.304 145.866 191.815C145.891 191.325 145.445 191.134 145.397 191.336C145.351 191.538 145.211 192.506 145.092 193.146C144.976 193.787 143.875 194.664 143.64 194.866C143.405 195.068 143.429 194.506 143.289 193.888C143.148 193.269 142.258 193.146 142.258 193.146C142.258 193.146 142.258 194.057 142.503 194.73C142.749 195.406 142.293 196.213 141.45 197.665C140.608 199.116 136.216 203.872 135.9 204.038C135.584 204.207 134.636 202.071 134.636 202.071C133.877 202.378 132.403 203.023 131.451 203.766L134.178 204.199L133.342 208.352Z" fill="#FFB681"/>
<path d="M133.25 208.801C133.305 208.919 133.347 209 133.362 209.029C133.478 209.237 135.632 209.749 136.569 209.18C137.506 208.612 142.19 200.732 142.822 199.9C143.403 199.137 143.984 197.689 144.182 197.318C143.589 198.273 137.252 208.461 136.146 208.671C134.987 208.893 133.338 208.347 133.338 208.347L133.25 208.801Z" fill="#FFB681"/>
<path d="M132.285 195.509C132.601 196.182 132.495 196.555 132.741 197.668C132.987 198.78 134.487 202.134 134.487 202.134L135.11 201.891L135.13 201.884C135.13 201.884 133.079 196.582 132.015 193.995C132.015 194.021 131.975 194.844 132.285 195.509Z" fill="url(#paint35_linear_1_851)"/>
<path d="M130.214 203.571C130.214 203.571 129.136 202.691 128.744 200.734C128.351 198.777 128.434 197.7 128.434 197.7C128.434 197.7 129.757 202.119 130.389 202.658C131.021 203.198 131.161 203.768 131.161 203.768L130.214 203.571Z" fill="url(#paint36_linear_1_851)"/>
<path d="M121.008 208.041C121.008 208.041 120.973 207.276 121.008 206.196C121.043 205.117 122.823 202.555 122.823 202.555C122.823 202.555 122.583 207.701 122.401 208.349L121.008 208.041Z" fill="url(#paint37_linear_1_851)"/>
<path d="M114.802 204.47C114.802 204.47 115.212 203.141 115.868 201.544C116.524 199.947 116.338 199.093 116.735 198.597C117.132 198.104 117.766 199.339 117.812 200.936C117.858 202.533 116.188 207.063 116.188 207.063L117.064 201.61L115.53 204.273L114.802 204.47Z" fill="url(#paint38_linear_1_851)"/>
<path d="M115.212 217.192C115.212 217.192 116.149 216.832 116.307 216.426C116.465 216.022 116.454 215.638 116.992 214.987C117.531 214.335 117.694 213.57 117.132 212.468C116.57 211.367 116.649 210.555 116.649 210.555L116.018 210.496C115.996 211.292 115.969 211.975 115.914 212.299C115.809 212.94 115.774 214.93 115.599 215.704C115.423 216.483 115.212 217.192 115.212 217.192Z" fill="url(#paint39_linear_1_851)"/>
<path d="M122.397 233.345L126.57 256.426C126.572 256.294 126.658 246.571 125.611 242.805C124.558 239.012 122.555 223.633 122.555 223.633L122.397 233.345Z" fill="url(#paint40_linear_1_851)"/>
<path d="M128.298 263.959L128.825 267.441C129.878 267.948 132.829 266.987 132.829 266.987L132.596 263.777C131.264 263.988 129.147 263.975 128.298 263.959Z" fill="url(#paint41_linear_1_851)"/>
<path d="M127.719 267.65V271.72C127.719 272.097 128.026 272.404 128.404 272.404H139.638C140.059 272.404 140.382 272.029 140.314 271.612C140.158 270.663 139.739 269.175 138.627 269.039C137.115 268.855 134.858 268.048 133.761 266.775C133.583 266.569 133.307 266.481 133.048 266.564C132.056 266.88 129.665 267.547 128.674 267.021C128.219 266.83 127.719 267.161 127.719 267.65Z" fill="#172225"/>
<path d="M115.583 267.078C115.583 267.078 112.793 264.811 110.259 267.078L109.927 268.547C109.927 268.547 108.256 268.977 107.266 270.73V272.404L115.932 272.172L115.583 267.078Z" fill="#172225"/>
<defs>
<linearGradient id="paint0_linear_1_851" x1="290.944" y1="133.172" x2="316.062" y2="191.231" gradientUnits="userSpaceOnUse">
<stop stop-color="#4CD6F7"/>
<stop offset="1" stop-color="#13A9DB"/>
</linearGradient>
<linearGradient id="paint1_linear_1_851" x1="117.556" y1="59.6436" x2="157.093" y2="156.614" gradientUnits="userSpaceOnUse">
<stop stop-color="#4CD6F7"/>
<stop offset="1" stop-color="#13A9DB"/>
</linearGradient>
<linearGradient id="paint2_linear_1_851" x1="149.103" y1="144.46" x2="141.195" y2="121.57" gradientUnits="userSpaceOnUse">
<stop stop-color="#4CD6F7"/>
<stop offset="1" stop-color="#13A9DB"/>
</linearGradient>
<linearGradient id="paint3_linear_1_851" x1="148.639" y1="144.62" x2="140.731" y2="121.73" gradientUnits="userSpaceOnUse">
<stop stop-color="#4CD6F7"/>
<stop offset="1" stop-color="#13A9DB"/>
</linearGradient>
<linearGradient id="paint4_linear_1_851" x1="121.989" y1="82.0112" x2="121.987" y2="82.0054" gradientUnits="userSpaceOnUse">
<stop stop-color="#4CD6F7"/>
<stop offset="1" stop-color="#13A9DB"/>
</linearGradient>
<linearGradient id="paint5_linear_1_851" x1="61.7895" y1="156.645" x2="66.8493" y2="212.303" gradientUnits="userSpaceOnUse">
<stop stop-color="#13A9DB"/>
<stop offset="1" stop-color="#4CD6F7"/>
</linearGradient>
<linearGradient id="paint6_linear_1_851" x1="63.6231" y1="165.217" x2="65.9671" y2="165.217" gradientUnits="userSpaceOnUse">
<stop stop-color="#13A9DB"/>
<stop offset="1" stop-color="#4CD6F7"/>
</linearGradient>
<linearGradient id="paint7_linear_1_851" x1="38.8195" y1="153.011" x2="44.863" y2="219.49" gradientUnits="userSpaceOnUse">
<stop stop-color="#13A9DB"/>
<stop offset="1" stop-color="#4CD6F7"/>
</linearGradient>
<linearGradient id="paint8_linear_1_851" x1="128.97" y1="231.9" x2="-1.50183" y2="230.768" gradientUnits="userSpaceOnUse">
<stop stop-color="#13A9DB"/>
<stop offset="1" stop-color="#4CD6F7"/>
</linearGradient>
<linearGradient id="paint9_linear_1_851" x1="34.6871" y1="197.639" x2="151.191" y2="194.627" gradientUnits="userSpaceOnUse">
<stop stop-color="#FE7A94"/>
<stop offset="1" stop-color="#F83F80"/>
</linearGradient>
<linearGradient id="paint10_linear_1_851" x1="48.4016" y1="237.806" x2="162.001" y2="236.39" gradientUnits="userSpaceOnUse">
<stop stop-color="#FE7A94"/>
<stop offset="1" stop-color="#F83F80"/>
</linearGradient>
<linearGradient id="paint11_linear_1_851" x1="41.0094" y1="163.25" x2="43.8091" y2="163.25" gradientUnits="userSpaceOnUse">
<stop stop-color="#13A9DB"/>
<stop offset="1" stop-color="#4CD6F7"/>
</linearGradient>
<linearGradient id="paint12_linear_1_851" x1="196.61" y1="231.459" x2="199.472" y2="272.968" gradientUnits="userSpaceOnUse">
<stop stop-color="#13A9DB"/>
<stop offset="1" stop-color="#4CD6F7"/>
</linearGradient>
<linearGradient id="paint13_linear_1_851" x1="157.218" y1="41.0462" x2="272.719" y2="420.012" gradientUnits="userSpaceOnUse">
<stop stop-color="#4CD6F7"/>
<stop offset="1" stop-color="#13A9DB"/>
</linearGradient>
<linearGradient id="paint14_linear_1_851" x1="236.849" y1="259.024" x2="362.701" y2="259.024" gradientUnits="userSpaceOnUse">
<stop stop-color="#FE7A94"/>
<stop offset="1" stop-color="#F83F80"/>
</linearGradient>
<linearGradient id="paint15_linear_1_851" x1="254.013" y1="235.244" x2="181.542" y2="231.281" gradientUnits="userSpaceOnUse">
<stop stop-color="#0097CC"/>
<stop offset="1" stop-color="#057DB9"/>
</linearGradient>
<linearGradient id="paint16_linear_1_851" x1="214.84" y1="249.649" x2="223.521" y2="247.384" gradientUnits="userSpaceOnUse">
<stop stop-color="#0097CC"/>
<stop offset="1" stop-color="#057DB9"/>
</linearGradient>
<linearGradient id="paint17_linear_1_851" x1="283.831" y1="235.953" x2="369.497" y2="235.953" gradientUnits="userSpaceOnUse">
<stop stop-color="#0097CC"/>
<stop offset="1" stop-color="#057DB9"/>
</linearGradient>
<linearGradient id="paint18_linear_1_851" x1="302.365" y1="218.435" x2="442.023" y2="214.471" gradientUnits="userSpaceOnUse">
<stop stop-color="#FE7A94"/>
<stop offset="1" stop-color="#F83F80"/>
</linearGradient>
<linearGradient id="paint19_linear_1_851" x1="313.833" y1="217.342" x2="374.573" y2="217.342" gradientUnits="userSpaceOnUse">
<stop stop-color="#FE7A94"/>
<stop offset="1" stop-color="#F83F80"/>
</linearGradient>
<linearGradient id="paint20_linear_1_851" x1="232.755" y1="217.341" x2="323.57" y2="217.341" gradientUnits="userSpaceOnUse">
<stop stop-color="#FE7A94"/>
<stop offset="1" stop-color="#F83F80"/>
</linearGradient>
<linearGradient id="paint21_linear_1_851" x1="211.533" y1="60.8385" x2="229.331" y2="120.447" gradientUnits="userSpaceOnUse">
<stop stop-color="#0097CC"/>
<stop offset="1" stop-color="#057DB9"/>
</linearGradient>
<linearGradient id="paint22_linear_1_851" x1="204.726" y1="75.0594" x2="219.133" y2="122.238" gradientUnits="userSpaceOnUse">
<stop stop-color="#FE7A94"/>
<stop offset="1" stop-color="#F83F80"/>
</linearGradient>
<linearGradient id="paint23_linear_1_851" x1="191.573" y1="60.1154" x2="209.371" y2="119.724" gradientUnits="userSpaceOnUse">
<stop stop-color="#0097CC"/>
<stop offset="1" stop-color="#057DB9"/>
</linearGradient>
<linearGradient id="paint24_linear_1_851" x1="220.134" y1="72.4644" x2="207.361" y2="162.94" gradientUnits="userSpaceOnUse">
<stop offset="1.4e-07" stop-color="#5C388E"/>
<stop offset="1" stop-color="#452676"/>
</linearGradient>
<linearGradient id="paint25_linear_1_851" x1="206.954" y1="70.6039" x2="194.181" y2="161.079" gradientUnits="userSpaceOnUse">
<stop offset="1.4e-07" stop-color="#5C388E"/>
<stop offset="1" stop-color="#452676"/>
</linearGradient>
<linearGradient id="paint26_linear_1_851" x1="110.936" y1="265.681" x2="115.387" y2="265.681" gradientUnits="userSpaceOnUse">
<stop stop-color="#FE7A94"/>
<stop offset="1" stop-color="#F83F80"/>
</linearGradient>
<linearGradient id="paint27_linear_1_851" x1="124.663" y1="270.971" x2="116.551" y2="219.055" gradientUnits="userSpaceOnUse">
<stop offset="1.4e-07" stop-color="#5C388E"/>
<stop offset="1" stop-color="#452676"/>
</linearGradient>
<linearGradient id="paint28_linear_1_851" x1="130.213" y1="206.626" x2="115.755" y2="206.626" gradientUnits="userSpaceOnUse">
<stop stop-color="#FE7A94"/>
<stop offset="1" stop-color="#F83F80"/>
</linearGradient>
<linearGradient id="paint29_linear_1_851" x1="117.762" y1="190.179" x2="116.144" y2="230.244" gradientUnits="userSpaceOnUse">
<stop stop-color="#0097CC"/>
<stop offset="1" stop-color="#057DB9"/>
</linearGradient>
<linearGradient id="paint30_linear_1_851" x1="119.458" y1="208.102" x2="116.336" y2="225.954" gradientUnits="userSpaceOnUse">
<stop stop-color="#0097CC"/>
<stop offset="1" stop-color="#057DB9"/>
</linearGradient>
<linearGradient id="paint31_linear_1_851" x1="123.462" y1="201.374" x2="121.979" y2="189.647" gradientUnits="userSpaceOnUse">
<stop stop-color="#0097CC"/>
<stop offset="1" stop-color="#057DB9"/>
</linearGradient>
<linearGradient id="paint32_linear_1_851" x1="127.417" y1="188.587" x2="126.34" y2="198.078" gradientUnits="userSpaceOnUse">
<stop stop-color="#0097CC"/>
<stop offset="1" stop-color="#057DB9"/>
</linearGradient>
<linearGradient id="paint33_linear_1_851" x1="130.582" y1="193.373" x2="130.852" y2="216.444" gradientUnits="userSpaceOnUse">
<stop stop-color="#0097CC"/>
<stop offset="1" stop-color="#057DB9"/>
</linearGradient>
<linearGradient id="paint34_linear_1_851" x1="128.186" y1="221.759" x2="127.172" y2="209.045" gradientUnits="userSpaceOnUse">
<stop stop-color="#0097CC"/>
<stop offset="1" stop-color="#057DB9"/>
</linearGradient>
<linearGradient id="paint35_linear_1_851" x1="132.319" y1="190.087" x2="135.09" y2="207.926" gradientUnits="userSpaceOnUse">
<stop stop-color="#0097CC"/>
<stop offset="1" stop-color="#057DB9"/>
</linearGradient>
<linearGradient id="paint36_linear_1_851" x1="128.466" y1="192.743" x2="131.239" y2="210.596" gradientUnits="userSpaceOnUse">
<stop stop-color="#0097CC"/>
<stop offset="1" stop-color="#057DB9"/>
</linearGradient>
<linearGradient id="paint37_linear_1_851" x1="123.439" y1="193.57" x2="120.47" y2="217.118" gradientUnits="userSpaceOnUse">
<stop stop-color="#0097CC"/>
<stop offset="1" stop-color="#057DB9"/>
</linearGradient>
<linearGradient id="paint38_linear_1_851" x1="118.48" y1="195.039" x2="115.172" y2="207.326" gradientUnits="userSpaceOnUse">
<stop stop-color="#0097CC"/>
<stop offset="1" stop-color="#057DB9"/>
</linearGradient>
<linearGradient id="paint39_linear_1_851" x1="118.424" y1="198.897" x2="115.454" y2="222.461" gradientUnits="userSpaceOnUse">
<stop stop-color="#0097CC"/>
<stop offset="1" stop-color="#057DB9"/>
</linearGradient>
<linearGradient id="paint40_linear_1_851" x1="129.001" y1="272.473" x2="124.823" y2="243.41" gradientUnits="userSpaceOnUse">
<stop offset="1.4e-07" stop-color="#5C388E"/>
<stop offset="1" stop-color="#452676"/>
</linearGradient>
<linearGradient id="paint41_linear_1_851" x1="128.299" y1="265.681" x2="132.829" y2="265.681" gradientUnits="userSpaceOnUse">
<stop stop-color="#FE7A94"/>
<stop offset="1" stop-color="#F83F80"/>
</linearGradient>
</defs>
</svg>
