<svg width="200" height="93" viewBox="0 0 200 93" fill="none" xmlns="http://www.w3.org/2000/svg">
<g id="Logo">
<path id="Vector" d="M98.2278 76.1515C98.2412 81.4436 98.247 86.7358 98.2739 92.0279C98.2758 92.5303 98.1201 92.7383 97.6165 92.6786C97.3954 92.6516 97.1686 92.6747 96.9437 92.6747C69.9084 92.6747 42.8732 92.6747 15.836 92.6747C15.4439 92.6747 15.0536 92.6747 14.6615 92.6747C14.6596 92.5823 14.6576 92.4899 14.6576 92.3975C15.836 92.3051 17.0144 92.2089 18.1927 92.1222C21.1012 91.9085 23.9923 91.5505 26.8277 90.869C32.0718 89.61 36.6122 86.9995 40.6664 83.492C47.9846 77.1564 52.1848 69.0055 54.0764 59.6591C56.4831 47.7677 55.6661 36.0957 50.5855 24.9609C47.1388 17.4068 42.1196 11.0866 34.9168 6.7224C30.6935 4.16393 26.03 2.8433 21.2031 2.04823C19.2481 1.72481 17.2739 1.51305 15.3074 1.24931C15.1805 1.23198 15.0517 1.22428 14.9268 1.20118C14.7326 1.16653 14.5288 1.10878 14.5634 0.856586C14.5942 0.633273 14.8037 0.696804 14.9498 0.687178C15.1421 0.673703 15.3343 0.683327 15.5265 0.683327C34.2651 0.683327 53.0056 0.689101 71.7442 0.664075C72.6208 0.66215 72.8438 0.881614 72.8438 1.76331C72.8188 26.0794 72.8226 50.3955 72.8265 74.7115C72.8265 75.1273 72.8611 75.5413 72.8803 75.9571C73.1936 76.2978 73.6031 76.1419 73.9683 76.1419C82.0535 76.1515 90.1407 76.1496 98.2278 76.1515Z" fill="white"/>
<path id="Vector_2" d="M0.021189 47.3604C0.021189 38.2835 0.034645 29.2066 4.35486e-05 20.1317C-0.00380106 19.2634 0.246097 19.069 1.07461 19.0806C5.77656 19.1479 10.4939 18.9227 15.1593 19.7332C19.3115 20.4532 23.3291 21.5736 26.8777 23.9723C31.2855 26.9523 34.2593 31.0644 35.8837 36.0639C38.4884 44.0877 38.6345 52.2117 35.9259 60.2356C34.0901 65.674 30.8645 70.1306 25.6147 72.8277C23.1657 74.0848 20.4937 74.6161 17.7967 74.9877C12.224 75.7558 6.61468 75.5383 1.01502 75.598C0.217263 75.6057 0.00196562 75.3958 0.00581022 74.5911C0.0327224 65.5123 0.021189 56.4373 0.021189 47.3604Z" fill="white"/>
<path id="Vector_3" d="M139.77 31.2873C139.64 34.8545 137.385 37.9598 133.861 39.1514C130.328 40.345 126.743 40.3122 123.239 39.0012C120.469 37.9655 118.675 35.9403 117.691 33.0257C119.636 33.0257 121.482 33.0315 123.325 33.0199C123.662 33.018 123.833 33.2394 124.048 33.428C126.143 35.2665 130.495 35.5129 132.791 33.9247C134.2 32.9506 134.757 31.4086 134.553 29.058C134.413 28.9772 134.315 29.0657 134.217 29.1427C129.598 32.8082 123.619 32.0785 119.973 27.4756C116.793 23.4637 116.741 15.6073 121.293 11.5877C125.067 8.2553 130.743 8.35155 134.423 11.9419C134.534 12.2403 134.698 12.2153 134.74 11.9361C134.797 11.5607 134.801 11.168 134.765 10.7887C134.701 10.1265 134.944 9.87624 135.624 9.90897C136.676 9.9571 137.735 9.9725 138.784 9.90512C139.605 9.85314 139.794 10.1592 139.792 10.9389C139.759 17.7249 139.77 24.5071 139.77 31.2873ZM129.081 26.4803C132.535 26.4842 134.953 23.918 134.934 20.2661C134.915 16.6892 132.495 14.1731 129.056 14.1596C125.58 14.1461 123.07 16.7065 123.068 20.2661C123.068 23.8641 125.594 26.4765 129.081 26.4803Z" fill="white"/>
<path id="Vector_4" d="M80.9847 16.8601C80.9847 12.2764 81.002 7.69269 80.9674 3.109C80.9616 2.38901 81.1443 2.18688 81.869 2.20613C85.4464 2.30623 89.0238 2.13875 92.605 2.52762C99.5676 3.28226 102.853 8.61482 103.808 13.3025C104.681 17.5781 104.325 21.7421 102.047 25.5616C99.954 29.073 96.8303 30.9942 92.7242 31.3022C89.0488 31.5775 85.3676 31.4274 81.6902 31.5025C80.9251 31.5179 80.9809 31.1174 80.9809 30.6111C80.9886 26.0274 80.9847 21.4438 80.9847 16.8601ZM86.5479 7.64456C86.2211 7.8313 86.3326 8.15087 86.3326 8.42038C86.3268 14.0436 86.3268 19.6669 86.3326 25.2901C86.3326 25.5596 86.223 25.8792 86.5479 26.0659C88.0184 26.0679 89.4909 26.1333 90.9576 26.0582C95.1578 25.8407 97.5569 23.7905 98.3585 19.7689C98.7391 17.8631 98.716 15.9476 98.2412 14.0571C97.4204 10.7844 95.4404 8.6899 92.0802 7.96606C90.2483 7.57141 88.4029 7.58296 86.5479 7.64456Z" fill="white"/>
<path id="Vector_5" d="M188.596 31.4522C187.125 31.4637 185.653 31.4464 184.184 31.4984C183.567 31.5195 183.311 31.3559 183.388 30.711C183.438 30.2836 183.398 29.8447 183.398 29.2768C183.167 29.4327 183.059 29.4866 182.977 29.5636C179.03 33.2945 173.152 32.5841 169.557 28.9052C165.182 24.4294 165.234 15.0772 170.934 10.9613C174.422 8.44132 179.201 8.56452 182.577 11.3559C182.844 11.5773 183.121 11.7852 183.392 11.9989C183.419 12.0162 183.444 12.0451 183.473 12.049C183.496 12.0528 183.548 12.0316 183.548 12.0182C183.567 11.6081 183.623 11.1923 183.586 10.788C183.527 10.12 183.773 9.87553 184.451 9.91018C185.441 9.96023 186.441 9.9814 187.427 9.9044C188.336 9.83317 188.621 10.1085 188.615 11.0556C188.576 17.857 188.596 24.6546 188.596 31.4522ZM183.636 20.5098C183.694 18.7272 183.157 17.1524 181.918 15.8665C179.38 13.2348 174.94 13.6584 172.9 16.7077C171.408 18.9351 171.462 22.4369 173.019 24.6084C174.509 26.6856 176.891 27.5288 179.374 26.8569C182.01 26.1427 183.644 23.7094 183.636 20.5098Z" fill="white"/>
<path id="Vector_6" d="M161.846 62.998C161.623 63.3753 161.714 63.7007 161.714 64.0087C161.706 67.4719 161.694 70.9352 161.721 74.3966C161.727 75.0184 161.558 75.2109 160.922 75.2109C158.79 75.2147 158.79 75.2417 158.79 73.1395C158.79 63.6814 158.801 54.2214 158.771 44.7633C158.767 43.8797 158.917 43.5313 159.897 43.5775C161.706 43.6641 161.71 43.6006 161.71 45.3928C161.71 46.0955 161.71 46.8001 161.71 47.832C164.253 44.5708 167.348 42.896 171.296 43.0307C175.256 43.1674 178.332 44.9635 180.629 48.1092C184.266 53.0914 183.389 59.9987 178.701 64.3841C175.051 67.7992 167.344 69.2045 161.846 62.998ZM179.816 55.0858C179.795 49.8091 175.731 45.7105 170.541 45.7336C165.468 45.7548 161.504 49.9303 161.527 55.2302C161.55 60.5858 165.512 64.6074 170.756 64.5978C175.727 64.5862 179.837 60.2701 179.816 55.0858Z" fill="white"/>
<path id="Vector_7" d="M113.335 55.1718C110.196 55.1718 107.059 55.1988 103.922 55.1545C103.08 55.143 102.911 55.4105 102.997 56.2114C103.562 61.3976 107.282 64.859 112.199 64.5702C115.482 64.3777 118.001 62.7779 119.731 59.9519C120.423 58.8218 120.444 58.8334 121.609 59.4456C122.97 60.1598 122.941 60.1425 122.143 61.5362C117.806 69.1231 107.557 68.4281 103.426 64.0427C97.5762 57.8343 99.1467 47.4367 106.776 44.0678C114.523 40.6469 123.154 45.5058 123.65 54.1958C123.698 55.0409 123.427 55.2007 122.653 55.1911C119.548 55.1468 116.442 55.1718 113.335 55.1718ZM103.303 52.6076C103.431 52.6288 103.495 52.6499 103.556 52.6499C107.589 52.6538 111.624 52.6557 115.657 52.6576C117.034 52.6576 118.41 52.6461 119.786 52.6634C120.273 52.6692 120.4 52.5402 120.242 52.0493C119.965 51.1926 119.679 50.3398 119.169 49.5967C117.074 46.5396 114.066 45.3884 110.515 45.8273C106.728 46.2951 104.262 48.7304 103.303 52.6076Z" fill="white"/>
<path id="Vector_8" d="M149.177 47.7748C149.177 46.4369 149.192 45.3588 149.169 44.2827C149.159 43.811 149.277 43.6166 149.803 43.5915C152.098 43.4818 152.097 43.4626 152.097 45.7842C152.097 52.4547 152.083 59.1253 152.114 65.7938C152.118 66.5658 151.897 66.7583 151.151 66.7429C149.175 66.7025 149.175 66.7371 149.175 64.7062C149.175 64.1767 149.175 63.6454 149.175 62.7945C146.17 66.279 142.606 67.7286 138.339 67.2088C135.276 66.8353 132.797 65.326 130.851 62.9543C126.82 58.0395 127.199 50.8781 131.711 46.4503C134.2 44.0074 137.195 42.8793 140.67 43.0429C144.175 43.2084 146.912 44.8409 149.177 47.7748ZM149.378 55.2519C149.38 49.8462 145.474 45.7438 140.315 45.7342C135.196 45.7226 131.126 49.8558 131.124 55.0652C131.122 60.3496 135.186 64.5983 140.247 64.5983C145.44 64.5983 149.376 60.5691 149.378 55.2519Z" fill="white"/>
<path id="Vector_9" d="M161.326 14.3813C161.324 19.7716 161.308 25.1619 161.339 30.5503C161.343 31.2915 161.172 31.5475 160.401 31.5033C159.188 31.434 157.965 31.4455 156.75 31.5013C156.083 31.5321 155.895 31.3493 155.899 30.662C155.93 25.5932 155.899 20.5244 155.933 15.4555C155.939 14.6354 155.812 14.2831 154.872 14.3313C153.162 14.4198 153.158 14.3544 153.158 12.668C153.158 11.8979 153.187 11.126 153.148 10.3578C153.123 9.83999 153.323 9.69946 153.813 9.71486C154.478 9.73411 155.393 9.93625 155.749 9.59165C156.224 9.13155 155.899 8.20172 155.908 7.47595C155.932 5.80881 155.935 4.13974 155.905 2.47067C155.895 1.95666 156.057 1.81613 156.556 1.82768C157.902 1.85848 159.248 1.87003 160.591 1.82383C161.195 1.80266 161.343 1.99324 161.335 2.57847C161.304 4.95214 161.324 7.3258 161.326 9.69946C161.985 10.1769 162.738 9.9093 163.434 9.89582C164.219 9.88234 164.44 10.1557 164.384 10.8911C164.33 11.6207 164.32 12.3619 164.386 13.0915C164.461 13.9174 164.213 14.2215 163.338 14.1869C162.679 14.1599 161.952 13.8981 161.326 14.3813Z" fill="white"/>
<path id="Vector_10" d="M199.127 16.4672C199.127 21.1799 199.11 25.8926 199.145 30.6052C199.151 31.3329 198.954 31.5408 198.236 31.5043C196.99 31.4426 195.738 31.4542 194.491 31.5023C193.868 31.5254 193.664 31.3502 193.68 30.7111C193.722 29.0459 193.695 27.3768 193.695 25.7097C193.695 17.9515 193.709 10.1914 193.676 2.43316C193.672 1.62846 193.872 1.3859 194.675 1.43595C195.823 1.5091 196.982 1.50333 198.132 1.43788C198.914 1.3936 199.154 1.60536 199.149 2.42546C199.106 7.1054 199.127 11.7853 199.127 16.4672Z" fill="white"/>
<path id="Vector_11" d="M81.3919 51.125C81.3919 46.2506 81.4112 41.3743 81.3727 36.4999C81.367 35.6798 81.613 35.4815 82.3973 35.4969C84.5695 35.5393 84.5714 35.5046 84.5714 37.6376C84.5714 45.9445 84.583 54.2513 84.5541 62.5563C84.5522 63.3725 84.7214 63.6593 85.6018 63.6439C88.9639 63.5881 92.326 63.642 95.6881 63.6035C96.4051 63.5958 96.6127 63.7864 96.605 64.5102C96.5839 66.7241 96.6146 66.7241 94.4155 66.7241C90.4441 66.7241 86.4726 66.701 82.503 66.7415C81.6591 66.7492 81.3593 66.574 81.3689 65.6499C81.4189 60.8102 81.3919 55.9685 81.3919 51.125Z" fill="white"/>
<path id="Vector_12" d="M192.982 67.2738C190.581 67.2603 188.484 66.4614 186.707 64.825C186.277 64.4285 186.15 64.105 186.652 63.6507C187.125 63.2233 187.451 62.4591 187.974 62.3128C188.57 62.1472 188.926 63.0077 189.42 63.3793C191.657 65.0503 194.327 65.0079 196.058 63.231C197.622 61.6217 197.472 59.2307 195.712 57.835C194.652 56.9956 193.445 56.3988 192.271 55.7501C190.585 54.8183 188.862 53.8866 187.949 52.0808C186.817 49.8458 186.875 47.576 188.363 45.5335C189.927 43.3851 192.182 42.7074 194.745 43.1464C196.673 43.4756 198.191 44.6152 199.608 45.8974C199.679 45.9609 199.798 46.0552 199.787 46.113C199.612 46.985 198.797 47.3585 198.291 47.9726C197.957 48.3788 197.741 47.9206 197.532 47.732C196.625 46.9042 195.654 46.1977 194.439 45.8743C192.799 45.4353 191.104 46.0879 190.296 47.5067C189.56 48.7985 189.908 50.3848 191.208 51.5668C192.259 52.5236 193.532 53.1435 194.766 53.8173C195.721 54.339 196.65 54.9011 197.495 55.5903C199.72 57.398 200.51 59.9526 199.675 62.6343C198.897 65.1369 196.407 67.089 193.751 67.2718C193.495 67.2892 193.238 67.2738 192.982 67.2738Z" fill="white"/>
<path id="Vector_13" d="M113.71 20.7072C113.71 24.0088 113.687 27.3104 113.727 30.6119C113.737 31.3435 113.531 31.5398 112.818 31.5032C111.605 31.4416 110.385 31.4416 109.172 31.5032C108.451 31.5398 108.26 31.33 108.264 30.6042C108.297 25.4122 108.282 20.2182 108.282 15.0262C108.282 13.5189 108.312 12.0115 108.268 10.508C108.249 9.86307 108.46 9.69174 109.081 9.71291C110.36 9.75912 111.644 9.76297 112.92 9.71099C113.562 9.68596 113.725 9.89195 113.722 10.5138C113.697 13.9116 113.71 17.3094 113.71 20.7072Z" fill="white"/>
<path id="Vector_14" d="M150.147 31.4509C148.481 31.4509 146.814 31.4509 145.147 31.4509C145.147 28.5016 145.147 25.5523 145.149 22.605C145.149 18.6951 145.17 14.7833 145.132 10.8734C145.124 10.0995 145.363 9.86462 146.112 9.9089C147.1 9.96665 148.1 9.9782 149.086 9.90697C149.928 9.84536 150.17 10.1091 150.167 10.9696C150.13 17.7961 150.147 24.6244 150.147 31.4509Z" fill="white"/>
<path id="Vector_15" d="M114.477 4.30969C114.5 6.23287 112.939 7.81724 111.024 7.81339C109.137 7.80954 107.553 6.23287 107.516 4.31931C107.482 2.50008 109.075 0.898391 110.946 0.87144C112.86 0.844488 114.456 2.39613 114.477 4.30969Z" fill="white"/>
<path id="Vector_16" d="M151.114 4.38488C151.099 6.27919 149.494 7.84431 147.598 7.81351C145.661 7.7827 144.125 6.16561 144.163 4.19815C144.198 2.35197 145.791 0.840755 147.668 0.871556C149.573 0.904283 151.13 2.49057 151.114 4.38488Z" fill="white"/>
<path id="Vector_17" d="M150.147 31.4534C150.147 24.627 150.132 17.7986 150.166 10.9722C150.17 10.1116 149.93 9.84789 149.086 9.90949C148.1 9.98072 147.1 9.96917 146.112 9.91142C145.363 9.86714 145.124 10.102 145.132 10.8759C145.17 14.7858 145.149 18.6976 145.149 22.6075C145.149 25.5568 145.149 28.5061 145.147 31.4534C144.728 31.2647 144.943 30.8932 144.943 30.6198C144.93 23.9493 144.945 17.2788 144.915 10.6083C144.911 9.89217 145.084 9.67078 145.81 9.70928C147.023 9.77281 148.246 9.77088 149.459 9.70928C150.17 9.6727 150.366 9.86714 150.362 10.5987C150.33 16.6281 150.359 22.6556 150.328 28.6851C150.324 29.6053 150.584 30.5582 150.147 31.4534Z" fill="white"/>
<path id="Vector_18" d="M139.771 31.2863C139.771 24.5041 139.759 17.7219 139.786 10.9398C139.79 10.1601 139.6 9.85401 138.779 9.90599C137.729 9.97337 136.67 9.95797 135.618 9.90984C134.936 9.87904 134.694 10.1274 134.759 10.7896C134.796 11.1689 134.792 11.5616 134.734 11.937C134.692 12.2161 134.528 12.2411 134.417 11.9428C134.828 11.4307 134.565 10.8358 134.602 10.2833C134.628 9.88096 134.732 9.71348 135.155 9.71733C136.595 9.73465 138.037 9.75005 139.476 9.71155C140.09 9.69422 140.042 10.0465 140.04 10.445C140.036 12.272 140.044 14.0989 140.036 15.9277C140.021 20.4152 140.003 24.9026 139.978 29.39C139.976 30.0272 140.024 30.676 139.771 31.2863Z" fill="white"/>
<path id="Vector_19" d="M188.595 31.4512C188.595 24.6537 188.576 17.8542 188.616 11.0566C188.622 10.1095 188.34 9.83417 187.428 9.9054C186.442 9.98241 185.443 9.95931 184.453 9.91118C183.772 9.87653 183.526 10.121 183.588 10.789C183.624 11.1952 183.568 11.6091 183.549 12.0192C183.549 12.0307 183.497 12.0538 183.474 12.05C183.445 12.0442 183.42 12.0172 183.394 11.9999C183.417 9.72637 183.417 9.72637 185.662 9.72637C186.494 9.72637 187.327 9.74947 188.155 9.71674C188.636 9.69749 188.822 9.81877 188.822 10.3482C188.805 17.2343 188.811 24.1185 188.807 31.0046C188.805 31.174 188.88 31.405 188.595 31.4512Z" fill="white"/>
<path id="Vector_20" d="M98.2278 76.1518C90.1407 76.1518 82.0536 76.1518 73.9664 76.1422C73.6031 76.1422 73.1937 76.2982 72.8784 75.9574C81.077 75.9555 89.2776 75.9516 97.4762 75.9613C97.7261 75.9593 98.0567 75.7899 98.2278 76.1518Z" fill="white"/>
<path id="Vector_21" d="M161.326 14.383C161.952 13.8998 162.679 14.1636 163.338 14.1886C164.211 14.2233 164.459 13.9191 164.386 13.0932C164.321 12.3655 164.33 11.6244 164.384 10.8928C164.44 10.1574 164.217 9.88406 163.434 9.89753C162.739 9.90908 161.985 10.1786 161.326 9.70117C162.183 9.7108 163.042 9.73775 163.9 9.72042C164.348 9.7108 164.601 9.77048 164.582 10.3249C164.542 11.4703 164.542 12.6177 164.582 13.7632C164.601 14.3176 164.348 14.3773 163.9 14.3676C163.042 14.3465 162.183 14.3734 161.326 14.383Z" fill="white"/>
<path id="Vector_22" d="M86.5479 7.64453C86.5479 13.7856 86.5479 19.9248 86.5479 26.064C86.2207 25.8773 86.3323 25.5577 86.3323 25.2882C86.3266 19.6649 86.3266 14.0417 86.3323 8.41843C86.3323 8.15084 86.2207 7.83127 86.5479 7.64453Z" fill="white"/>
</g>
</svg>
