<svg width="101" height="47" viewBox="0 0 101 47" fill="none" xmlns="http://www.w3.org/2000/svg">
<g id="Logo">
<path id="Vector" d="M49.2221 37.7438C49.2288 40.3898 49.2317 43.0359 49.2452 45.682C49.2461 45.9332 49.1683 46.0371 48.9165 46.0073C48.8059 45.9938 48.6925 46.0054 48.5801 46.0054C35.0624 46.0054 21.5448 46.0054 8.02622 46.0054C7.83014 46.0054 7.63503 46.0054 7.43895 46.0054C7.43799 45.9592 7.43703 45.913 7.43703 45.8668C8.02622 45.8206 8.6154 45.7724 9.20459 45.7291C10.6588 45.6223 12.1044 45.4432 13.5221 45.1025C16.1441 44.473 18.4143 43.1678 20.4414 41.414C24.1005 38.2462 26.2006 34.1707 27.1464 29.4975C28.3498 23.5518 27.9413 17.7159 25.4009 12.1484C23.6776 8.37136 21.168 5.21129 17.5666 3.02917C15.455 1.74993 13.1232 1.08962 10.7097 0.692084C9.73226 0.530375 8.74516 0.424494 7.7619 0.292624C7.69846 0.283961 7.63407 0.280111 7.57159 0.26856C7.47452 0.251234 7.37263 0.222357 7.38993 0.0962619C7.40531 -0.0153946 7.51008 0.0163707 7.58313 0.0115579C7.67924 0.00482004 7.77536 0.00963241 7.87147 0.00963241C17.2408 0.00963241 26.611 0.0125195 35.9803 6.2595e-06C36.4186 -0.000956297 36.5301 0.108776 36.5301 0.549626C36.5176 12.7077 36.5195 24.8657 36.5215 37.0238C36.5215 37.2317 36.5388 37.4386 36.5484 37.6465C36.705 37.8169 36.9098 37.7389 37.0924 37.7389C41.135 37.7438 45.1785 37.7428 49.2221 37.7438Z" fill="#24559C"/>
<path id="Vector_2" d="M0.118871 23.3478C0.118871 18.8093 0.125599 14.2709 0.108298 9.73337C0.106376 9.29926 0.231325 9.20204 0.645581 9.20782C2.99656 9.24151 5.35522 9.12889 7.68793 9.53412C9.76402 9.89412 11.7728 10.4543 13.5471 11.6537C15.751 13.1437 17.2379 15.1997 18.0501 17.6995C19.3525 21.7114 19.4255 25.7734 18.0712 29.7853C17.1533 32.5046 15.5405 34.7329 12.9156 36.0814C11.6911 36.71 10.3551 36.9756 9.00663 37.1614C6.22026 37.5455 3.41562 37.4367 0.615786 37.4665C0.216908 37.4704 0.109259 37.3655 0.111181 36.9631C0.124638 32.4237 0.118871 27.8862 0.118871 23.3478Z" fill="#1393C9"/>
<path id="Vector_3" d="M69.9936 15.3114C69.9282 17.095 68.8008 18.6476 67.039 19.2434C65.2724 19.8402 63.4799 19.8239 61.7277 19.1684C60.3427 18.6505 59.4459 17.6379 58.9538 16.1806C59.9265 16.1806 60.8492 16.1835 61.7709 16.1777C61.9391 16.1767 62.0247 16.2874 62.1323 16.3818C63.18 17.301 65.356 17.4242 66.5036 16.6301C67.2082 16.143 67.4869 15.372 67.385 14.1968C67.3148 14.1563 67.2658 14.2006 67.2168 14.2391C64.9072 16.0718 61.918 15.707 60.0947 13.4055C58.5049 11.3996 58.479 7.47138 60.755 5.46156C62.6417 3.79537 65.48 3.8435 67.3197 5.63867C67.3754 5.78786 67.4571 5.77535 67.4782 5.63578C67.5071 5.44808 67.509 5.25172 67.4907 5.0621C67.459 4.73098 67.5801 4.60585 67.9204 4.62221C68.4461 4.64627 68.9757 4.65397 69.5005 4.62028C69.9109 4.59429 70.0051 4.74734 70.0041 5.13718C69.9878 8.53019 69.9936 11.9213 69.9936 15.3114ZM64.6486 12.9079C66.3758 12.9098 67.5849 11.6267 67.5753 9.80076C67.5657 8.01233 66.3556 6.75427 64.6361 6.74754C62.8984 6.7408 61.6431 8.02099 61.6421 9.80076C61.6421 11.5998 62.9051 12.906 64.6486 12.9079Z" fill="#24569B"/>
<path id="Vector_4" d="M40.6006 8.09798C40.6006 5.80613 40.6093 3.51429 40.592 1.22244C40.5891 0.862445 40.6804 0.761376 41.0428 0.771002C42.8315 0.821055 44.6202 0.737312 46.4108 0.931749C49.8921 1.30907 51.5347 3.97535 52.0124 6.31918C52.4487 8.45701 52.2709 10.539 51.132 12.4487C50.0853 14.2044 48.5234 15.1651 46.4704 15.3191C44.6327 15.4567 42.7921 15.3816 40.9534 15.4192C40.5708 15.4269 40.5987 15.2267 40.5987 14.9735C40.6026 12.6817 40.6006 10.3898 40.6006 8.09798ZM43.3822 3.49022C43.2188 3.58359 43.2746 3.74338 43.2746 3.87813C43.2717 6.68976 43.2717 9.50138 43.2746 12.313C43.2746 12.4478 43.2198 12.6076 43.3822 12.7009C44.1175 12.7019 44.8537 12.7346 45.5871 12.6971C47.6872 12.5883 48.8867 11.5632 49.2875 9.5524C49.4778 8.59947 49.4663 7.64173 49.2289 6.6965C48.8185 5.06015 47.8285 4.01289 46.1484 3.65097C45.2324 3.45365 44.3097 3.45942 43.3822 3.49022Z" fill="#25569C"/>
<path id="Vector_5" d="M94.4059 15.3942C93.6706 15.4 92.9344 15.3913 92.2001 15.4173C91.8915 15.4279 91.7637 15.3461 91.8021 15.0236C91.8271 14.8099 91.8069 14.5904 91.8069 14.3065C91.6916 14.3845 91.6378 14.4114 91.5965 14.4499C89.6232 16.3153 86.684 15.9602 84.8867 14.1207C82.6991 11.8828 82.725 7.20668 85.5748 5.14873C87.3193 3.88875 89.7088 3.95035 91.3965 5.34606C91.5301 5.45675 91.6685 5.56071 91.8041 5.66755C91.8175 5.67622 91.83 5.69065 91.8444 5.69258C91.856 5.6945 91.8819 5.68392 91.8819 5.67718C91.8915 5.47215 91.9194 5.26424 91.9011 5.06211C91.8713 4.7281 91.9944 4.60585 92.3337 4.62318C92.8287 4.64821 93.3285 4.65879 93.8215 4.62029C94.2761 4.58468 94.4184 4.72232 94.4155 5.1959C94.3963 8.59661 94.4059 11.9954 94.4059 15.3942ZM91.9261 9.92301C91.955 9.03169 91.6868 8.24432 91.0669 7.60133C89.7981 6.28551 87.5779 6.49728 86.5581 8.02197C85.8123 9.13564 85.8392 10.8865 86.6177 11.9723C87.3626 13.0109 88.5535 13.4325 89.7953 13.0966C91.113 12.7395 91.93 11.5228 91.9261 9.92301Z" fill="#24559B"/>
<path id="Vector_6" d="M81.0313 31.1666C80.9199 31.3553 80.965 31.5179 80.965 31.6719C80.9612 33.4036 80.9554 35.1352 80.9689 36.8659C80.9718 37.1768 80.8872 37.2731 80.569 37.2731C79.5031 37.275 79.5031 37.2885 79.5031 36.2373C79.5031 31.5083 79.5089 26.7783 79.4935 22.0493C79.4916 21.6075 79.5666 21.4332 80.0567 21.4563C80.9612 21.4997 80.9631 21.4679 80.9631 22.364C80.9631 22.7154 80.9631 23.0677 80.9631 23.5836C82.2347 21.953 83.7822 21.1156 85.7564 21.183C87.7363 21.2513 89.2742 22.1494 90.4228 23.7222C92.2413 26.2133 91.803 29.6669 89.4587 31.8596C87.6335 33.5672 83.7802 34.2699 81.0313 31.1666ZM90.0162 27.2105C90.0056 24.5721 87.9737 22.5228 85.3786 22.5344C82.8422 22.545 80.8603 24.6328 80.8718 27.2827C80.8833 29.9605 82.8643 31.9713 85.4863 31.9665C87.9718 31.9607 90.0268 29.8027 90.0162 27.2105Z" fill="#1893C7"/>
<path id="Vector_7" d="M56.7758 27.2548C55.2063 27.2548 53.6377 27.2683 52.0691 27.2461C51.6481 27.2404 51.5635 27.3742 51.6067 27.7746C51.8893 30.3677 53.7491 32.0984 56.2078 31.954C57.8494 31.8577 59.1085 31.0579 59.9736 29.6448C60.3196 29.0798 60.3301 29.0856 60.9126 29.3917C61.5931 29.7488 61.5787 29.7401 61.1798 30.437C59.0114 34.2304 53.8866 33.883 51.8211 31.6903C48.8963 28.586 49.6816 23.3873 53.4964 21.7028C57.3698 19.9923 61.6854 22.4218 61.9333 26.7668C61.9574 27.1893 61.8219 27.2692 61.4345 27.2644C59.8822 27.2423 58.329 27.2548 56.7758 27.2548ZM51.7596 25.9727C51.824 25.9833 51.8557 25.9939 51.8864 25.9939C53.9029 25.9958 55.9204 25.9967 57.9369 25.9977C58.6251 25.9977 59.3132 25.9919 60.0014 26.0006C60.2446 26.0035 60.308 25.939 60.2292 25.6935C60.0908 25.2652 59.9476 24.8388 59.6929 24.4672C58.6452 22.9387 57.141 22.3631 55.3658 22.5826C53.4723 22.8165 52.2392 24.0341 51.7596 25.9727Z" fill="#1893C8"/>
<path id="Vector_8" d="M74.6965 23.5547C74.6965 22.8858 74.7042 22.3467 74.6927 21.8087C74.6879 21.5728 74.7465 21.4756 75.0099 21.4631C76.1575 21.4082 76.1565 21.3986 76.1565 22.5594C76.1565 25.8947 76.1498 29.23 76.1652 32.5643C76.1671 32.9502 76.0566 33.0465 75.6836 33.0388C74.6956 33.0186 74.6956 33.0359 74.6956 32.0204C74.6956 31.7557 74.6956 31.49 74.6956 31.0646C73.1933 32.8068 71.4113 33.5316 69.2776 33.2717C67.7465 33.085 66.5066 32.3304 65.5339 31.1445C63.5184 28.6871 63.7077 25.1064 65.9635 22.8925C67.2082 21.671 68.7057 21.107 70.4435 21.1888C72.1956 21.2715 73.5643 22.0878 74.6965 23.5547ZM74.7975 27.2933C74.7984 24.5904 72.8454 22.5392 70.2656 22.5344C67.7061 22.5286 65.6713 24.5953 65.6704 27.1999C65.6694 29.8421 67.7013 31.9665 70.232 31.9665C72.8281 31.9665 74.7965 29.9519 74.7975 27.2933Z" fill="#1793C8"/>
<path id="Vector_9" d="M80.771 6.85919C80.77 9.55434 80.7623 12.2495 80.7777 14.9437C80.7796 15.3143 80.6941 15.4423 80.3087 15.4202C79.7022 15.3855 79.0909 15.3913 78.4834 15.4192C78.1499 15.4346 78.0557 15.3432 78.0577 14.9995C78.073 12.4651 78.0577 9.9307 78.075 7.39629C78.0778 6.98624 78.0144 6.8101 77.5444 6.83416C76.689 6.87844 76.6871 6.84571 76.6871 6.00251C76.6871 5.61749 76.7015 5.2315 76.6822 4.84744C76.6698 4.58852 76.7697 4.51825 77.0148 4.52595C77.3474 4.53558 77.8049 4.63664 77.9827 4.46435C78.2201 4.2343 78.0577 3.76938 78.0625 3.4065C78.074 2.57292 78.0759 1.73839 78.0605 0.903851C78.0557 0.646849 78.1365 0.576583 78.3864 0.582358C79.0592 0.597759 79.732 0.603535 80.4038 0.580434C80.7056 0.569846 80.7796 0.665139 80.7758 0.957756C80.7604 2.14459 80.77 3.33142 80.771 4.51825C81.1007 4.75696 81.4774 4.62317 81.8254 4.61643C82.2175 4.60969 82.3281 4.74638 82.3002 5.11407C82.2733 5.47888 82.2685 5.84947 82.3011 6.21428C82.3386 6.62721 82.2146 6.7793 81.7773 6.76197C81.4476 6.74849 81.0843 6.61758 80.771 6.85919Z" fill="#23559B"/>
<path id="Vector_10" d="M99.672 7.90067C99.672 10.257 99.6634 12.6133 99.6807 14.9697C99.6836 15.3335 99.5855 15.4375 99.226 15.4192C98.6032 15.3884 97.9775 15.3942 97.3537 15.4182C97.0423 15.4298 96.9404 15.3422 96.9481 15.0226C96.9693 14.19 96.9558 13.3555 96.9558 12.5219C96.9558 8.6428 96.9625 4.76273 96.9462 0.883633C96.9443 0.481284 97.0442 0.360001 97.446 0.385028C98.0198 0.421605 98.5994 0.418718 99.1741 0.385991C99.5653 0.363853 99.6855 0.469733 99.6826 0.879782C99.6614 3.21976 99.672 5.55973 99.672 7.90067Z" fill="#26569B"/>
<path id="Vector_11" d="M40.8044 25.2305C40.8044 22.7934 40.814 20.3552 40.7948 17.918C40.7919 17.508 40.9149 17.4088 41.3071 17.4165C42.3932 17.4377 42.3941 17.4204 42.3941 18.4869C42.3941 22.6403 42.3999 26.7937 42.3855 30.9462C42.3845 31.3543 42.4691 31.4977 42.9093 31.49C44.5903 31.4621 46.2714 31.4891 47.9524 31.4698C48.311 31.466 48.4148 31.5613 48.4109 31.9232C48.4003 33.0301 48.4157 33.0301 47.3162 33.0301C45.3304 33.0301 43.3447 33.0186 41.3599 33.0388C40.938 33.0427 40.788 32.9551 40.7928 32.493C40.8178 30.0732 40.8044 27.6523 40.8044 25.2305Z" fill="#1D95C8"/>
<path id="Vector_12" d="M96.5992 33.3054C95.3987 33.2987 94.3501 32.8992 93.462 32.081C93.2467 31.8828 93.1833 31.721 93.4341 31.4939C93.6706 31.2802 93.834 30.8981 94.0954 30.8249C94.3934 30.7421 94.5712 31.1724 94.8182 31.3582C95.937 32.1937 97.272 32.1725 98.137 31.284C98.9194 30.4794 98.8445 29.2839 97.964 28.586C97.4344 28.1663 96.8308 27.8679 96.2436 27.5436C95.4007 27.0777 94.5395 26.6118 94.0829 25.7089C93.5168 24.5914 93.5456 23.4565 94.2896 22.4353C95.0719 21.3611 96.1994 21.0222 97.4806 21.2417C98.4446 21.4063 99.2039 21.9761 99.9123 22.6172C99.9479 22.649 100.007 22.6961 100.002 22.725C99.9142 23.161 99.5067 23.3478 99.2539 23.6548C99.0867 23.8579 98.979 23.6288 98.8742 23.5345C98.4206 23.1206 97.9352 22.7674 97.3278 22.6056C96.5079 22.3862 95.6602 22.7125 95.2565 23.4219C94.8884 24.0678 95.0623 24.8609 95.7121 25.4519C96.2378 25.9303 96.8741 26.2403 97.4912 26.5772C97.9688 26.838 98.4331 27.1191 98.856 27.4637C99.968 28.3675 100.363 29.6448 99.9459 30.9857C99.5567 32.237 98.312 33.213 96.9837 33.3045C96.8558 33.3131 96.727 33.3054 96.5992 33.3054Z" fill="#1994C8"/>
<path id="Vector_13" d="M56.9633 10.0212C56.9633 11.672 56.9517 13.3228 56.9719 14.9735C56.9767 15.3393 56.8739 15.4375 56.5173 15.4192C55.9108 15.3884 55.3005 15.3884 54.694 15.4192C54.3336 15.4375 54.2384 15.3326 54.2403 14.9697C54.2567 12.3737 54.249 9.7767 54.249 7.18069C54.249 6.427 54.2644 5.67332 54.2422 4.92156C54.2326 4.59911 54.3384 4.51344 54.6488 4.52403C55.288 4.54713 55.93 4.54906 56.5682 4.52307C56.8893 4.51055 56.971 4.61355 56.969 4.92445C56.9565 6.62336 56.9633 8.32227 56.9633 10.0212Z" fill="#25569C"/>
<path id="Vector_14" d="M75.1818 15.3942C74.3485 15.3942 73.5152 15.3942 72.6819 15.3942C72.6819 13.9195 72.6819 12.4449 72.6828 10.9712C72.6828 9.01625 72.6934 7.06034 72.6742 5.10539C72.6703 4.71844 72.7895 4.60101 73.1644 4.62315C73.6584 4.65203 74.1582 4.6578 74.6513 4.62219C75.0722 4.59138 75.1933 4.72325 75.1914 5.15352C75.1732 8.56674 75.1818 11.9809 75.1818 15.3942Z" fill="#23559B"/>
<path id="Vector_15" d="M57.3468 1.82211C57.3583 2.78371 56.5778 3.57589 55.6205 3.57396C54.6767 3.57204 53.8847 2.78371 53.8664 1.82693C53.8491 0.91731 54.6459 0.116462 55.5811 0.102987C56.5384 0.0895109 57.3362 0.865331 57.3468 1.82211Z" fill="#26569B"/>
<path id="Vector_16" d="M75.6654 1.85968C75.6577 2.80683 74.8551 3.58939 73.9074 3.57399C72.9386 3.55859 72.1706 2.75004 72.1899 1.76631C72.2072 0.84322 73.004 0.0876136 73.942 0.103015C74.8945 0.119378 75.6731 0.912524 75.6654 1.85968Z" fill="#26569B"/>
<path id="Vector_17" d="M75.1819 15.3942C75.1819 11.9809 75.1742 8.56675 75.1915 5.15353C75.1934 4.72326 75.0732 4.59139 74.6513 4.6222C74.1582 4.65781 73.6584 4.65204 73.1644 4.62316C72.7895 4.60102 72.6704 4.71845 72.6742 5.1054C72.6934 7.06035 72.6829 9.01626 72.6829 10.9712C72.6829 12.4459 72.6829 13.9205 72.6819 15.3942C72.4724 15.2998 72.58 15.1141 72.58 14.9774C72.5733 11.6421 72.581 8.30686 72.5656 4.9716C72.5637 4.61353 72.6502 4.50284 73.0135 4.52209C73.62 4.55385 74.2313 4.55289 74.8378 4.52209C75.1934 4.5038 75.2914 4.60102 75.2895 4.96679C75.2732 7.98152 75.2876 10.9953 75.2722 14.01C75.2703 14.4701 75.4 14.9466 75.1819 15.3942Z" fill="#375178"/>
<path id="Vector_18" d="M69.9936 15.3114C69.9936 11.9203 69.9879 8.52922 70.0013 5.13813C70.0032 4.74829 69.9081 4.59525 69.4977 4.62124C68.9729 4.65493 68.4433 4.64723 67.9176 4.62316C67.5763 4.60776 67.4552 4.73193 67.4879 5.06305C67.5062 5.25267 67.5043 5.44904 67.4754 5.63673C67.4543 5.77631 67.3726 5.78882 67.3168 5.63962C67.5225 5.38358 67.3908 5.08615 67.4091 4.8099C67.4226 4.60872 67.4745 4.52498 67.6859 4.52691C68.4058 4.53557 69.1267 4.54327 69.8466 4.52402C70.1532 4.51536 70.1292 4.6915 70.1282 4.89075C70.1263 5.80422 70.1301 6.71768 70.1263 7.63211C70.1186 9.87583 70.1099 12.1196 70.0974 14.3633C70.0965 14.6819 70.1205 15.0063 69.9936 15.3114Z" fill="#375178"/>
<path id="Vector_19" d="M94.4059 15.3942C94.4059 11.9954 94.3963 8.59564 94.4164 5.19686C94.4193 4.72328 94.278 4.58564 93.8224 4.62125C93.3294 4.65975 92.8296 4.6482 92.3346 4.62414C91.9943 4.60681 91.8713 4.72906 91.9021 5.06306C91.9203 5.26616 91.8925 5.47311 91.8828 5.67814C91.8828 5.68391 91.8569 5.69546 91.8454 5.69354C91.8309 5.69065 91.8184 5.67717 91.805 5.66851C91.8165 4.53173 91.8165 4.53173 92.9391 4.53173C93.3553 4.53173 93.7715 4.54328 94.1858 4.52692C94.426 4.51729 94.5193 4.57794 94.5193 4.84264C94.5106 8.2857 94.5135 11.7278 94.5116 15.1709C94.5106 15.2556 94.5481 15.3711 94.4059 15.3942Z" fill="#375178"/>
<path id="Vector_20" d="M49.2221 37.7438C45.1786 37.7438 41.135 37.7438 37.0914 37.739C36.9098 37.739 36.7051 37.8169 36.5474 37.6466C40.6467 37.6456 44.747 37.6437 48.8463 37.6485C48.9713 37.6475 49.1366 37.5628 49.2221 37.7438Z" fill="#375178"/>
<path id="Vector_21" d="M80.7709 6.85919C81.0843 6.61758 81.4476 6.74946 81.7773 6.76197C82.2136 6.77929 82.3376 6.62721 82.3011 6.21427C82.2684 5.85043 82.2732 5.47984 82.3001 5.11407C82.328 4.74638 82.2165 4.60969 81.8253 4.61643C81.4774 4.62221 81.1006 4.75696 80.7709 4.51825C81.1996 4.52306 81.6292 4.53654 82.0579 4.52788C82.2819 4.52306 82.4087 4.5529 82.3991 4.83012C82.3789 5.40284 82.3789 5.97652 82.3991 6.54924C82.4087 6.82646 82.2819 6.8563 82.0579 6.85149C81.6292 6.8409 81.1996 6.85437 80.7709 6.85919Z" fill="#375178"/>
<path id="Vector_22" d="M43.3824 3.49023C43.3824 6.56079 43.3824 9.63038 43.3824 12.7C43.2187 12.6066 43.2746 12.4468 43.2746 12.3121C43.2717 9.50044 43.2717 6.68881 43.2746 3.87718C43.2746 3.74339 43.2187 3.5836 43.3824 3.49023Z" fill="#375178"/>
</g>
</svg>
