<svg width="95" height="44" viewBox="0 0 95 44" fill="none" xmlns="http://www.w3.org/2000/svg">
<g id="Logo">
<path id="Vector" d="M46.8558 35.9897C46.8621 38.4781 46.8649 40.9664 46.8775 43.4548C46.8784 43.6911 46.8052 43.7888 46.5684 43.7608C46.4644 43.7481 46.3578 43.759 46.252 43.759C33.5398 43.759 20.8275 43.759 8.11435 43.759C7.92996 43.759 7.74647 43.759 7.56208 43.759C7.56117 43.7155 7.56027 43.6721 7.56027 43.6286C8.11435 43.5852 8.66843 43.5399 9.22252 43.4992C10.5901 43.3987 11.9495 43.2303 13.2828 42.9099C15.7486 42.3179 17.8836 41.0905 19.7898 39.4412C23.2309 36.4622 25.2059 32.6296 26.0954 28.2349C27.227 22.6435 26.8429 17.1553 24.4539 11.9196C22.8332 8.36761 20.4732 5.39585 17.0863 3.34378C15.1005 2.14077 12.9077 1.51981 10.638 1.14596C9.71875 0.993886 8.79046 0.894315 7.86578 0.770303C7.80613 0.762157 7.74557 0.758536 7.68681 0.747674C7.59552 0.73138 7.49971 0.704223 7.51598 0.585643C7.53044 0.48064 7.62896 0.510512 7.69766 0.505986C7.78805 0.49965 7.87844 0.504176 7.96883 0.504176C16.7799 0.504176 25.5919 0.506891 34.403 0.495123C34.8151 0.494218 34.92 0.597411 34.92 1.01199C34.9082 12.4455 34.9101 23.8791 34.9119 35.3126C34.9119 35.5081 34.9281 35.7027 34.9372 35.8983C35.0845 36.0585 35.277 35.9851 35.4488 35.9851C39.2505 35.9897 43.0532 35.9888 46.8558 35.9897Z" fill="#24559C"/>
<path id="Vector_2" d="M0.678176 22.4518C0.678176 18.1839 0.684503 13.9159 0.668233 9.64876C0.666426 9.24051 0.78393 9.14909 1.17351 9.15452C3.38441 9.1862 5.60255 9.08029 7.79628 9.46138C9.74867 9.79992 11.6378 10.3267 13.3064 11.4546C15.379 12.8559 16.7773 14.7894 17.5411 17.1402C18.7658 20.913 18.8345 24.7329 17.561 28.5058C16.6977 31.063 15.181 33.1585 12.7125 34.4267C11.561 35.0178 10.3046 35.2676 9.03641 35.4423C6.41605 35.8035 3.77851 35.7012 1.14549 35.7293C0.770372 35.7329 0.669137 35.6342 0.670945 35.2558C0.683599 30.9869 0.678176 26.7199 0.678176 22.4518Z" fill="#1393C9"/>
<path id="Vector_3" d="M66.3898 14.8937C66.3284 16.5711 65.2681 18.0311 63.6113 18.5915C61.95 19.1527 60.2642 19.1373 58.6164 18.5209C57.3139 18.0339 56.4706 17.0816 56.0078 15.7111C56.9225 15.7111 57.7903 15.7138 58.6571 15.7084C58.8153 15.7075 58.8957 15.8116 58.997 15.9003C59.9822 16.7648 62.0286 16.8806 63.1078 16.1339C63.7704 15.6758 64.0325 14.9508 63.9367 13.8455C63.8707 13.8075 63.8246 13.8491 63.7785 13.8853C61.6065 15.6088 58.7954 15.2658 57.0807 13.1014C55.5857 11.215 55.5613 7.52091 57.7017 5.63086C59.476 4.06396 62.1452 4.10922 63.8752 5.79741C63.9277 5.93772 64.0045 5.92595 64.0244 5.7947C64.0515 5.61819 64.0533 5.43353 64.0361 5.2552C64.0063 4.94382 64.1202 4.82614 64.4402 4.84153C64.9346 4.86416 65.4326 4.8714 65.9262 4.83972C66.3121 4.81528 66.4007 4.9592 66.3998 5.32581C66.3844 8.51662 66.3898 11.7056 66.3898 14.8937ZM61.3633 12.6335C62.9876 12.6353 64.1247 11.4286 64.1157 9.71148C64.1066 8.02963 62.9686 6.84654 61.3516 6.8402C59.7174 6.83387 58.5369 8.03777 58.536 9.71148C58.536 11.4033 59.7237 12.6316 61.3633 12.6335Z" fill="#24569B"/>
<path id="Vector_4" d="M38.7479 8.10968C38.7479 5.95441 38.7561 3.79914 38.7398 1.64387C38.7371 1.30532 38.823 1.21028 39.1637 1.21933C40.8459 1.2664 42.528 1.18765 44.2119 1.3705C47.4858 1.72533 49.0306 4.23273 49.4798 6.43688C49.8901 8.44732 49.7229 10.4053 48.6518 12.2012C47.6675 13.8522 46.1987 14.7556 44.268 14.9005C42.5397 15.0299 40.8088 14.9593 39.0797 14.9946C38.7199 15.0018 38.7461 14.8136 38.7461 14.5755C38.7498 12.4202 38.7479 10.265 38.7479 8.10968ZM41.3638 3.77651C41.2101 3.86431 41.2626 4.01457 41.2626 4.1413C41.2598 6.78538 41.2598 9.42946 41.2626 12.0735C41.2626 12.2003 41.211 12.3505 41.3638 12.4383C42.0553 12.4392 42.7476 12.47 43.4373 12.4347C45.4123 12.3324 46.5403 11.3684 46.9173 9.47743C47.0962 8.58129 47.0854 7.68062 46.8621 6.79171C46.4762 5.25288 45.5452 4.26803 43.9652 3.92768C43.1038 3.74211 42.236 3.74754 41.3638 3.77651Z" fill="#25569C"/>
<path id="Vector_5" d="M89.3475 14.9722C88.656 14.9776 87.9637 14.9694 87.2731 14.9939C86.983 15.0038 86.8627 14.9269 86.8989 14.6237C86.9224 14.4227 86.9034 14.2163 86.9034 13.9493C86.7949 14.0226 86.7443 14.048 86.7055 14.0842C84.8498 15.8384 82.0857 15.5044 80.3954 13.7746C78.3382 11.67 78.3626 7.27256 81.0426 5.33725C82.6832 4.15235 84.9302 4.21028 86.5175 5.52282C86.6431 5.62692 86.7733 5.72468 86.9007 5.82515C86.9134 5.8333 86.9251 5.84688 86.9387 5.84869C86.9495 5.8505 86.9739 5.84054 86.9739 5.83421C86.983 5.6414 87.0092 5.44588 86.992 5.25579C86.964 4.94168 87.0797 4.82672 87.3987 4.84302C87.8642 4.86655 88.3343 4.87651 88.798 4.8403C89.2255 4.80681 89.3593 4.93625 89.3566 5.38161C89.3385 8.57967 89.3475 11.7759 89.3475 14.9722ZM87.0155 9.82703C87.0426 8.98881 86.7904 8.24836 86.2074 7.64369C85.0143 6.40629 82.9263 6.60543 81.9673 8.03926C81.2659 9.08658 81.2912 10.7331 82.0233 11.7542C82.7238 12.7309 83.8438 13.1274 85.0116 12.8115C86.2508 12.4756 87.0191 11.3315 87.0155 9.82703Z" fill="#24559B"/>
<path id="Vector_6" d="M76.77 29.8054C76.6651 29.9828 76.7076 30.1358 76.7076 30.2806C76.704 31.9091 76.6986 33.5375 76.7112 35.1651C76.7139 35.4574 76.6344 35.548 76.3352 35.548C75.3328 35.5498 75.3328 35.5624 75.3328 34.574C75.3328 30.1267 75.3382 25.6786 75.3238 21.2314C75.322 20.8159 75.3925 20.652 75.8534 20.6738C76.704 20.7145 76.7058 20.6846 76.7058 21.5274C76.7058 21.8578 76.7058 22.1891 76.7058 22.6743C77.9016 21.1408 79.3569 20.3533 81.2135 20.4167C83.0755 20.481 84.5217 21.3255 85.6019 22.8046C87.312 25.1472 86.8998 28.3951 84.6953 30.4571C82.9788 32.0629 79.3551 32.7237 76.77 29.8054ZM85.2195 26.085C85.2096 23.6039 83.2988 21.6767 80.8583 21.6876C78.4729 21.6975 76.6091 23.6609 76.6199 26.1529C76.6308 28.6712 78.4937 30.5621 80.9595 30.5576C83.2969 30.5522 85.2295 28.5227 85.2195 26.085Z" fill="#1893C7"/>
<path id="Vector_7" d="M53.9596 26.1245C52.4836 26.1245 51.0084 26.1372 49.5333 26.1164C49.1374 26.111 49.0578 26.2368 49.0985 26.6134C49.3643 29.0519 51.1133 30.6795 53.4254 30.5437C54.9692 30.4532 56.1533 29.701 56.9668 28.3721C57.2922 27.8408 57.3022 27.8462 57.8499 28.1341C58.4899 28.4699 58.4763 28.4618 58.1012 29.1171C56.062 32.6845 51.2425 32.3577 49.3001 30.2957C46.5496 27.3764 47.288 22.4875 50.8755 20.9034C54.5182 19.2948 58.5767 21.5796 58.8099 25.6656C58.8325 26.063 58.705 26.1381 58.3407 26.1336C56.881 26.1128 55.4203 26.1245 53.9596 26.1245ZM49.2422 24.9188C49.3028 24.9288 49.3326 24.9387 49.3615 24.9387C51.2579 24.9405 53.1551 24.9415 55.0515 24.9424C55.6987 24.9424 56.3459 24.9369 56.993 24.9451C57.2217 24.9478 57.2814 24.8871 57.2073 24.6563C57.0771 24.2535 56.9424 23.8525 56.7029 23.5031C55.7177 22.0656 54.3031 21.5243 52.6336 21.7307C50.8529 21.9507 49.6933 23.0958 49.2422 24.9188Z" fill="#1893C8"/>
<path id="Vector_8" d="M70.8125 22.6463C70.8125 22.0172 70.8197 21.5103 70.8089 21.0043C70.8044 20.7825 70.8595 20.6911 71.1072 20.6793C72.1864 20.6278 72.1855 20.6187 72.1855 21.7104C72.1855 24.8469 72.1792 27.9834 72.1936 31.119C72.1954 31.482 72.0915 31.5725 71.7408 31.5652C70.8116 31.5462 70.8116 31.5625 70.8116 30.6075C70.8116 30.3586 70.8116 30.1088 70.8116 29.7087C69.3988 31.3471 67.723 32.0287 65.7164 31.7843C64.2765 31.6087 63.1105 30.899 62.1958 29.7838C60.3003 27.4728 60.4784 24.1055 62.5998 22.0236C63.7703 20.8749 65.1786 20.3444 66.8128 20.4214C68.4606 20.4992 69.7477 21.2668 70.8125 22.6463ZM70.9074 26.1621C70.9083 23.6203 69.0716 21.6914 66.6456 21.6868C64.2385 21.6814 62.325 23.6249 62.3241 26.0743C62.3232 28.5591 64.234 30.5569 66.6139 30.5569C69.0553 30.5569 70.9065 28.6623 70.9074 26.1621Z" fill="#1793C8"/>
<path id="Vector_9" d="M76.5251 6.94439C76.5242 9.47894 76.5169 12.0135 76.5314 14.5471C76.5332 14.8956 76.4528 15.016 76.0903 14.9952C75.5199 14.9626 74.9451 14.9681 74.3738 14.9943C74.0602 15.0088 73.9716 14.9228 73.9734 14.5996C73.9879 12.2163 73.9734 9.83287 73.9897 7.44949C73.9924 7.06388 73.9327 6.89823 73.4907 6.92086C72.6863 6.9625 72.6844 6.93172 72.6844 6.13877C72.6844 5.77669 72.698 5.41371 72.6799 5.05253C72.6682 4.80903 72.7622 4.74296 72.9927 4.7502C73.3054 4.75925 73.7357 4.85429 73.9029 4.69226C74.1261 4.47592 73.9734 4.03871 73.9779 3.69745C73.9888 2.91355 73.9906 2.12875 73.9761 1.34394C73.9716 1.10226 74.0475 1.03618 74.2825 1.04161C74.9152 1.05609 75.548 1.06152 76.1798 1.0398C76.4636 1.02984 76.5332 1.11946 76.5296 1.39464C76.5151 2.51074 76.5242 3.62685 76.5251 4.74296C76.8351 4.96744 77.1894 4.84162 77.5166 4.83529C77.8854 4.82895 77.9894 4.95749 77.9631 5.30327C77.9378 5.64634 77.9333 5.99484 77.964 6.33791C77.9993 6.72624 77.8827 6.86926 77.4714 6.85297C77.1614 6.8403 76.8197 6.71719 76.5251 6.94439Z" fill="#23559B"/>
<path id="Vector_10" d="M94.3 7.92417C94.3 10.1401 94.2919 12.356 94.3082 14.5719C94.3109 14.9141 94.2187 15.0119 93.8806 14.9947C93.2949 14.9657 92.7065 14.9711 92.1198 14.9938C91.827 15.0046 91.7312 14.9222 91.7384 14.6217C91.7583 13.8387 91.7456 13.0539 91.7456 12.27C91.7456 8.62208 91.752 4.97323 91.7366 1.32529C91.7348 0.946919 91.8288 0.832864 92.2066 0.856399C92.7462 0.890796 93.2913 0.888082 93.8318 0.857305C94.1997 0.836486 94.3127 0.936056 94.31 1.32167C94.2901 3.5222 94.3 5.72273 94.3 7.92417Z" fill="#26569B"/>
<path id="Vector_11" d="M38.9397 24.2218C38.9397 21.9299 38.9487 19.637 38.9306 17.345C38.9279 16.9594 39.0436 16.8662 39.4124 16.8734C40.4338 16.8933 40.4347 16.8771 40.4347 17.88C40.4347 21.7859 40.4401 25.6918 40.4266 29.5969C40.4257 29.9807 40.5052 30.1155 40.9192 30.1083C42.5001 30.082 44.081 30.1074 45.6619 30.0893C45.999 30.0857 46.0966 30.1753 46.093 30.5156C46.0831 31.5566 46.0975 31.5566 45.0635 31.5566C43.1961 31.5566 41.3286 31.5458 39.4621 31.5648C39.0653 31.5684 38.9243 31.486 38.9288 31.0515C38.9523 28.7759 38.9397 26.4993 38.9397 24.2218Z" fill="#1D95C8"/>
<path id="Vector_12" d="M91.4103 31.8156C90.2814 31.8093 89.2953 31.4336 88.4601 30.6642C88.2576 30.4777 88.1979 30.3256 88.4339 30.112C88.6562 29.9111 88.8099 29.5517 89.0557 29.4829C89.3359 29.4051 89.5031 29.8097 89.7354 29.9844C90.7876 30.7701 92.0431 30.7502 92.8566 29.9147C93.5923 29.1579 93.5218 28.0337 92.6939 27.3774C92.1958 26.9828 91.6282 26.7021 91.0759 26.3971C90.2832 25.959 89.4733 25.5209 89.044 24.6718C88.5116 23.6209 88.5387 22.5536 89.2383 21.5932C89.9741 20.583 91.0343 20.2644 92.2392 20.4708C93.1458 20.6256 93.8599 21.1614 94.526 21.7643C94.5595 21.7942 94.6155 21.8385 94.6101 21.8657C94.5278 22.2757 94.1446 22.4513 93.9069 22.7401C93.7496 22.9311 93.6484 22.7157 93.5498 22.6269C93.1232 22.2377 92.6667 21.9055 92.0955 21.7534C91.3245 21.5471 90.5273 21.8539 90.1476 22.521C89.8014 23.1284 89.965 23.8743 90.5761 24.4301C91.0705 24.88 91.6689 25.1715 92.2492 25.4883C92.6984 25.7336 93.135 25.9979 93.5327 26.322C94.5785 27.1719 94.95 28.3731 94.5577 29.6341C94.1916 30.8108 93.0211 31.7287 91.7719 31.8147C91.6517 31.8228 91.5306 31.8156 91.4103 31.8156Z" fill="#1994C8"/>
<path id="Vector_13" d="M54.1357 9.91849C54.1357 11.4709 54.1248 13.0233 54.1438 14.5757C54.1483 14.9197 54.0516 15.012 53.7163 14.9948C53.1459 14.9659 52.572 14.9659 52.0016 14.9948C51.6627 15.012 51.5732 14.9134 51.575 14.5721C51.5903 12.1308 51.5831 9.68857 51.5831 7.24726C51.5831 6.53849 51.5976 5.82972 51.5768 5.12276C51.5677 4.81952 51.6672 4.73896 51.9591 4.74892C52.5602 4.77064 53.164 4.77245 53.7642 4.74801C54.0661 4.73625 54.1429 4.8331 54.1411 5.12548C54.1294 6.72315 54.1357 8.32082 54.1357 9.91849Z" fill="#25569C"/>
<path id="Vector_14" d="M71.269 14.972C70.4853 14.972 69.7016 14.972 68.918 14.972C68.918 13.5852 68.918 12.1984 68.9189 10.8126C68.9189 8.97412 68.9288 7.13476 68.9107 5.29631C68.9071 4.93242 69.0192 4.82199 69.3717 4.84281C69.8363 4.86996 70.3063 4.87539 70.77 4.8419C71.1659 4.81294 71.2798 4.93695 71.278 5.34157C71.2608 8.5514 71.269 11.7621 71.269 14.972Z" fill="#23559B"/>
<path id="Vector_15" d="M54.4964 2.20864C54.5072 3.11293 53.7733 3.85791 52.873 3.8561C51.9854 3.85429 51.2406 3.11293 51.2234 2.21317C51.2071 1.35776 51.9565 0.604632 52.8359 0.59196C53.7362 0.579287 54.4864 1.30887 54.4964 2.20864Z" fill="#26569B"/>
<path id="Vector_16" d="M71.7236 2.244C71.7164 3.13471 70.9616 3.87063 70.0704 3.85615C69.1593 3.84167 68.4371 3.0813 68.4552 2.15619C68.4714 1.28811 69.2208 0.577531 70.1029 0.592014C70.9987 0.607403 71.7309 1.35328 71.7236 2.244Z" fill="#26569B"/>
<path id="Vector_17" d="M71.269 14.9721C71.269 11.7623 71.2617 8.55152 71.278 5.3417C71.2798 4.93707 71.1668 4.81306 70.77 4.84203C70.3063 4.87552 69.8363 4.87009 69.3717 4.84293C69.0192 4.82211 68.9071 4.93255 68.9107 5.29644C68.9288 7.13489 68.9189 8.97425 68.9189 10.8127C68.9189 12.1995 68.9189 13.5862 68.918 14.9721C68.7209 14.8834 68.8221 14.7087 68.8221 14.5801C68.8158 11.4436 68.8231 8.30712 68.8086 5.17061C68.8068 4.83388 68.8881 4.72978 69.2298 4.74789C69.8001 4.77776 70.375 4.77685 70.9454 4.74789C71.2798 4.73069 71.372 4.82211 71.3702 5.16609C71.3548 8.00116 71.3684 10.8353 71.3539 13.6704C71.3521 14.1031 71.4741 14.5512 71.269 14.9721Z" fill="#375178"/>
<path id="Vector_18" d="M66.3899 14.8948C66.3899 11.7058 66.3845 8.51681 66.3971 5.3278C66.3989 4.9612 66.3094 4.81727 65.9235 4.84171C65.43 4.8734 64.9319 4.86615 64.4375 4.84352C64.1166 4.82904 64.0027 4.94581 64.0335 5.2572C64.0506 5.43552 64.0488 5.62018 64.0217 5.7967C64.0018 5.92795 63.925 5.93972 63.8726 5.79941C64.066 5.55863 63.9422 5.27892 63.9593 5.01913C63.972 4.82995 64.0208 4.75119 64.2197 4.75301C64.8967 4.76115 65.5746 4.76839 66.2516 4.75029C66.5399 4.74214 66.5173 4.90779 66.5164 5.09517C66.5146 5.9542 66.5182 6.81323 66.5146 7.67317C66.5074 9.78318 66.4992 11.8932 66.4875 14.0032C66.4866 14.3028 66.5092 14.6079 66.3899 14.8948Z" fill="#375178"/>
<path id="Vector_19" d="M89.3475 14.9713C89.3475 11.7751 89.3385 8.57795 89.3575 5.3817C89.3602 4.93635 89.2273 4.8069 88.7989 4.8404C88.3352 4.8766 87.8652 4.86574 87.3997 4.84311C87.0797 4.82682 86.964 4.94178 86.9929 5.25588C87.0101 5.44688 86.9839 5.64149 86.9748 5.8343C86.9748 5.83973 86.9504 5.85059 86.9396 5.84878C86.926 5.84607 86.9143 5.83339 86.9016 5.82525C86.9125 4.75621 86.9125 4.75621 87.9682 4.75621C88.3596 4.75621 88.751 4.76707 89.1405 4.75169C89.3665 4.74263 89.4542 4.79966 89.4542 5.04859C89.446 8.28648 89.4488 11.5235 89.447 14.7613C89.446 14.841 89.4813 14.9496 89.3475 14.9713Z" fill="#375178"/>
<path id="Vector_20" d="M46.8558 35.9899C43.0532 35.9899 39.2505 35.9899 35.4479 35.9854C35.277 35.9854 35.0845 36.0587 34.9363 35.8985C38.7914 35.8976 42.6473 35.8957 46.5024 35.9003C46.6199 35.8994 46.7754 35.8197 46.8558 35.9899Z" fill="#375178"/>
<path id="Vector_21" d="M76.5249 6.94655C76.8196 6.71935 77.1612 6.84336 77.4713 6.85513C77.8816 6.87142 77.9982 6.7284 77.9639 6.34007C77.9332 5.99791 77.9377 5.64941 77.963 5.30543C77.9892 4.95965 77.8843 4.83111 77.5165 4.83745C77.1893 4.84288 76.8349 4.96961 76.5249 4.74512C76.928 4.74964 77.3321 4.76232 77.7352 4.75417C77.9458 4.74964 78.0651 4.7777 78.0561 5.0384C78.0371 5.57699 78.0371 6.11649 78.0561 6.65508C78.0651 6.91578 77.9458 6.94384 77.7352 6.93931C77.3321 6.92936 76.928 6.94203 76.5249 6.94655Z" fill="#375178"/>
<path id="Vector_22" d="M41.3639 3.77716C41.3639 6.66474 41.3639 9.55141 41.3639 12.4381C41.21 12.3503 41.2625 12.2 41.2625 12.0733C41.2598 9.42921 41.2598 6.78513 41.2625 4.14105C41.2625 4.01523 41.21 3.86496 41.3639 3.77716Z" fill="#375178"/>
</g>
</svg>
